<svg xmlns="http://www.w3.org/2000/svg" xmlns:xlink="http://www.w3.org/1999/xlink" width="1366" zoomAndPan="magnify" viewBox="0 0 1024.5 576" height="768" preserveAspectRatio="xMidYMid meet" version="1.0">
    <defs>
        <clipPath id="c0185bec74">
            <path d="M 0 0.140625 L 1024 0.140625 L 1024 575.859375 L 0 575.859375 Z M 0 0.140625 " clip-rule="nonzero" />
        </clipPath>
    </defs>
    <path fill="#e1fbf7" d="M 773.246094 121.042969 C 755.21875 84.6875 719.199219 65.042969 696.867188 52.859375 C 600.316406 0.195312 468.78125 14.214844 381.355469 63.320312 C 295.0625 111.789062 219.855469 226.546875 251.382812 351.234375 C 283.027344 476.402344 406.199219 540.761719 499.359375 554.40625 C 647.289062 576.074219 771.578125 477.5 778.382812 443.289062 C 780.480469 432.734375 779.933594 423.386719 779.933594 423.386719 C 777.308594 398.691406 756.984375 384.019531 752.25 327.730469 C 743.535156 224.164062 804.859375 184.808594 773.246094 121.042969 " fill-opacity="1" fill-rule="nonzero" />
    <path fill="#39394b" d="M 434.132812 424.566406 C 434.992188 424.09375 435.855469 423.636719 436.730469 423.195312 C 444.449219 419.34375 452.777344 416.464844 460.875 413.527344 C 490.878906 402.640625 521.800781 394.628906 552.371094 385.542969 C 563.195312 382.324219 574.011719 379.160156 584.894531 376.199219 C 626.800781 288.378906 702.167969 128.398438 695.136719 128.398438 L 287.417969 112.667969 C 277.722656 112.667969 269.835938 120.550781 269.835938 130.242188 L 269.835938 414.753906 C 269.835938 424.449219 277.722656 432.332031 287.417969 432.332031 L 434.742188 422.355469 L 434.132812 424.566406 " fill-opacity="1" fill-rule="nonzero" />
    <path fill="#ffffff" d="M 555.339844 395.960938 L 451.371094 395.960938 L 421.875 503.570312 L 584.832031 503.570312 L 555.339844 395.960938 " fill-opacity="1" fill-rule="nonzero" />
    <path fill="#39394b" d="M 423.148438 502.601562 L 583.558594 502.601562 L 554.597656 396.933594 L 452.113281 396.933594 Z M 584.832031 504.546875 L 421.875 504.546875 C 421.570312 504.546875 421.285156 504.402344 421.101562 504.164062 C 420.917969 503.921875 420.855469 503.609375 420.9375 503.316406 L 450.429688 395.703125 C 450.546875 395.28125 450.929688 394.988281 451.371094 394.988281 L 555.339844 394.988281 C 555.777344 394.988281 556.164062 395.28125 556.277344 395.703125 L 585.773438 503.316406 C 585.851562 503.609375 585.792969 503.921875 585.605469 504.164062 C 585.425781 504.402344 585.136719 504.546875 584.832031 504.546875 " fill-opacity="1" fill-rule="nonzero" />
    <path fill="#ffffff" d="M 710.925781 113.660156 L 295.785156 113.660156 C 286.621094 113.660156 279.195312 121.085938 279.195312 130.242188 L 279.195312 414.753906 C 279.195312 423.914062 286.621094 431.339844 295.785156 431.339844 L 710.925781 431.339844 C 720.085938 431.339844 727.515625 423.914062 727.515625 414.753906 L 727.515625 130.242188 C 727.515625 121.085938 720.085938 113.660156 710.925781 113.660156 " fill-opacity="1" fill-rule="nonzero" />
    <path fill="#39394b" d="M 295.785156 114.632812 C 287.171875 114.632812 280.167969 121.636719 280.167969 130.246094 L 280.167969 414.753906 C 280.167969 423.363281 287.171875 430.367188 295.785156 430.367188 L 710.925781 430.367188 C 719.539062 430.367188 726.542969 423.363281 726.542969 414.753906 L 726.542969 130.246094 C 726.542969 121.636719 719.539062 114.632812 710.925781 114.632812 Z M 710.925781 432.3125 L 295.785156 432.3125 C 286.101562 432.3125 278.222656 424.4375 278.222656 414.753906 L 278.222656 130.246094 C 278.222656 120.5625 286.101562 112.6875 295.785156 112.6875 L 710.925781 112.6875 C 720.609375 112.6875 728.488281 120.5625 728.488281 130.246094 L 728.488281 414.753906 C 728.488281 424.4375 720.609375 432.3125 710.925781 432.3125 " fill-opacity="1" fill-rule="nonzero" />
    <path fill="#ffffff" d="M 602.53125 492.519531 L 404.179688 492.519531 C 398.476562 492.519531 393.855469 497.136719 393.855469 502.835938 C 393.855469 508.535156 398.476562 513.152344 404.179688 513.152344 L 602.53125 513.152344 C 608.234375 513.152344 612.855469 508.535156 612.855469 502.835938 C 612.855469 497.136719 608.234375 492.519531 602.53125 492.519531 " fill-opacity="1" fill-rule="nonzero" />
    <path fill="#39394b" d="M 404.179688 493.488281 C 399.023438 493.488281 394.828125 497.683594 394.828125 502.835938 C 394.828125 507.988281 399.023438 512.183594 404.179688 512.183594 L 602.53125 512.183594 C 607.6875 512.183594 611.882812 507.988281 611.882812 502.835938 C 611.882812 497.683594 607.6875 493.488281 602.53125 493.488281 Z M 602.53125 514.128906 L 404.179688 514.128906 C 397.949219 514.128906 392.882812 509.0625 392.882812 502.835938 C 392.882812 496.609375 397.949219 491.542969 404.179688 491.542969 L 602.53125 491.542969 C 608.761719 491.542969 613.828125 496.609375 613.828125 502.835938 C 613.828125 509.0625 608.761719 514.128906 602.53125 514.128906 " fill-opacity="1" fill-rule="nonzero" />
    <path fill="#ffffff" d="M 704.515625 128.40625 L 302.191406 128.40625 C 297.632812 128.40625 293.941406 132.097656 293.941406 136.648438 L 293.941406 408.351562 C 293.941406 412.90625 297.632812 416.597656 302.191406 416.597656 L 704.515625 416.597656 C 709.070312 416.597656 712.765625 412.90625 712.765625 408.351562 L 712.765625 136.648438 C 712.765625 132.097656 709.070312 128.40625 704.515625 128.40625 " fill-opacity="1" fill-rule="nonzero" />
    <path fill="#39394b" d="M 302.191406 129.371094 C 298.179688 129.371094 294.914062 132.636719 294.914062 136.648438 L 294.914062 408.351562 C 294.914062 412.363281 298.179688 415.625 302.191406 415.625 L 704.519531 415.625 C 708.53125 415.625 711.800781 412.363281 711.800781 408.351562 L 711.800781 136.648438 C 711.800781 132.636719 708.53125 129.371094 704.519531 129.371094 Z M 704.519531 417.570312 L 302.191406 417.570312 C 297.105469 417.570312 292.96875 413.433594 292.96875 408.351562 L 292.96875 136.648438 C 292.96875 131.5625 297.105469 127.425781 302.191406 127.425781 L 704.519531 127.425781 C 709.605469 127.425781 713.742188 131.5625 713.742188 136.648438 L 713.742188 408.351562 C 713.742188 413.433594 709.605469 417.570312 704.519531 417.570312 " fill-opacity="1" fill-rule="nonzero" />
    <path fill="#ffffff" d="M 655 415.519531 L 344.566406 415.519531 L 344.566406 36.882812 L 655 36.882812 L 655 415.519531 " fill-opacity="1" fill-rule="nonzero" />
    <path fill="#39394b" d="M 345.539062 414.546875 L 654.027344 414.546875 L 654.027344 37.855469 L 345.539062 37.855469 Z M 655 416.492188 L 344.566406 416.492188 C 344.027344 416.492188 343.59375 416.054688 343.59375 415.519531 L 343.59375 36.886719 C 343.59375 36.347656 344.027344 35.910156 344.566406 35.910156 L 655 35.910156 C 655.535156 35.910156 655.96875 36.347656 655.96875 36.886719 L 655.96875 415.519531 C 655.96875 416.054688 655.535156 416.492188 655 416.492188 " fill-opacity="1" fill-rule="nonzero" />
    <path fill="#146c6a" d="M 517.34375 68.964844 L 367.488281 68.964844 L 367.488281 59.511719 L 517.34375 59.511719 L 517.34375 68.964844 " fill-opacity="1" fill-rule="nonzero" />
    <path fill="#e1fbf7" d="M 593.0625 85.382812 L 417.894531 85.382812 L 417.894531 75.542969 L 593.0625 75.542969 L 593.0625 85.382812 " fill-opacity="1" fill-rule="nonzero" />
    <path fill="#e1fbf7" d="M 632.074219 101.597656 L 456.90625 101.597656 L 456.90625 91.761719 L 632.074219 91.761719 L 632.074219 101.597656 " fill-opacity="1" fill-rule="nonzero" />
    <path fill="#e1fbf7" d="M 610.953125 117.824219 L 520.414062 117.824219 L 520.414062 107.984375 L 610.953125 107.984375 L 610.953125 117.824219 " fill-opacity="1" fill-rule="nonzero" />
    <path fill="#146c6a" d="M 517.34375 198.734375 L 367.488281 198.734375 L 367.488281 189.28125 L 517.34375 189.28125 L 517.34375 198.734375 " fill-opacity="1" fill-rule="nonzero" />
    <path fill="#e1fbf7" d="M 593.066406 215.148438 L 417.894531 215.148438 L 417.894531 205.308594 L 593.066406 205.308594 L 593.066406 215.148438 " fill-opacity="1" fill-rule="nonzero" />
    <path fill="#e1fbf7" d="M 632.074219 231.367188 L 456.90625 231.367188 L 456.90625 221.53125 L 632.074219 221.53125 L 632.074219 231.367188 " fill-opacity="1" fill-rule="nonzero" />
    <path fill="#e1fbf7" d="M 632.074219 247.589844 L 520.414062 247.589844 L 520.414062 237.75 L 632.074219 237.75 L 632.074219 247.589844 " fill-opacity="1" fill-rule="nonzero" />
    <path fill="#e1fbf7" d="M 593.066406 134.042969 L 417.898438 134.042969 L 417.898438 124.203125 L 593.066406 124.203125 L 593.066406 134.042969 " fill-opacity="1" fill-rule="nonzero" />
    <path fill="#e1fbf7" d="M 632.074219 150.265625 L 456.90625 150.265625 L 456.90625 140.425781 L 632.074219 140.425781 L 632.074219 150.265625 " fill-opacity="1" fill-rule="nonzero" />
    <path fill="#e1fbf7" d="M 589.828125 182.703125 L 520.414062 182.703125 L 520.414062 172.867188 L 589.828125 172.867188 L 589.828125 182.703125 " fill-opacity="1" fill-rule="nonzero" />
    <path fill="#e1fbf7" d="M 632.078125 166.480469 L 520.414062 166.480469 L 520.414062 156.644531 L 632.078125 156.644531 L 632.078125 166.480469 " fill-opacity="1" fill-rule="nonzero" />
    <path fill="#146c6a" d="M 517.34375 263.617188 L 367.488281 263.617188 L 367.488281 254.164062 L 517.34375 254.164062 L 517.34375 263.617188 " fill-opacity="1" fill-rule="nonzero" />
    <path fill="#e1fbf7" d="M 593.066406 280.03125 L 417.894531 280.03125 L 417.894531 270.191406 L 593.066406 270.191406 L 593.066406 280.03125 " fill-opacity="1" fill-rule="nonzero" />
    <path fill="#e1fbf7" d="M 626.445312 296.246094 L 456.910156 296.246094 L 456.910156 286.410156 L 626.445312 286.410156 L 626.445312 296.246094 " fill-opacity="1" fill-rule="nonzero" />
    <path fill="#146c6a" d="M 632.074219 312.472656 L 520.414062 312.472656 L 520.414062 302.632812 L 632.074219 302.632812 L 632.074219 312.472656 " fill-opacity="1" fill-rule="nonzero" />
    <path fill="#146c6a" d="M 551.558594 393.574219 L 456.90625 393.574219 L 456.90625 383.738281 L 551.558594 383.738281 L 551.558594 393.574219 " fill-opacity="1" fill-rule="nonzero" />
    <path fill="#e1fbf7" d="M 593.066406 328.691406 L 417.894531 328.691406 L 417.894531 318.855469 L 593.066406 318.855469 L 593.066406 328.691406 " fill-opacity="1" fill-rule="nonzero" />
    <path fill="#e1fbf7" d="M 632.074219 344.914062 L 456.90625 344.914062 L 456.90625 335.074219 L 632.074219 335.074219 L 632.074219 344.914062 " fill-opacity="1" fill-rule="nonzero" />
    <path fill="#e1fbf7" d="M 632.074219 377.351562 L 520.414062 377.351562 L 520.414062 367.515625 L 632.074219 367.515625 L 632.074219 377.351562 " fill-opacity="1" fill-rule="nonzero" />
    <path fill="#e1fbf7" d="M 584.339844 361.132812 L 520.414062 361.132812 L 520.414062 351.296875 L 584.339844 351.296875 L 584.339844 361.132812 " fill-opacity="1" fill-rule="nonzero" />
    <path fill="#0d9e91" d="M 605.457031 113.082031 C 590.578125 121.691406 571.53125 116.613281 562.917969 101.738281 C 554.304688 86.859375 559.386719 67.820312 574.265625 59.210938 C 589.148438 50.601562 608.195312 55.683594 616.804688 70.558594 C 625.417969 85.433594 620.339844 104.472656 605.457031 113.082031 Z M 647.039062 60.050781 L 640.980469 49.589844 L 628.375 53.527344 C 626.539062 51.355469 624.546875 49.363281 622.421875 47.566406 L 626.328125 34.96875 L 615.84375 28.9375 L 606.894531 38.648438 C 604.25 37.703125 601.527344 36.976562 598.761719 36.484375 L 595.839844 23.601562 L 583.746094 23.613281 L 580.859375 36.484375 C 578.121094 36.976562 575.402344 37.714844 572.726562 38.683594 L 563.757812 28.992188 L 553.285156 35.050781 L 557.230469 47.652344 C 555.054688 49.488281 553.058594 51.476562 551.265625 53.605469 L 538.664062 49.699219 L 532.628906 60.175781 L 542.347656 69.121094 C 541.398438 71.765625 540.675781 74.484375 540.179688 77.25 L 527.292969 80.171875 L 527.304688 92.257812 L 540.179688 95.148438 C 540.675781 97.886719 541.410156 100.605469 542.382812 103.277344 L 532.683594 112.242188 L 538.742188 122.707031 L 551.351562 118.769531 C 553.191406 120.941406 555.175781 122.933594 557.308594 124.726562 L 553.398438 137.324219 L 563.878906 143.359375 L 572.832031 133.644531 C 575.476562 134.589844 578.195312 135.3125 580.960938 135.816406 L 583.882812 148.695312 L 595.976562 148.679688 L 598.867188 135.808594 C 601.605469 135.316406 604.324219 134.578125 607 133.613281 L 615.96875 143.304688 L 626.4375 137.246094 L 622.5 124.640625 C 624.671875 122.808594 626.664062 120.816406 628.460938 118.691406 L 641.058594 122.597656 L 647.097656 112.125 L 637.378906 103.171875 C 638.328125 100.527344 639.054688 97.808594 639.550781 95.046875 L 652.433594 92.125 L 652.417969 80.035156 L 639.550781 77.148438 C 639.054688 74.410156 638.3125 71.691406 637.34375 69.015625 L 647.039062 60.050781 " fill-opacity="1" fill-rule="nonzero" />
    <path fill="#39394b" d="M 584.0625 54.472656 C 578.9375 54.472656 573.746094 55.777344 569.003906 58.523438 C 554.609375 66.851562 549.679688 85.328125 558.011719 99.71875 C 562.046875 106.6875 568.554688 111.667969 576.339844 113.746094 C 584.125 115.820312 592.25 114.742188 599.222656 110.707031 C 606.195312 106.675781 611.175781 100.167969 613.253906 92.382812 C 615.332031 84.605469 614.253906 76.484375 610.21875 69.515625 C 604.632812 59.871094 594.480469 54.472656 584.0625 54.472656 Z M 584.164062 116.722656 C 581.390625 116.722656 578.59375 116.359375 575.835938 115.621094 C 567.550781 113.414062 560.625 108.109375 556.324219 100.691406 C 547.460938 85.375 552.710938 65.703125 568.03125 56.839844 C 583.351562 47.976562 603.035156 53.222656 611.902344 68.535156 C 616.195312 75.957031 617.347656 84.605469 615.132812 92.886719 C 612.925781 101.167969 607.617188 108.09375 600.195312 112.390625 C 595.242188 115.253906 589.742188 116.722656 584.164062 116.722656 Z M 567.082031 131.136719 C 567.191406 131.136719 567.300781 131.15625 567.410156 131.195312 C 569.996094 132.121094 572.679688 132.835938 575.382812 133.320312 C 575.769531 133.390625 576.074219 133.683594 576.164062 134.066406 L 578.914062 146.1875 L 589.449219 146.175781 L 592.167969 134.066406 C 592.253906 133.683594 592.5625 133.390625 592.941406 133.320312 C 595.605469 132.839844 598.289062 132.117188 600.917969 131.160156 C 601.285156 131.027344 601.699219 131.128906 601.964844 131.417969 L 610.410156 140.539062 L 619.527344 135.261719 L 615.820312 123.402344 C 615.703125 123.027344 615.824219 122.617188 616.121094 122.367188 C 618.253906 120.566406 620.21875 118.601562 621.964844 116.53125 C 622.21875 116.234375 622.625 116.113281 623 116.230469 L 634.855469 119.90625 L 640.117188 110.777344 L 630.972656 102.355469 C 630.683594 102.09375 630.582031 101.679688 630.714844 101.3125 C 631.636719 98.726562 632.355469 96.046875 632.839844 93.339844 C 632.910156 92.957031 633.203125 92.648438 633.585938 92.5625 L 645.710938 89.816406 L 645.699219 79.28125 L 633.585938 76.566406 C 633.203125 76.480469 632.910156 76.171875 632.839844 75.785156 C 632.359375 73.125 631.628906 70.441406 630.679688 67.816406 C 630.546875 67.449219 630.648438 67.039062 630.9375 66.773438 L 640.058594 58.332031 L 634.78125 49.21875 L 622.917969 52.921875 C 622.542969 53.035156 622.132812 52.921875 621.878906 52.621094 C 620.082031 50.488281 618.113281 48.523438 616.042969 46.777344 C 615.746094 46.527344 615.625 46.117188 615.742188 45.75 L 619.417969 33.890625 L 610.289062 28.636719 L 601.863281 37.777344 C 601.597656 38.066406 601.1875 38.167969 600.820312 38.035156 C 598.230469 37.109375 595.546875 36.390625 592.84375 35.910156 C 592.457031 35.839844 592.152344 35.546875 592.066406 35.164062 L 589.316406 23.042969 L 578.78125 23.054688 L 576.0625 35.164062 C 575.976562 35.542969 575.667969 35.839844 575.28125 35.910156 C 572.613281 36.390625 569.933594 37.117188 567.308594 38.066406 C 566.9375 38.203125 566.53125 38.101562 566.265625 37.8125 L 557.820312 28.691406 L 548.699219 33.96875 L 552.40625 45.828125 C 552.523438 46.203125 552.40625 46.609375 552.105469 46.863281 C 549.976562 48.664062 548.007812 50.625 546.261719 52.699219 C 546.007812 52.996094 545.601562 53.113281 545.226562 53 L 533.371094 49.324219 L 528.113281 58.453125 L 537.253906 66.875 C 537.542969 67.140625 537.648438 67.550781 537.515625 67.917969 C 536.589844 70.507812 535.871094 73.191406 535.382812 75.886719 C 535.316406 76.273438 535.023438 76.582031 534.644531 76.667969 L 522.515625 79.414062 L 522.527344 89.949219 L 534.644531 92.664062 C 535.023438 92.75 535.316406 93.058594 535.382812 93.441406 C 535.867188 96.105469 536.597656 98.789062 537.546875 101.414062 C 537.679688 101.78125 537.578125 102.191406 537.292969 102.457031 L 528.167969 110.894531 L 533.445312 120.011719 L 545.3125 116.308594 C 545.6875 116.191406 546.09375 116.308594 546.34375 116.605469 C 548.148438 118.742188 550.113281 120.707031 552.183594 122.453125 C 552.484375 122.703125 552.601562 123.109375 552.488281 123.484375 L 548.808594 135.335938 L 557.941406 140.59375 L 566.367188 131.453125 C 566.554688 131.25 566.8125 131.136719 567.082031 131.136719 Z M 578.132812 148.132812 C 577.679688 148.132812 577.285156 147.816406 577.1875 147.375 L 574.40625 135.121094 C 572.023438 134.660156 569.660156 134.03125 567.363281 133.242188 L 558.84375 142.484375 C 558.539062 142.816406 558.039062 142.894531 557.644531 142.667969 L 547.167969 136.636719 C 546.769531 136.40625 546.585938 135.9375 546.722656 135.503906 L 550.4375 123.519531 C 548.625 121.949219 546.890625 120.214844 545.28125 118.355469 L 533.285156 122.101562 C 532.851562 122.238281 532.382812 122.054688 532.152344 121.660156 L 526.09375 111.199219 C 525.867188 110.804688 525.941406 110.308594 526.277344 109.996094 L 535.5 101.464844 C 534.691406 99.144531 534.050781 96.78125 533.589844 94.425781 L 521.34375 91.675781 C 520.898438 91.574219 520.585938 91.179688 520.585938 90.726562 L 520.570312 78.636719 C 520.570312 78.183594 520.886719 77.792969 521.328125 77.691406 L 533.589844 74.910156 C 534.050781 72.53125 534.675781 70.167969 535.472656 67.871094 L 526.222656 59.355469 C 525.886719 59.046875 525.8125 58.550781 526.039062 58.15625 L 532.074219 47.679688 C 532.300781 47.285156 532.769531 47.101562 533.207031 47.238281 L 545.191406 50.953125 C 546.769531 49.140625 548.5 47.40625 550.359375 45.796875 L 546.613281 33.804688 C 546.480469 33.375 546.660156 32.902344 547.054688 32.671875 L 557.519531 26.617188 C 557.914062 26.394531 558.414062 26.464844 558.722656 26.800781 L 567.253906 36.019531 C 569.574219 35.210938 571.945312 34.574219 574.300781 34.113281 L 577.050781 21.867188 C 577.152344 21.429688 577.546875 21.109375 578 21.109375 L 590.09375 21.097656 C 590.546875 21.097656 590.941406 21.414062 591.042969 21.855469 L 593.824219 34.109375 C 596.203125 34.570312 598.566406 35.199219 600.867188 35.988281 L 609.378906 26.746094 C 609.6875 26.414062 610.191406 26.335938 610.585938 26.5625 L 621.0625 32.59375 C 621.460938 32.820312 621.644531 33.292969 621.507812 33.722656 L 617.789062 45.710938 C 619.601562 47.28125 621.335938 49.015625 622.949219 50.875 L 634.941406 47.125 C 635.378906 46.992188 635.847656 47.175781 636.074219 47.570312 L 642.132812 58.03125 C 642.359375 58.425781 642.285156 58.921875 641.953125 59.230469 L 632.722656 67.765625 C 633.539062 70.085938 634.175781 72.449219 634.636719 74.804688 L 646.882812 77.554688 C 647.328125 77.65625 647.640625 78.050781 647.640625 78.5 L 647.652344 90.589844 C 647.652344 91.046875 647.34375 91.4375 646.898438 91.539062 L 634.636719 94.320312 C 634.175781 96.703125 633.550781 99.066406 632.757812 101.359375 L 642.007812 109.871094 C 642.339844 110.183594 642.417969 110.679688 642.1875 111.074219 L 636.152344 121.546875 C 635.925781 121.945312 635.453125 122.128906 635.027344 121.992188 L 623.03125 118.277344 C 621.460938 120.089844 619.730469 121.820312 617.867188 123.433594 L 621.617188 135.425781 C 621.75 135.855469 621.570312 136.328125 621.175781 136.554688 L 610.707031 142.613281 C 610.3125 142.835938 609.816406 142.765625 609.503906 142.429688 L 600.972656 133.210938 C 598.648438 134.019531 596.28125 134.65625 593.929688 135.117188 L 591.175781 147.359375 C 591.078125 147.800781 590.683594 148.117188 590.226562 148.117188 L 578.132812 148.132812 " fill-opacity="1" fill-rule="nonzero" />
    <path fill="#ffffff" d="M 673.019531 382.328125 L 672.5625 398.671875 L 664.828125 398.671875 L 662.230469 380.832031 L 673.019531 382.328125 " fill-opacity="1" fill-rule="nonzero" />
    <path fill="#39394b" d="M 665.675781 397.699219 L 671.617188 397.699219 L 672.027344 383.171875 L 663.382812 381.96875 Z M 672.566406 399.640625 L 664.832031 399.640625 C 664.351562 399.640625 663.941406 399.289062 663.871094 398.808594 L 661.269531 380.96875 C 661.226562 380.667969 661.328125 380.363281 661.546875 380.144531 C 661.757812 379.925781 662.066406 379.824219 662.367188 379.863281 L 673.160156 381.363281 C 673.648438 381.429688 674.011719 381.859375 673.996094 382.355469 L 673.539062 398.699219 C 673.523438 399.222656 673.089844 399.640625 672.566406 399.640625 " fill-opacity="1" fill-rule="nonzero" />
    <path fill="#39394b" d="M 633.117188 412.3125 L 673.226562 412.3125 C 675.320312 412.3125 676.917969 410.464844 676.617188 408.398438 C 675.925781 403.710938 674.710938 396.101562 673.65625 393 C 672.089844 388.367188 667.007812 395.75 667.007812 395.75 L 664.039062 393.25 C 664.039062 393.25 637.601562 400.988281 631.535156 409.136719 C 630.554688 410.449219 631.480469 412.3125 633.117188 412.3125 " fill-opacity="1" fill-rule="nonzero" />
    <path fill="#ffffff" d="M 673.019531 410.234375 L 635.550781 410.234375 C 635.011719 410.234375 634.578125 409.796875 634.578125 409.261719 C 634.578125 408.726562 635.011719 408.289062 635.550781 408.289062 L 673.019531 408.289062 C 673.558594 408.289062 673.992188 408.726562 673.992188 409.261719 C 673.992188 409.796875 673.558594 410.234375 673.019531 410.234375 " fill-opacity="1" fill-rule="nonzero" />
    <path fill="#ffffff" d="M 730.335938 364.949219 L 745.039062 383.5625 L 752.820312 377.734375 L 740.230469 357.199219 L 730.335938 364.949219 " fill-opacity="1" fill-rule="nonzero" />
    <path fill="#39394b" d="M 731.710938 365.109375 L 745.21875 382.214844 L 751.53125 377.484375 L 739.980469 358.636719 Z M 745.046875 384.535156 C 744.757812 384.535156 744.472656 384.40625 744.28125 384.164062 L 729.574219 365.550781 C 729.417969 365.347656 729.34375 365.089844 729.375 364.832031 C 729.410156 364.578125 729.539062 364.339844 729.738281 364.183594 L 739.636719 356.433594 C 739.859375 356.261719 740.136719 356.191406 740.410156 356.238281 C 740.683594 356.289062 740.921875 356.453125 741.066406 356.691406 L 753.652344 377.222656 C 753.917969 377.652344 753.808594 378.207031 753.410156 378.511719 L 745.628906 384.339844 C 745.453125 384.46875 745.25 384.535156 745.046875 384.535156 " fill-opacity="1" fill-rule="nonzero" />
    <path fill="#39394b" d="M 729.503906 410.75 C 736.242188 407.605469 753.578125 398.796875 763.375 387.292969 C 764.257812 386.257812 764.277344 384.746094 763.460938 383.660156 C 761.375 380.882812 757.140625 375.742188 752.824219 373.355469 C 752.824219 373.355469 744.042969 376.410156 746.398438 380.546875 L 743.195312 380.035156 C 743.195312 380.035156 729.042969 395.925781 726.96875 408.855469 C 726.742188 410.269531 728.207031 411.355469 729.503906 410.75 " fill-opacity="1" fill-rule="nonzero" />
    <path fill="#ffffff" d="M 729.828125 408.378906 C 729.488281 408.378906 729.152344 408.199219 728.980469 407.878906 C 728.71875 407.414062 728.882812 406.820312 729.351562 406.558594 C 729.558594 406.445312 749.964844 395.027344 760.679688 383.628906 C 761.046875 383.238281 761.664062 383.214844 762.054688 383.582031 C 762.449219 383.949219 762.464844 384.570312 762.101562 384.957031 C 751.171875 396.582031 730.507812 408.140625 730.300781 408.257812 C 730.152344 408.339844 729.988281 408.378906 729.828125 408.378906 " fill-opacity="1" fill-rule="nonzero" />
    <path fill="#0d9e91" d="M 637.828125 244.351562 C 637.828125 244.351562 645.023438 293.050781 649.140625 318.660156 C 653.261719 344.269531 662.113281 385.527344 662.113281 385.527344 L 674.835938 385.527344 C 674.835938 385.527344 679.027344 357.511719 680.035156 341.980469 C 681.042969 326.449219 675.914062 322.0625 674.898438 309.566406 C 673.878906 297.0625 680.234375 256.660156 680.234375 256.660156 L 661.382812 238.246094 L 637.828125 244.351562 " fill-opacity="1" fill-rule="nonzero" />
    <path fill="#0d9e91" d="M 669.769531 255.125 C 669.769531 255.125 692.332031 320.023438 731.601562 370.28125 L 744.917969 359.765625 C 744.917969 359.765625 734.34375 325.527344 731.726562 321.125 C 729.109375 316.71875 722.097656 305.335938 719.992188 299.347656 C 713.171875 279.941406 705.9375 242.914062 705.9375 242.914062 L 669.769531 255.125 " fill-opacity="1" fill-rule="nonzero" />
    <path fill="#ffffff" d="M 641.398438 158.355469 C 639.363281 156.316406 639.789062 155.035156 640.164062 154.945312 C 640.503906 154.859375 642.582031 153.839844 643.226562 153.273438 C 644.769531 151.917969 645.269531 149.96875 644.339844 148.914062 C 643.847656 148.347656 643.039062 148.15625 642.164062 148.308594 C 642.40625 145.480469 641.589844 144.132812 640.914062 142.191406 C 638.582031 135.5 632.738281 136.894531 630.621094 139.300781 C 628.777344 141.398438 628.910156 143.195312 624.914062 145.21875 C 624.535156 145.414062 624.539062 145.992188 624.75 146.367188 L 625.796875 148.492188 C 626.03125 148.914062 625.941406 149.941406 625.796875 150.402344 C 625.332031 151.832031 624.242188 154.820312 624.554688 155.402344 C 625.148438 156.527344 629.835938 158.214844 629.835938 158.214844 L 638.148438 170.746094 C 637.804688 173.386719 636.296875 174.871094 635.167969 175.628906 C 634.46875 176.097656 634.464844 177.125 635.175781 177.570312 C 636.519531 178.410156 639.226562 179.71875 644.660156 181.636719 C 651.855469 184.175781 659.65625 174.746094 659.65625 174.746094 C 659.65625 174.746094 657.46875 174.429688 641.398438 158.355469 " fill-opacity="1" fill-rule="nonzero" />
    <path fill="#39394b" d="M 625.46875 155.117188 Z M 640.402344 155.886719 C 640.402344 155.886719 640.398438 155.886719 640.398438 155.886719 C 640.398438 155.886719 640.402344 155.886719 640.402344 155.886719 Z M 640.398438 155.886719 C 640.394531 155.886719 640.394531 155.886719 640.394531 155.886719 C 640.394531 155.886719 640.394531 155.886719 640.398438 155.886719 Z M 659.796875 173.785156 C 659.800781 173.785156 659.800781 173.785156 659.800781 173.785156 C 659.800781 173.785156 659.800781 173.785156 659.796875 173.785156 Z M 659.800781 173.785156 Z M 659.800781 173.785156 Z M 659.9375 173.816406 Z M 625.46875 155.015625 C 625.9375 155.5 628.046875 156.539062 630.171875 157.300781 C 630.363281 157.371094 630.535156 157.503906 630.652344 157.675781 L 638.964844 170.210938 C 639.089844 170.40625 639.148438 170.640625 639.117188 170.875 C 638.730469 173.84375 637.050781 175.539062 635.707031 176.4375 C 635.628906 176.492188 635.617188 176.566406 635.617188 176.609375 C 635.617188 176.699219 635.671875 176.734375 635.691406 176.746094 C 636.855469 177.472656 639.414062 178.75 644.984375 180.71875 C 650.234375 182.574219 656.066406 177.15625 658.132812 174.984375 C 656.109375 173.617188 651.433594 169.765625 640.714844 159.039062 C 638.683594 157.011719 638.808594 155.5625 638.953125 155.035156 C 639.101562 154.5 639.46875 154.113281 639.929688 154 C 640.273438 153.890625 642.097656 152.96875 642.585938 152.542969 C 643.800781 151.476562 644.101562 150.113281 643.613281 149.554688 C 643.367188 149.273438 642.894531 149.167969 642.328125 149.265625 C 642.03125 149.316406 641.730469 149.226562 641.507812 149.023438 C 641.285156 148.820312 641.171875 148.523438 641.195312 148.222656 C 641.371094 146.140625 640.9375 145.003906 640.386719 143.5625 C 640.253906 143.226562 640.125 142.878906 639.996094 142.511719 C 639.167969 140.144531 637.800781 138.710938 636.035156 138.367188 C 634.1875 138.003906 632.28125 138.886719 631.355469 139.941406 C 630.835938 140.527344 630.492188 141.09375 630.125 141.6875 C 629.285156 143.058594 628.414062 144.476562 625.628906 145.945312 L 626.671875 148.0625 C 627.09375 148.8125 626.878906 150.191406 626.722656 150.703125 C 626.648438 150.925781 626.5625 151.183594 626.464844 151.46875 C 626.167969 152.351562 625.503906 154.355469 625.46875 155.015625 Z M 647.246094 183.046875 C 646.28125 183.046875 645.308594 182.898438 644.339844 182.554688 C 639.730469 180.925781 636.476562 179.527344 634.660156 178.394531 C 634.054688 178.011719 633.683594 177.359375 633.671875 176.640625 C 633.65625 175.910156 634.015625 175.230469 634.625 174.824219 C 635.578125 174.183594 636.757812 173.003906 637.132812 170.972656 L 629.207031 159.019531 C 627.558594 158.410156 624.347656 157.089844 623.695312 155.855469 C 623.304688 155.121094 623.582031 153.964844 624.621094 150.851562 C 624.710938 150.578125 624.796875 150.320312 624.867188 150.105469 C 624.972656 149.777344 625 149.117188 624.933594 148.933594 L 623.875 146.792969 C 623.628906 146.359375 623.558594 145.773438 623.710938 145.277344 C 623.835938 144.867188 624.109375 144.535156 624.476562 144.351562 C 626.988281 143.078125 627.671875 141.960938 628.464844 140.671875 C 628.859375 140.03125 629.269531 139.371094 629.894531 138.65625 C 631.148438 137.230469 633.722656 135.933594 636.40625 136.457031 C 638.140625 136.796875 640.488281 138.011719 641.835938 141.875 C 641.957031 142.21875 642.078125 142.546875 642.203125 142.867188 C 642.679688 144.121094 643.175781 145.402344 643.179688 147.3125 C 643.941406 147.402344 644.605469 147.730469 645.070312 148.269531 C 646.375 149.75 645.84375 152.269531 643.867188 154 C 643.261719 154.535156 641.671875 155.371094 640.828125 155.726562 C 640.878906 156.054688 641.152344 156.730469 642.089844 157.667969 C 656.601562 172.1875 659.664062 173.699219 659.921875 173.808594 C 660.214844 173.890625 660.453125 174.105469 660.5625 174.394531 C 660.6875 174.726562 660.628906 175.09375 660.40625 175.367188 C 660.113281 175.71875 653.96875 183.042969 647.246094 183.046875 " fill-opacity="1" fill-rule="nonzero" />
    <path fill="#39394b" d="M 632.960938 141.164062 C 632.960938 141.164062 625.613281 135.316406 627.664062 130.613281 C 627.84375 130.199219 628.394531 128.902344 629.660156 128.332031 C 632.253906 127.15625 635.613281 129.988281 636.367188 130.613281 C 642.882812 136.039062 647.230469 136.574219 649.996094 139.417969 C 651 140.449219 652.117188 142.359375 651.984375 146.175781 C 651.449219 148.890625 650.324219 150.332031 649.402344 151.140625 C 647.5 152.804688 645.851562 152.324219 644.503906 154.078125 C 642.992188 156.042969 643.9375 158.113281 642.882812 158.730469 C 642.070312 159.207031 640.28125 158.679688 636.078125 154.519531 C 638.59375 151.710938 639.832031 148.945312 638.949219 147.558594 C 638.695312 147.164062 637.984375 146.496094 637.238281 146.5 C 636.253906 146.507812 635.601562 147.558594 635.601562 147.558594 L 632.960938 141.164062 " fill-opacity="1" fill-rule="nonzero" />
    <path fill="#ffffff" d="M 553.167969 161.726562 L 544.015625 156.285156 C 543.160156 155.777344 542.460938 155.039062 542.003906 154.160156 L 539.71875 149.773438 C 539.378906 149.125 540.171875 148.480469 540.742188 148.941406 L 545.832031 153.074219 C 546.546875 153.65625 547.386719 154.070312 548.289062 154.28125 L 555.640625 156.089844 L 557.324219 152.660156 C 557.824219 151.652344 558.871094 151.035156 559.996094 151.085938 L 558.089844 159.363281 L 560.332031 167.121094 L 554.652344 168.945312 L 553.167969 161.726562 " fill-opacity="1" fill-rule="nonzero" />
    <path fill="#39394b" d="M 541.25 150.613281 L 542.867188 153.710938 C 543.238281 154.429688 543.808594 155.03125 544.507812 155.449219 L 553.664062 160.890625 C 553.898438 161.027344 554.066406 161.261719 554.117188 161.53125 L 555.386719 167.691406 L 559.132812 166.488281 L 557.152344 159.636719 C 557.105469 159.476562 557.097656 159.308594 557.140625 159.144531 L 558.675781 152.488281 C 558.480469 152.652344 558.316406 152.855469 558.199219 153.09375 L 556.515625 156.519531 C 556.3125 156.929688 555.851562 157.140625 555.40625 157.03125 L 548.054688 155.226562 C 547.027344 154.984375 546.046875 154.503906 545.214844 153.832031 Z M 554.648438 169.921875 C 554.476562 169.921875 554.308594 169.875 554.160156 169.789062 C 553.917969 169.648438 553.753906 169.414062 553.699219 169.140625 L 552.300781 162.34375 L 543.515625 157.121094 C 542.503906 156.519531 541.683594 155.652344 541.136719 154.609375 L 538.855469 150.222656 C 538.492188 149.523438 538.660156 148.6875 539.269531 148.191406 C 539.886719 147.691406 540.738281 147.691406 541.351562 148.1875 L 546.441406 152.324219 C 547.039062 152.808594 547.753906 153.160156 548.507812 153.332031 L 555.113281 154.957031 L 556.453125 152.234375 C 557.117188 150.878906 558.539062 150.042969 560.039062 150.117188 C 560.332031 150.128906 560.59375 150.269531 560.769531 150.5 C 560.949219 150.730469 561.007812 151.023438 560.945312 151.308594 L 559.09375 159.339844 L 561.261719 166.855469 C 561.410156 167.359375 561.128906 167.890625 560.628906 168.046875 L 554.949219 169.875 C 554.847656 169.90625 554.75 169.921875 554.648438 169.921875 " fill-opacity="1" fill-rule="nonzero" />
    <path fill="#ffffff" d="M 666.21875 77.363281 C 666.21875 77.363281 663.535156 74.164062 660.632812 74.449219 C 657.734375 74.734375 655.316406 74.589844 655.316406 74.589844 C 655.316406 74.589844 655.46875 72.238281 657.0625 72.324219 C 658.65625 72.414062 658.65625 72.414062 658.65625 72.414062 L 660.210938 71.84375 L 654.136719 59.511719 L 658.121094 60.1875 C 658.929688 60.324219 659.648438 60.757812 660.148438 61.402344 L 670.230469 74.484375 L 666.21875 77.363281 " fill-opacity="1" fill-rule="nonzero" />
    <path fill="#39394b" d="M 661 73.464844 C 663.3125 73.464844 665.347656 75.125 666.339844 76.082031 L 668.84375 74.28125 L 659.375 62.003906 C 659.027344 61.546875 658.523438 61.246094 657.957031 61.148438 L 655.847656 60.792969 L 661.082031 71.421875 C 661.203125 71.664062 661.214844 71.953125 661.109375 72.210938 C 661.007812 72.46875 660.804688 72.664062 660.542969 72.761719 L 658.984375 73.328125 C 658.863281 73.375 658.730469 73.394531 658.601562 73.386719 L 657.003906 73.300781 C 656.816406 73.292969 656.660156 73.445312 656.550781 73.65625 C 657.511719 73.660156 658.957031 73.644531 660.539062 73.484375 C 660.695312 73.472656 660.847656 73.464844 661 73.464844 Z M 666.21875 78.335938 C 665.9375 78.335938 665.660156 78.214844 665.46875 77.988281 C 664.8125 77.207031 662.667969 75.226562 660.730469 75.425781 C 657.78125 75.714844 655.355469 75.570312 655.257812 75.5625 C 654.996094 75.550781 654.753906 75.433594 654.585938 75.238281 C 654.410156 75.042969 654.328125 74.789062 654.339844 74.53125 C 654.445312 72.9375 655.351562 71.257812 657.113281 71.355469 L 658.503906 71.433594 L 658.855469 71.304688 L 653.257812 59.945312 C 653.097656 59.617188 653.132812 59.226562 653.355469 58.9375 C 653.570312 58.644531 653.933594 58.496094 654.292969 58.558594 L 658.28125 59.234375 C 659.328125 59.410156 660.265625 59.972656 660.914062 60.816406 L 670.996094 73.890625 C 671.160156 74.101562 671.230469 74.367188 671.1875 74.625 C 671.152344 74.890625 671.007812 75.125 670.796875 75.277344 L 666.78125 78.15625 C 666.613281 78.277344 666.414062 78.335938 666.21875 78.335938 " fill-opacity="1" fill-rule="nonzero" />
    <path fill="#ffffff" d="M 622.28125 206.753906 L 627.933594 249.542969 C 627.933594 249.542969 642.660156 251.820312 657.6875 250.566406 C 657.6875 250.566406 638.617188 205.484375 622.28125 206.753906 " fill-opacity="1" fill-rule="nonzero" />
    <path fill="#39394b" d="M 628.800781 248.6875 C 631.816406 249.097656 643.84375 250.5625 656.242188 249.699219 C 653.117188 242.683594 637.144531 208.375 623.386719 207.710938 Z M 648.1875 251.910156 C 637.039062 251.910156 627.898438 250.523438 627.785156 250.507812 C 627.355469 250.441406 627.023438 250.101562 626.964844 249.671875 L 621.316406 206.878906 C 621.28125 206.613281 621.359375 206.347656 621.523438 206.140625 C 621.695312 205.933594 621.941406 205.800781 622.207031 205.785156 C 639.0625 204.488281 657.792969 248.316406 658.582031 250.1875 C 658.703125 250.472656 658.679688 250.800781 658.515625 251.066406 C 658.355469 251.335938 658.074219 251.507812 657.765625 251.535156 C 654.519531 251.804688 651.277344 251.910156 648.1875 251.910156 " fill-opacity="1" fill-rule="nonzero" />
    <path fill="#39394b" d="M 560.804688 161.5 C 557.652344 163.722656 554.503906 165.949219 551.351562 168.175781 C 563.21875 195.675781 577.320312 205.175781 587.824219 208.84375 C 605.894531 215.148438 617.097656 205.496094 630.039062 214.496094 C 644.613281 224.644531 636.359375 241.085938 652.761719 257.015625 C 667.46875 271.308594 687.535156 271.117188 691.5625 271.074219 C 695.671875 271.039062 719 270.8125 725.386719 257.015625 C 727.636719 252.160156 726.984375 247.347656 726.519531 243.898438 C 725.652344 237.476562 722.65625 232.742188 711.53125 218.921875 C 703.417969 208.84375 702.300781 208.058594 699.820312 204.769531 C 694.433594 197.632812 688.28125 186.210938 686.09375 167.902344 C 689.75 160.988281 697.019531 144.933594 695.519531 123.800781 C 693.472656 94.929688 676.464844 76.535156 671.539062 71.558594 C 668.902344 73.492188 666.265625 75.429688 663.632812 77.363281 C 666.570312 82.359375 675.007812 98.171875 672.445312 119.277344 C 669.945312 139.816406 658.574219 152.675781 654.949219 156.65625 C 649.984375 162.109375 630.777344 181.449219 601.84375 179.75 C 579.800781 178.457031 565.253906 165.726562 560.804688 161.5 " fill-opacity="1" fill-rule="nonzero" />
    <path fill="#ffffff" d="M 624.285156 176.707031 C 624.285156 176.707031 622.144531 172.304688 624.285156 171.425781 C 626.425781 170.554688 650.15625 158.675781 653.980469 153.445312 C 657.804688 148.21875 675.734375 150.308594 679.441406 153.445312 C 683.144531 156.585938 677.964844 169.546875 669.695312 174.714844 C 661.421875 179.878906 643.847656 170.289062 624.285156 176.707031 " fill-opacity="1" fill-rule="nonzero" />
    <path fill="#39394b" d="M 664.820312 151.234375 C 663.574219 151.234375 662.347656 151.296875 661.183594 151.4375 C 657.984375 151.816406 655.707031 152.734375 654.765625 154.023438 C 650.609375 159.707031 625.929688 171.808594 624.65625 172.332031 C 624.542969 172.375 624.457031 172.441406 624.390625 172.609375 C 624.152344 173.242188 624.449219 174.5 624.832031 175.519531 C 635.375 172.289062 645.351562 173.535156 653.410156 174.535156 C 660.273438 175.386719 665.703125 176.0625 669.175781 173.890625 C 675 170.253906 679.296875 162.476562 679.65625 157.492188 C 679.773438 155.925781 679.46875 154.753906 678.808594 154.191406 C 676.984375 152.644531 670.710938 151.234375 664.820312 151.234375 Z M 624.28125 177.683594 C 623.917969 177.683594 623.574219 177.480469 623.40625 177.136719 C 623.242188 176.800781 621.84375 173.820312 622.574219 171.917969 C 622.820312 171.269531 623.28125 170.792969 623.914062 170.53125 C 625.960938 169.691406 649.550781 157.859375 653.191406 152.875 C 654.496094 151.097656 657.105469 149.960938 660.949219 149.503906 C 667.738281 148.699219 677.207031 150.285156 680.066406 152.707031 C 681.230469 153.695312 681.761719 155.398438 681.597656 157.632812 C 681.203125 163.070312 676.738281 171.460938 670.207031 175.542969 C 666.148438 178.078125 660.417969 177.367188 653.171875 176.464844 C 645.085938 175.460938 635.03125 174.207031 624.585938 177.636719 C 624.488281 177.671875 624.382812 177.683594 624.28125 177.683594 " fill-opacity="1" fill-rule="nonzero" />
    <path fill="#39394b" d="M 532.214844 524.660156 L 438.28125 524.660156 C 437.746094 524.660156 437.308594 524.222656 437.308594 523.6875 C 437.308594 523.148438 437.746094 522.714844 438.28125 522.714844 L 531.242188 522.714844 L 531.242188 458.757812 C 531.242188 458.222656 531.675781 457.789062 532.214844 457.789062 L 609.980469 457.789062 L 609.980469 411.085938 C 609.980469 410.546875 610.414062 410.113281 610.953125 410.113281 L 764.054688 410.113281 C 764.589844 410.113281 765.027344 410.546875 765.027344 411.085938 C 765.027344 411.621094 764.589844 412.058594 764.054688 412.058594 L 611.925781 412.058594 L 611.925781 458.757812 C 611.925781 459.292969 611.488281 459.734375 610.953125 459.734375 L 533.1875 459.734375 L 533.1875 523.6875 C 533.1875 524.222656 532.757812 524.660156 532.214844 524.660156 " fill-opacity="1" fill-rule="nonzero" />
    <path fill="#39394b" d="M 505.480469 121.046875 C 501.53125 121.046875 498.316406 117.835938 498.316406 113.894531 C 498.316406 109.949219 501.53125 106.746094 505.480469 106.746094 C 506.015625 106.746094 506.453125 107.179688 506.453125 107.71875 C 506.453125 108.253906 506.015625 108.6875 505.480469 108.6875 C 502.601562 108.6875 500.265625 111.023438 500.265625 113.894531 C 500.265625 116.765625 502.601562 119.097656 505.480469 119.097656 C 508.359375 119.097656 510.695312 116.765625 510.695312 113.894531 C 510.695312 113.355469 511.132812 112.921875 511.667969 112.921875 C 512.210938 112.921875 512.644531 113.355469 512.644531 113.894531 C 512.644531 117.835938 509.429688 121.046875 505.480469 121.046875 " fill-opacity="1" fill-rule="nonzero" />
    <path fill="#39394b" d="M 331.785156 502.148438 C 331.589844 502.148438 331.394531 502.089844 331.226562 501.96875 C 299.324219 479.386719 272.417969 449.476562 253.414062 415.472656 C 253.152344 415.003906 253.320312 414.410156 253.789062 414.148438 C 254.257812 413.886719 254.847656 414.054688 255.109375 414.527344 C 273.972656 448.273438 300.683594 477.964844 332.347656 500.378906 C 332.789062 500.691406 332.890625 501.296875 332.582031 501.738281 C 332.390625 502.007812 332.089844 502.148438 331.785156 502.148438 " fill-opacity="1" fill-rule="nonzero" />
    <path fill="#39394b" d="M 299.582031 503.367188 C 299.363281 503.367188 299.144531 503.292969 298.964844 503.144531 C 286.695312 493.015625 275.285156 481.714844 265.050781 469.5625 C 264.707031 469.148438 264.757812 468.535156 265.171875 468.191406 C 265.582031 467.847656 266.195312 467.898438 266.539062 468.308594 C 276.699219 480.375 288.023438 491.589844 300.203125 501.644531 C 300.617188 501.984375 300.675781 502.601562 300.335938 503.015625 C 300.140625 503.246094 299.863281 503.367188 299.582031 503.367188 " fill-opacity="1" fill-rule="nonzero" />
    <path fill="#ffffff" d="M 333.585938 66.542969 L 293.023438 106.460938 L 333.585938 66.542969 " fill-opacity="1" fill-rule="nonzero" />
    <path fill="#39394b" d="M 293.023438 107.433594 C 292.773438 107.433594 292.519531 107.335938 292.332031 107.140625 C 291.953125 106.761719 291.960938 106.144531 292.34375 105.769531 L 332.902344 65.851562 C 333.285156 65.476562 333.902344 65.480469 334.277344 65.863281 C 334.652344 66.246094 334.648438 66.863281 334.265625 67.238281 L 293.707031 107.152344 C 293.519531 107.339844 293.269531 107.433594 293.023438 107.433594 " fill-opacity="1" fill-rule="nonzero" />
    <path fill="#ffffff" d="M 333.308594 44.621094 L 311.960938 65.628906 L 333.308594 44.621094 " fill-opacity="1" fill-rule="nonzero" />
    <path fill="#39394b" d="M 311.960938 66.601562 C 311.710938 66.601562 311.460938 66.507812 311.269531 66.3125 C 310.890625 65.929688 310.894531 65.3125 311.28125 64.9375 L 332.625 43.925781 C 333.007812 43.550781 333.625 43.554688 334 43.9375 C 334.378906 44.324219 334.375 44.9375 333.992188 45.3125 L 312.644531 66.324219 C 312.453125 66.511719 312.207031 66.601562 311.960938 66.601562 " fill-opacity="1" fill-rule="nonzero" />
    <path fill="#39394b" d="M 713.03125 473.601562 C 712.785156 473.601562 712.542969 473.515625 712.359375 473.332031 C 711.96875 472.960938 711.953125 472.34375 712.324219 471.957031 L 715.386719 468.757812 C 715.757812 468.371094 716.378906 468.359375 716.761719 468.726562 C 717.152344 469.101562 717.167969 469.714844 716.792969 470.101562 L 713.734375 473.304688 C 713.539062 473.503906 713.285156 473.601562 713.03125 473.601562 " fill-opacity="1" fill-rule="nonzero" />
    <path fill="#39394b" d="M 702.308594 484.796875 C 702.070312 484.796875 701.828125 484.710938 701.636719 484.527344 C 701.25 484.15625 701.238281 483.539062 701.609375 483.152344 L 704.671875 479.957031 C 705.042969 479.566406 705.660156 479.554688 706.046875 479.921875 C 706.4375 480.296875 706.445312 480.910156 706.074219 481.296875 L 703.011719 484.5 C 702.824219 484.699219 702.566406 484.796875 702.308594 484.796875 " fill-opacity="1" fill-rule="nonzero" />
    <path fill="#39394b" d="M 705.320312 473.773438 C 705.070312 473.773438 704.824219 473.679688 704.636719 473.492188 L 701.53125 470.429688 C 701.144531 470.054688 701.140625 469.4375 701.515625 469.054688 C 701.894531 468.671875 702.511719 468.667969 702.894531 469.046875 L 706 472.109375 C 706.386719 472.484375 706.390625 473.101562 706.015625 473.484375 C 705.820312 473.679688 705.570312 473.773438 705.320312 473.773438 " fill-opacity="1" fill-rule="nonzero" />
    <path fill="#39394b" d="M 716.195312 484.488281 C 715.949219 484.488281 715.703125 484.394531 715.511719 484.210938 L 712.40625 481.148438 C 712.023438 480.773438 712.015625 480.15625 712.394531 479.773438 C 712.773438 479.390625 713.390625 479.386719 713.769531 479.765625 L 716.875 482.824219 C 717.257812 483.203125 717.265625 483.816406 716.886719 484.199219 C 716.699219 484.390625 716.445312 484.488281 716.195312 484.488281 " fill-opacity="1" fill-rule="nonzero" />
    <path fill="#39394b" d="M 738.21875 440.691406 C 735.695312 441.828125 734.542969 444.851562 735.65625 447.4375 C 736.199219 448.699219 737.195312 449.664062 738.457031 450.152344 C 739.679688 450.625 741.019531 450.589844 742.21875 450.054688 C 744.742188 448.917969 745.894531 445.890625 744.777344 443.308594 C 744.234375 442.042969 743.242188 441.082031 741.984375 440.59375 C 740.757812 440.117188 739.421875 440.152344 738.21875 440.691406 Z M 740.222656 452.429688 C 739.386719 452.429688 738.550781 452.273438 737.75 451.964844 C 736 451.285156 734.621094 449.949219 733.875 448.207031 C 732.339844 444.652344 733.933594 440.484375 737.421875 438.917969 C 739.101562 438.160156 740.972656 438.113281 742.691406 438.777344 C 744.4375 439.457031 745.8125 440.792969 746.566406 442.535156 C 748.097656 446.09375 746.507812 450.257812 743.015625 451.828125 C 742.121094 452.226562 741.171875 452.429688 740.222656 452.429688 " fill-opacity="1" fill-rule="nonzero" />
    <path fill="#39394b" d="M 669.492188 37.5625 C 669.238281 37.5625 668.992188 37.46875 668.800781 37.277344 L 665.972656 34.449219 C 665.597656 34.070312 665.597656 33.453125 665.980469 33.074219 C 666.355469 32.695312 666.972656 32.695312 667.355469 33.074219 L 670.175781 35.902344 C 670.558594 36.28125 670.558594 36.898438 670.175781 37.277344 C 669.984375 37.46875 669.738281 37.5625 669.492188 37.5625 " fill-opacity="1" fill-rule="nonzero" />
    <path fill="#39394b" d="M 679.378906 47.457031 C 679.132812 47.457031 678.882812 47.363281 678.691406 47.171875 L 675.871094 44.347656 C 675.488281 43.960938 675.488281 43.347656 675.871094 42.96875 C 676.25 42.589844 676.867188 42.589844 677.242188 42.96875 L 680.070312 45.796875 C 680.453125 46.179688 680.449219 46.796875 680.070312 47.175781 C 679.878906 47.363281 679.632812 47.457031 679.378906 47.457031 " fill-opacity="1" fill-rule="nonzero" />
    <path fill="#39394b" d="M 666.664062 47.457031 C 666.417969 47.457031 666.167969 47.363281 665.980469 47.175781 C 665.597656 46.796875 665.597656 46.179688 665.976562 45.796875 L 668.800781 42.96875 C 669.183594 42.589844 669.800781 42.589844 670.179688 42.96875 C 670.558594 43.347656 670.558594 43.960938 670.179688 44.347656 L 667.359375 47.171875 C 667.164062 47.363281 666.914062 47.457031 666.664062 47.457031 " fill-opacity="1" fill-rule="nonzero" />
    <path fill="#39394b" d="M 676.554688 37.5625 C 676.304688 37.5625 676.058594 37.46875 675.867188 37.277344 C 675.488281 36.898438 675.488281 36.28125 675.867188 35.902344 L 678.691406 33.074219 C 679.070312 32.695312 679.6875 32.695312 680.070312 33.074219 C 680.449219 33.453125 680.449219 34.070312 680.070312 34.449219 L 677.242188 37.277344 C 677.050781 37.46875 676.804688 37.5625 676.554688 37.5625 " fill-opacity="1" fill-rule="nonzero" />
    <path fill="#39394b" d="M 743.792969 116.199219 L 743.796875 116.199219 Z M 745.5 116.804688 C 745.054688 116.804688 744.605469 116.898438 744.1875 117.085938 C 742.527344 117.832031 741.773438 119.824219 742.511719 121.53125 C 742.863281 122.359375 743.519531 122.992188 744.34375 123.3125 C 745.144531 123.625 746.023438 123.605469 746.816406 123.246094 C 748.472656 122.5 749.226562 120.507812 748.492188 118.808594 C 748.132812 117.976562 747.484375 117.34375 746.660156 117.023438 C 746.28125 116.875 745.890625 116.804688 745.5 116.804688 Z M 745.503906 125.476562 C 744.875 125.476562 744.242188 125.363281 743.636719 125.125 C 742.320312 124.613281 741.289062 123.609375 740.722656 122.300781 C 739.570312 119.625 740.765625 116.492188 743.390625 115.3125 C 744.660156 114.742188 746.066406 114.703125 747.359375 115.210938 C 748.675781 115.71875 749.714844 116.726562 750.277344 118.039062 C 751.433594 120.710938 750.234375 123.839844 747.609375 125.023438 C 746.933594 125.324219 746.21875 125.476562 745.503906 125.476562 " fill-opacity="1" fill-rule="nonzero" />
    <path fill="#ffffff" d="M 367.535156 508.886719 L 370.484375 529.570312 L 376.863281 529.570312 L 377.21875 509.226562 L 367.535156 508.886719 " fill-opacity="1" fill-rule="nonzero" />
    <path fill="#39394b" d="M 371.328125 528.597656 L 375.90625 528.597656 L 376.230469 510.164062 L 368.664062 509.898438 Z M 376.863281 530.542969 L 370.484375 530.542969 C 370 530.542969 369.589844 530.1875 369.519531 529.707031 L 366.574219 509.019531 C 366.53125 508.738281 366.621094 508.445312 366.8125 508.234375 C 367.003906 508.019531 367.285156 507.90625 367.570312 507.910156 L 377.253906 508.253906 C 377.785156 508.273438 378.199219 508.710938 378.191406 509.242188 L 377.835938 529.585938 C 377.828125 530.117188 377.394531 530.542969 376.863281 530.542969 " fill-opacity="1" fill-rule="nonzero" />
    <path fill="#ffffff" d="M 370.230469 549.34375 C 373.28125 549.675781 378.277344 549.886719 384.097656 548.882812 C 386.007812 548.554688 387.21875 546.652344 386.691406 544.789062 C 385.230469 539.597656 382.085938 529.765625 378.121094 525.292969 L 377.257812 527.816406 L 375.875 525.511719 C 375.6875 525.195312 375.355469 524.992188 374.988281 524.957031 L 372.117188 524.6875 C 371.515625 524.632812 370.972656 525.046875 370.867188 525.640625 L 370.484375 527.816406 L 369.390625 525.011719 L 367.34375 545.789062 C 367.171875 547.566406 368.453125 549.15625 370.230469 549.34375 " fill-opacity="1" fill-rule="nonzero" />
    <path fill="#39394b" d="M 370.332031 548.378906 C 373.414062 548.710938 378.273438 548.898438 383.933594 547.925781 C 384.585938 547.8125 385.136719 547.445312 385.488281 546.886719 C 385.839844 546.332031 385.933594 545.683594 385.753906 545.054688 C 384.410156 540.265625 381.769531 532.015625 378.464844 527.304688 L 378.179688 528.132812 C 378.058594 528.492188 377.738281 528.746094 377.359375 528.789062 C 376.988281 528.824219 376.621094 528.644531 376.425781 528.320312 L 375.039062 526.015625 C 375.011719 525.964844 374.957031 525.929688 374.898438 525.925781 L 372.023438 525.65625 C 371.933594 525.644531 371.84375 525.714844 371.824219 525.808594 L 371.441406 527.988281 C 371.367188 528.417969 371.011719 528.742188 370.578125 528.789062 C 370.378906 528.808594 370.179688 528.765625 370.007812 528.667969 L 368.316406 545.882812 C 368.191406 547.128906 369.097656 548.246094 370.332031 548.378906 Z M 375.441406 550.589844 C 373.359375 550.589844 371.558594 550.46875 370.125 550.316406 C 370.125 550.3125 370.125 550.3125 370.125 550.3125 C 367.832031 550.066406 366.152344 547.996094 366.378906 545.695312 L 368.421875 524.914062 C 368.46875 524.46875 368.8125 524.105469 369.257812 524.046875 C 369.683594 523.988281 370.097656 524.21875 370.277344 524.601562 C 370.707031 524.007812 371.429688 523.648438 372.207031 523.71875 L 375.082031 523.988281 C 375.753906 524.050781 376.359375 524.433594 376.707031 525.011719 L 377.015625 525.523438 L 377.203125 524.980469 C 377.3125 524.648438 377.59375 524.40625 377.933594 524.339844 C 378.273438 524.269531 378.621094 524.386719 378.851562 524.648438 C 382.910156 529.234375 386.09375 539.074219 387.628906 544.527344 C 387.953125 545.679688 387.773438 546.914062 387.132812 547.925781 C 386.492188 548.941406 385.449219 549.636719 384.261719 549.84375 C 381.011719 550.398438 378.011719 550.589844 375.441406 550.589844 " fill-opacity="1" fill-rule="nonzero" />
    <path fill="#39394b" d="M 377.480469 547.058594 C 373.058594 547.058594 369.660156 546.230469 369.449219 546.175781 C 368.925781 546.046875 368.609375 545.515625 368.742188 544.996094 C 368.871094 544.476562 369.398438 544.15625 369.921875 544.289062 C 369.996094 544.308594 377.417969 546.117188 384.359375 544.292969 C 384.878906 544.152344 385.410156 544.46875 385.546875 544.984375 C 385.683594 545.503906 385.371094 546.035156 384.855469 546.175781 C 382.320312 546.839844 379.761719 547.058594 377.480469 547.058594 " fill-opacity="1" fill-rule="nonzero" />
    <path fill="#39394b" d="M 380.050781 538.972656 L 373.210938 538.972656 C 372.671875 538.972656 372.238281 538.535156 372.238281 538 C 372.238281 537.460938 372.671875 537.027344 373.210938 537.027344 L 380.050781 537.027344 C 380.589844 537.027344 381.023438 537.460938 381.023438 538 C 381.023438 538.535156 380.589844 538.972656 380.050781 538.972656 " fill-opacity="1" fill-rule="nonzero" />
    <path fill="#ffffff" d="M 313.40625 510.730469 L 310.75 534.839844 L 300.605469 536.964844 L 301.222656 508.695312 L 313.40625 510.730469 " fill-opacity="1" fill-rule="nonzero" />
    <path fill="#39394b" d="M 302.171875 509.839844 L 301.605469 535.761719 L 309.863281 534.03125 L 312.335938 511.539062 Z M 300.605469 537.9375 C 300.382812 537.9375 300.160156 537.859375 299.984375 537.710938 C 299.757812 537.523438 299.625 537.238281 299.632812 536.941406 L 300.25 508.671875 C 300.257812 508.390625 300.386719 508.125 300.605469 507.945312 C 300.820312 507.765625 301.105469 507.6875 301.386719 507.734375 L 313.566406 509.773438 C 314.074219 509.859375 314.429688 510.324219 314.371094 510.839844 L 311.71875 534.945312 C 311.671875 535.363281 311.363281 535.703125 310.949219 535.792969 L 300.804688 537.917969 C 300.738281 537.929688 300.671875 537.9375 300.605469 537.9375 " fill-opacity="1" fill-rule="nonzero" />
    <path fill="#ffffff" d="M 315.035156 547.480469 C 315.035156 547.480469 316.332031 535.878906 312.695312 530.582031 L 304.582031 533.472656 L 304.582031 531.738281 C 304.582031 531.179688 304.183594 530.71875 303.671875 530.6875 L 299.148438 530.429688 C 297.457031 530.332031 295.773438 530.683594 294.234375 531.441406 C 288.8125 534.105469 276.332031 540.972656 276.726562 547.558594 C 276.726562 547.558594 286.550781 549.996094 315.035156 547.480469 " fill-opacity="1" fill-rule="nonzero" />
    <path fill="#39394b" d="M 315.035156 547.480469 L 315.039062 547.480469 Z M 277.722656 546.761719 C 280.480469 547.234375 291.046875 548.570312 314.136719 546.582031 C 314.332031 544.058594 314.714844 536.113281 312.285156 531.761719 L 304.90625 534.386719 C 304.609375 534.492188 304.277344 534.445312 304.019531 534.265625 C 303.761719 534.082031 303.609375 533.785156 303.609375 533.472656 L 303.609375 531.738281 C 303.609375 531.683594 303.585938 531.65625 303.578125 531.648438 L 299.089844 531.402344 C 297.585938 531.316406 296.054688 531.632812 294.660156 532.3125 C 284.421875 537.347656 278.199219 542.679688 277.722656 546.761719 Z M 292.015625 549.597656 C 281.097656 549.597656 276.761719 548.570312 276.492188 548.503906 C 276.082031 548.398438 275.78125 548.042969 275.757812 547.617188 C 275.34375 540.707031 286.886719 533.96875 293.804688 530.570312 C 295.496094 529.738281 297.359375 529.355469 299.203125 529.460938 L 303.730469 529.71875 C 304.753906 529.777344 305.554688 530.664062 305.554688 531.738281 L 305.554688 532.09375 L 312.371094 529.667969 C 312.789062 529.519531 313.25 529.667969 313.5 530.035156 C 317.296875 535.5625 316.054688 547.101562 316 547.589844 C 315.949219 548.050781 315.582031 548.410156 315.121094 548.449219 C 305.347656 549.3125 297.765625 549.597656 292.015625 549.597656 " fill-opacity="1" fill-rule="nonzero" />
    <path fill="#39394b" d="M 301.210938 546.023438 C 289.085938 546.023438 279.789062 544.179688 279.667969 544.152344 C 279.140625 544.046875 278.800781 543.535156 278.910156 543.007812 C 279.015625 542.480469 279.53125 542.136719 280.054688 542.246094 C 280.210938 542.277344 296.003906 545.410156 313.191406 543.414062 C 313.726562 543.359375 314.210938 543.734375 314.269531 544.269531 C 314.332031 544.804688 313.949219 545.289062 313.417969 545.347656 C 309.199219 545.835938 305.0625 546.023438 301.210938 546.023438 " fill-opacity="1" fill-rule="nonzero" />
    <path fill="#39394b" d="M 291.566406 539.902344 C 291.261719 539.902344 290.964844 539.761719 290.773438 539.496094 C 290.460938 539.058594 290.558594 538.453125 290.996094 538.136719 L 298.808594 532.523438 C 299.246094 532.207031 299.851562 532.308594 300.167969 532.742188 C 300.480469 533.175781 300.382812 533.785156 299.945312 534.101562 L 292.132812 539.714844 C 291.960938 539.839844 291.761719 539.902344 291.566406 539.902344 " fill-opacity="1" fill-rule="nonzero" />
    <path fill="#0d9e91" d="M 310.242188 354.296875 C 310.242188 354.296875 295.683594 446.777344 298.785156 513.339844 L 314.964844 513.757812 C 314.964844 513.757812 332.324219 419.890625 340.980469 403.101562 C 340.980469 403.101562 364.503906 488.679688 365.410156 513.039062 C 365.410156 513.039062 375.878906 514.089844 380.050781 512.589844 C 382.292969 489.082031 382.96875 469.082031 383.078125 453.808594 C 383.398438 410.085938 379.21875 390.222656 376.929688 380.804688 C 374.824219 372.152344 372.566406 365.125 370.917969 360.367188 L 365.410156 344.664062 L 310.242188 354.296875 " fill-opacity="1" fill-rule="nonzero" />
    <path fill="#39394b" d="M 299.714844 512.390625 L 314.160156 512.765625 C 315.996094 502.902344 331.820312 418.738281 340.117188 402.65625 C 340.300781 402.296875 340.679688 402.089844 341.082031 402.132812 C 341.480469 402.175781 341.8125 402.457031 341.917969 402.84375 C 342.871094 406.300781 364.96875 486.925781 366.34375 512.144531 C 368.734375 512.339844 375.644531 512.789062 379.144531 511.851562 C 380.96875 492.507812 381.964844 472.980469 382.105469 453.800781 C 382.410156 412.394531 378.757812 392.441406 375.984375 381.035156 C 374.316406 374.171875 372.300781 367.324219 370 360.6875 L 364.765625 345.769531 L 311.09375 355.136719 C 309.785156 363.699219 296.960938 449.765625 299.714844 512.390625 Z M 314.96875 514.730469 C 314.957031 514.730469 314.949219 514.730469 314.941406 514.730469 L 298.757812 514.308594 C 298.25 514.296875 297.835938 513.890625 297.8125 513.382812 C 294.742188 447.488281 309.132812 355.074219 309.28125 354.148438 C 309.34375 353.738281 309.664062 353.410156 310.074219 353.339844 L 365.242188 343.707031 C 365.714844 343.628906 366.171875 343.894531 366.328125 344.34375 L 371.835938 360.046875 C 374.160156 366.746094 376.191406 373.65625 377.875 380.574219 C 380.671875 392.082031 384.359375 412.191406 384.050781 453.816406 C 383.910156 473.265625 382.890625 493.070312 381.019531 512.679688 C 380.984375 513.058594 380.734375 513.378906 380.382812 513.503906 C 376.050781 515.0625 365.75 514.050781 365.3125 514.007812 C 364.832031 513.957031 364.457031 513.5625 364.4375 513.074219 C 363.636719 491.488281 344.683594 420.496094 340.75 405.964844 C 331.957031 427.535156 316.089844 513.035156 315.921875 513.933594 C 315.835938 514.394531 315.433594 514.730469 314.96875 514.730469 " fill-opacity="1" fill-rule="nonzero" />
    <path fill="#39394b" d="M 340.125 402.136719 C 339.691406 402.136719 339.296875 401.847656 339.183594 401.410156 L 336.839844 392.359375 L 331.25 391.203125 C 330.722656 391.09375 330.382812 390.578125 330.492188 390.054688 C 330.601562 389.527344 331.113281 389.1875 331.644531 389.300781 L 337.828125 390.574219 C 338.191406 390.652344 338.480469 390.925781 338.570312 391.28125 L 341.066406 400.921875 C 341.203125 401.441406 340.886719 401.96875 340.367188 402.105469 C 340.285156 402.128906 340.203125 402.136719 340.125 402.136719 " fill-opacity="1" fill-rule="nonzero" />
    <path fill="#39394b" d="M 311.664062 272.277344 C 321.132812 271.207031 341.167969 269.308594 355.261719 270.480469 C 359.59375 270.839844 363.703125 272.527344 367.023438 275.335938 C 377.035156 283.78125 398.722656 304.957031 399.003906 330.019531 L 376.789062 326.792969 C 376.789062 326.792969 384.632812 354.890625 384.097656 359.410156 C 383.5625 363.921875 369.8125 371.605469 352.613281 365.304688 C 335.414062 359 310.664062 359.769531 302.648438 365.304688 L 301.875 330.636719 L 268.078125 330.636719 C 268.078125 330.636719 279.253906 294.277344 300.9375 276.726562 C 304.007812 274.242188 307.738281 272.714844 311.664062 272.277344 " fill-opacity="1" fill-rule="nonzero" />
    <path fill="#ffffff" d="M 268.078125 330.636719 C 268.078125 330.636719 265.433594 342.726562 277.453125 346.355469 C 289.476562 349.984375 300.894531 328.109375 300.894531 328.109375 L 292.523438 323.261719 L 268.078125 330.636719 " fill-opacity="1" fill-rule="nonzero" />
    <path fill="#39394b" d="M 268.933594 331.394531 C 268.597656 333.714844 268.019531 342.492188 277.734375 345.425781 C 287.589844 348.398438 297.398438 332.328125 299.582031 328.476562 L 292.402344 324.3125 Z M 280.21875 347.738281 C 279.214844 347.738281 278.199219 347.59375 277.171875 347.289062 C 264.4375 343.441406 267.097656 330.558594 267.128906 330.429688 C 267.203125 330.085938 267.457031 329.808594 267.796875 329.707031 L 292.246094 322.332031 C 292.503906 322.25 292.78125 322.285156 293.011719 322.417969 L 301.382812 327.265625 C 301.832031 327.527344 301.996094 328.097656 301.757812 328.558594 C 301.316406 329.40625 291.601562 347.738281 280.21875 347.738281 " fill-opacity="1" fill-rule="nonzero" />
    <path fill="#146c6a" d="M 346.054688 358.1875 L 286.964844 358.1875 C 285.46875 358.1875 284.164062 357.164062 283.804688 355.710938 L 271.875 307.636719 C 271.367188 305.582031 272.921875 303.597656 275.035156 303.597656 L 334.125 303.597656 C 335.625 303.597656 336.925781 304.617188 337.289062 306.070312 L 349.214844 354.144531 C 349.726562 356.199219 348.171875 358.1875 346.054688 358.1875 " fill-opacity="1" fill-rule="nonzero" />
    <path fill="#39394b" d="M 275.039062 304.570312 C 274.328125 304.570312 273.671875 304.890625 273.238281 305.445312 C 272.800781 306.003906 272.648438 306.71875 272.820312 307.402344 L 284.746094 355.480469 C 285 356.5 285.914062 357.214844 286.964844 357.214844 L 346.054688 357.214844 C 346.761719 357.214844 347.417969 356.894531 347.855469 356.335938 C 348.289062 355.777344 348.441406 355.066406 348.273438 354.378906 L 336.34375 306.304688 C 336.089844 305.28125 335.179688 304.570312 334.125 304.570312 Z M 346.054688 359.160156 L 286.964844 359.160156 C 285.015625 359.160156 283.328125 357.835938 282.859375 355.945312 L 270.929688 307.871094 C 270.613281 306.601562 270.898438 305.277344 271.703125 304.246094 C 272.511719 303.214844 273.726562 302.625 275.039062 302.625 L 334.125 302.625 C 336.074219 302.625 337.761719 303.945312 338.230469 305.835938 L 350.160156 353.910156 C 350.476562 355.183594 350.195312 356.503906 349.386719 357.53125 C 348.578125 358.566406 347.363281 359.160156 346.054688 359.160156 " fill-opacity="1" fill-rule="nonzero" />
    <path fill="#ffffff" d="M 276.257812 327.496094 L 277.996094 332.308594 L 292.203125 325.542969 C 292.203125 325.542969 300.015625 332.308594 281.078125 340.96875 C 273.1875 344.582031 276.257812 327.496094 276.257812 327.496094 " fill-opacity="1" fill-rule="nonzero" />
    <path fill="#39394b" d="M 276.730469 331.664062 C 276.476562 335.226562 276.699219 339.066406 278.144531 340.1875 C 278.355469 340.351562 279 340.851562 280.671875 340.085938 C 290.085938 335.78125 292.453125 332.136719 292.785156 329.835938 C 292.992188 328.382812 292.398438 327.300781 291.96875 326.730469 L 278.414062 333.183594 C 278.164062 333.300781 277.878906 333.308594 277.625 333.207031 C 277.371094 333.101562 277.171875 332.894531 277.078125 332.636719 Z M 279.105469 342.4375 C 278.136719 342.4375 277.433594 342.097656 276.949219 341.726562 C 273.335938 338.921875 275.089844 328.5 275.300781 327.324219 C 275.378906 326.890625 275.738281 326.566406 276.179688 326.527344 C 276.617188 326.492188 277.027344 326.753906 277.175781 327.167969 L 278.546875 330.964844 L 291.785156 324.664062 C 292.132812 324.5 292.546875 324.554688 292.839844 324.808594 C 292.933594 324.890625 295.175781 326.871094 294.710938 330.113281 C 294.128906 334.152344 289.679688 338.105469 281.484375 341.851562 C 280.558594 342.277344 279.769531 342.4375 279.105469 342.4375 " fill-opacity="1" fill-rule="nonzero" />
    <path fill="#ffffff" d="M 359.832031 303.019531 C 359.832031 303.019531 386.394531 317.925781 391.871094 322.605469 C 397.351562 327.285156 403.292969 330.835938 395.570312 341.070312 C 387.847656 351.300781 354.917969 310.316406 354.917969 310.316406 C 354.917969 310.316406 348.589844 311.363281 346.382812 302.75 C 346.382812 302.75 335.703125 303.132812 335.316406 299.78125 L 350.378906 297.089844 C 352.328125 296.738281 354.320312 297.378906 355.703125 298.792969 L 359.832031 303.019531 " fill-opacity="1" fill-rule="nonzero" />
    <path fill="#39394b" d="M 354.910156 309.34375 C 355.207031 309.34375 355.488281 309.472656 355.675781 309.707031 C 362.851562 318.632812 383.339844 341.734375 392.144531 341.734375 C 392.167969 341.734375 392.191406 341.734375 392.21875 341.734375 C 393.328125 341.71875 394.167969 341.308594 394.792969 340.484375 C 401.359375 331.78125 397.652344 328.695312 392.523438 324.417969 C 392.097656 324.066406 391.667969 323.707031 391.238281 323.34375 C 385.894531 318.777344 359.621094 304.019531 359.355469 303.867188 C 359.273438 303.824219 359.199219 303.765625 359.136719 303.699219 L 355.007812 299.472656 C 353.847656 298.289062 352.183594 297.753906 350.550781 298.046875 L 336.96875 300.472656 C 338.570312 301.414062 342.664062 301.910156 346.347656 301.777344 C 346.796875 301.765625 347.214844 302.066406 347.328125 302.507812 C 349.273438 310.101562 354.539062 309.386719 354.765625 309.355469 C 354.8125 309.347656 354.863281 309.34375 354.910156 309.34375 Z M 392.152344 343.683594 C 381.160156 343.683594 357.632812 315.203125 354.476562 311.316406 C 352.753906 311.371094 347.777344 310.792969 345.648438 303.742188 C 342.328125 303.796875 334.769531 303.515625 334.347656 299.894531 C 334.292969 299.382812 334.640625 298.917969 335.144531 298.824219 L 350.207031 296.128906 C 352.472656 295.722656 354.789062 296.464844 356.398438 298.113281 L 360.429688 302.238281 C 362.628906 303.476562 387.148438 317.289062 392.503906 321.867188 C 392.925781 322.222656 393.347656 322.578125 393.765625 322.925781 C 398.8125 327.128906 404.03125 331.472656 396.347656 341.652344 C 395.351562 342.972656 393.972656 343.65625 392.246094 343.683594 C 392.21875 343.683594 392.183594 343.683594 392.152344 343.683594 " fill-opacity="1" fill-rule="nonzero" />
    <path fill="#39394b" d="M 322.351562 254.941406 C 321.871094 255.773438 322.863281 257.390625 322.875 257.386719 C 322.890625 257.378906 322.398438 252.65625 319.765625 251.464844 C 318.238281 250.773438 317.449219 251.925781 315.175781 251.613281 C 312.761719 251.28125 310.101562 249.492188 309.105469 246.878906 C 307.902344 243.71875 309.636719 240.710938 310.730469 238.8125 C 311.820312 236.921875 313.203125 234.820312 315.605469 233.914062 C 318.742188 232.730469 320.050781 234.542969 323.636719 233.429688 C 326.554688 232.523438 326.339844 231.117188 328.9375 230.382812 C 331.101562 229.765625 337.339844 230.117188 338.734375 233.429688 C 339.621094 235.53125 337.710938 236.8125 338.660156 239.929688 C 339.234375 241.800781 340.132812 242.027344 340.789062 243.476562 C 342.414062 247.058594 340.375 253.351562 336.496094 255.460938 C 331.226562 258.324219 323.492188 252.972656 322.351562 254.941406 " fill-opacity="1" fill-rule="nonzero" />
    <path fill="#ffffff" d="M 324.609375 257.476562 L 323.382812 267.53125 C 323.148438 269.445312 321.769531 271.023438 319.902344 271.507812 L 314.730469 272.855469 L 330.675781 284.992188 L 348.589844 271.40625 L 342.167969 269.972656 C 340.320312 269.558594 338.898438 268.082031 338.566406 266.21875 L 335.894531 251.410156 L 324.609375 257.476562 " fill-opacity="1" fill-rule="nonzero" />
    <path fill="#39394b" d="M 316.910156 273.292969 L 330.675781 283.769531 L 346.332031 271.898438 L 341.953125 270.921875 C 339.71875 270.421875 338.015625 268.644531 337.609375 266.390625 L 335.175781 252.902344 L 325.511719 258.09375 L 324.347656 267.648438 C 324.066406 269.972656 322.417969 271.859375 320.148438 272.449219 Z M 330.675781 285.964844 C 330.46875 285.964844 330.261719 285.898438 330.085938 285.765625 L 314.140625 273.628906 C 313.84375 273.402344 313.703125 273.03125 313.777344 272.667969 C 313.851562 272.300781 314.125 272.007812 314.484375 271.914062 L 319.65625 270.566406 C 321.148438 270.179688 322.230469 268.941406 322.417969 267.414062 L 323.644531 257.359375 C 323.679688 257.046875 323.871094 256.773438 324.148438 256.621094 L 335.433594 250.554688 C 335.707031 250.40625 336.035156 250.398438 336.316406 250.53125 C 336.597656 250.667969 336.796875 250.929688 336.851562 251.238281 L 339.523438 266.046875 C 339.789062 267.527344 340.910156 268.695312 342.378906 269.023438 L 348.804688 270.457031 C 349.171875 270.542969 349.460938 270.828125 349.542969 271.199219 C 349.621094 271.570312 349.480469 271.953125 349.179688 272.183594 L 331.261719 285.765625 C 331.089844 285.898438 330.882812 285.964844 330.675781 285.964844 " fill-opacity="1" fill-rule="nonzero" />
    <path fill="#ffffff" d="M 334.609375 253.449219 C 334.609375 253.449219 338.578125 251.957031 337.089844 248.675781 C 335.597656 245.394531 333.171875 247.820312 333.171875 247.820312 C 333.171875 247.820312 330.917969 239.738281 326.175781 242.925781 C 321.4375 246.113281 316.945312 247.273438 316.945312 247.273438 C 316.945312 247.273438 318.617188 255.398438 321.613281 260.808594 C 323.421875 264.074219 325.714844 266.34375 328.414062 265.25 C 335.804688 262.25 334.609375 253.449219 334.609375 253.449219 " fill-opacity="1" fill-rule="nonzero" />
    <path fill="#39394b" d="M 318.09375 247.941406 C 318.609375 250.160156 320.140625 256.144531 322.464844 260.339844 C 324.347656 263.738281 326.226562 265.089844 328.046875 264.347656 C 334.660156 261.660156 333.65625 253.664062 333.648438 253.582031 C 333.585938 253.132812 333.839844 252.703125 334.261719 252.542969 C 334.703125 252.375 335.925781 251.726562 336.320312 250.761719 C 336.527344 250.257812 336.488281 249.707031 336.203125 249.078125 C 335.988281 248.605469 335.636719 248.023438 335.175781 247.941406 C 334.652344 247.84375 333.992188 248.371094 333.859375 248.507812 C 333.613281 248.75 333.257812 248.847656 332.925781 248.757812 C 332.589844 248.671875 332.328125 248.410156 332.234375 248.082031 C 331.917969 246.960938 330.71875 243.914062 328.972656 243.273438 C 328.289062 243.023438 327.550781 243.171875 326.71875 243.734375 C 323.113281 246.15625 319.675781 247.433594 318.09375 247.941406 Z M 327.050781 266.5 C 325.242188 266.5 323.011719 265.34375 320.761719 261.28125 C 317.726562 255.804688 316.0625 247.804688 315.992188 247.464844 C 315.890625 246.957031 316.203125 246.457031 316.703125 246.328125 C 316.746094 246.316406 321.101562 245.164062 325.632812 242.121094 C 327.339844 240.972656 328.757812 241.121094 329.648438 241.449219 C 331.773438 242.230469 333.066406 244.746094 333.679688 246.308594 C 334.191406 246.066406 334.832031 245.898438 335.527344 246.027344 C 336.558594 246.214844 337.382812 246.972656 337.976562 248.273438 C 338.480469 249.390625 338.53125 250.511719 338.113281 251.511719 C 337.570312 252.828125 336.390625 253.640625 335.628906 254.046875 C 335.730469 256.34375 335.472656 263.429688 328.777344 266.152344 C 328.265625 266.359375 327.683594 266.5 327.050781 266.5 " fill-opacity="1" fill-rule="nonzero" />
    <path fill="#ffffff" d="M 433.867188 487.675781 C 433.515625 488.222656 420.089844 507.414062 420.089844 507.414062 C 420.089844 507.414062 420.429688 512.300781 423.90625 513.253906 L 439.871094 495.984375 L 433.867188 487.675781 " fill-opacity="1" fill-rule="nonzero" />
    <path fill="#39394b" d="M 421.097656 507.667969 C 421.226562 508.585938 421.757812 511.207031 423.632812 512.117188 L 438.617188 495.910156 L 433.882812 489.363281 C 431.234375 493.175781 422.882812 505.113281 421.097656 507.667969 Z M 423.90625 514.226562 C 423.820312 514.226562 423.734375 514.214844 423.648438 514.191406 C 419.550781 513.070312 419.132812 507.707031 419.117188 507.480469 C 419.101562 507.257812 419.164062 507.039062 419.292969 506.855469 C 423.007812 501.542969 432.726562 487.644531 433.046875 487.152344 C 433.222656 486.878906 433.519531 486.714844 433.839844 486.707031 C 434.160156 486.707031 434.464844 486.847656 434.652344 487.109375 L 440.660156 495.414062 C 440.933594 495.789062 440.898438 496.304688 440.585938 496.644531 L 424.621094 513.914062 C 424.433594 514.117188 424.175781 514.226562 423.90625 514.226562 " fill-opacity="1" fill-rule="nonzero" />
    <path fill="#ffffff" d="M 412.773438 510.785156 C 412.773438 510.785156 413.917969 525.933594 420.613281 533.910156 C 427.304688 541.882812 438.046875 539.332031 438.046875 539.332031 C 438.046875 539.332031 438.859375 532.589844 437.464844 530.835938 C 436.074219 529.082031 428.371094 519.710938 428.390625 511.285156 L 424.300781 505.714844 L 421.886719 508.839844 L 420.851562 503.734375 L 412.773438 510.785156 " fill-opacity="1" fill-rule="nonzero" />
    <path fill="#39394b" d="M 413.789062 511.191406 C 414.050781 513.800781 415.597656 526.425781 421.355469 533.28125 C 426.664062 539.609375 434.789062 538.882812 437.15625 538.511719 C 437.394531 535.941406 437.414062 532.332031 436.703125 531.441406 L 436.558594 531.257812 C 429.195312 522.035156 427.5 515.527344 427.421875 511.605469 L 424.28125 507.332031 L 422.652344 509.433594 C 422.421875 509.734375 422.03125 509.871094 421.664062 509.789062 C 421.292969 509.703125 421.007812 509.40625 420.929688 509.03125 L 420.230469 505.566406 Z M 433.96875 540.710938 C 430.035156 540.710938 424.195312 539.691406 419.863281 534.53125 C 413.050781 526.414062 411.851562 511.488281 411.804688 510.859375 C 411.78125 510.554688 411.902344 510.253906 412.132812 510.050781 L 420.210938 503.003906 C 420.472656 502.773438 420.835938 502.703125 421.164062 502.8125 C 421.492188 502.925781 421.738281 503.203125 421.804688 503.542969 L 422.417969 506.5625 L 423.53125 505.121094 C 423.714844 504.878906 424.015625 504.746094 424.3125 504.742188 C 424.617188 504.746094 424.902344 504.890625 425.085938 505.140625 L 429.175781 510.710938 C 429.296875 510.875 429.363281 511.078125 429.363281 511.285156 C 429.355469 514.855469 430.859375 521.003906 438.078125 530.042969 L 438.226562 530.230469 C 439.796875 532.203125 439.15625 538.253906 439.011719 539.453125 C 438.960938 539.855469 438.667969 540.1875 438.269531 540.28125 C 438.09375 540.320312 436.390625 540.710938 433.96875 540.710938 " fill-opacity="1" fill-rule="nonzero" />
    <path fill="#ffffff" d="M 415.476562 511.367188 C 415.476562 511.367188 417.210938 536.535156 435.898438 535.996094 L 415.476562 511.367188 " fill-opacity="1" fill-rule="nonzero" />
    <path fill="#39394b" d="M 435.304688 536.976562 C 416.484375 536.976562 414.523438 511.691406 414.503906 511.433594 C 414.464844 510.898438 414.871094 510.433594 415.40625 510.398438 C 415.949219 510.359375 416.40625 510.765625 416.445312 511.300781 C 416.511719 512.28125 418.300781 535.03125 435.304688 535.03125 C 435.492188 535.03125 435.679688 535.027344 435.871094 535.023438 C 436.402344 535.003906 436.855469 535.429688 436.871094 535.964844 C 436.886719 536.503906 436.464844 536.949219 435.925781 536.96875 C 435.71875 536.972656 435.507812 536.976562 435.304688 536.976562 " fill-opacity="1" fill-rule="nonzero" />
    <path fill="#39394b" d="M 463.921875 353.734375 C 463.921875 353.734375 479.71875 400.199219 479.796875 430.796875 C 479.875 461.394531 436.570312 501.96875 436.570312 501.96875 L 427.625 494.214844 C 427.625 494.214844 443.558594 477.335938 446.605469 454.492188 C 449.65625 431.644531 440.394531 388.515625 440.394531 388.515625 L 436.941406 358.054688 L 463.921875 353.734375 " fill-opacity="1" fill-rule="nonzero" />
    <path fill="#ffffff" d="M 440.636719 504.140625 C 440.554688 504.964844 441.40625 516.464844 444.972656 523.6875 C 444.972656 523.6875 443.324219 528.984375 438.28125 528.03125 C 438.28125 528.03125 430.53125 513.285156 428.90625 503.734375 L 440.636719 504.140625 " fill-opacity="1" fill-rule="nonzero" />
    <path fill="#39394b" d="M 438.917969 527.144531 C 442.109375 527.480469 443.515625 524.730469 443.917969 523.738281 C 440.949219 517.453125 439.871094 508.246094 439.6875 505.082031 L 430.089844 504.746094 C 431.863281 513.09375 437.695312 524.753906 438.917969 527.144531 Z M 439.453125 529.121094 C 439.023438 529.121094 438.574219 529.078125 438.101562 528.988281 C 437.808594 528.933594 437.558594 528.746094 437.421875 528.484375 C 437.101562 527.875 429.578125 513.488281 427.945312 503.898438 C 427.898438 503.609375 427.980469 503.3125 428.171875 503.09375 C 428.367188 502.871094 428.644531 502.75 428.941406 502.761719 L 440.667969 503.171875 C 440.933594 503.179688 441.1875 503.296875 441.363281 503.5 C 441.539062 503.703125 441.625 503.964844 441.601562 504.230469 C 441.5625 504.972656 442.332031 516.140625 445.847656 523.253906 C 445.957031 523.476562 445.976562 523.734375 445.902344 523.972656 C 445.308594 525.878906 443.25 529.121094 439.453125 529.121094 " fill-opacity="1" fill-rule="nonzero" />
    <path fill="#ffffff" d="M 435.46875 522.515625 C 435.46875 522.515625 434.183594 537.601562 436.082031 541.871094 C 436.082031 541.871094 450.441406 549.257812 467.113281 549.238281 C 468.296875 549.234375 469.265625 548.277344 469.257812 547.09375 C 469.230469 544.242188 468.480469 539.03125 463.921875 534.90625 C 457.289062 528.910156 443.058594 519.0625 443.058594 519.0625 L 440.1875 522.539062 L 441.390625 528.03125 L 435.46875 522.515625 " fill-opacity="1" fill-rule="nonzero" />
    <path fill="#39394b" d="M 436.84375 541.164062 C 439.042969 542.226562 452.195312 548.265625 467.046875 548.265625 C 467.382812 548.265625 467.710938 548.15625 467.949219 547.914062 C 468.167969 547.695312 468.285156 547.40625 468.285156 547.101562 C 468.257812 544.492188 467.578125 539.527344 463.269531 535.628906 C 457.613281 530.515625 446.230469 522.464844 443.238281 520.371094 L 441.238281 522.789062 L 442.339844 527.824219 C 442.433594 528.242188 442.242188 528.667969 441.871094 528.875 C 441.503906 529.085938 441.039062 529.035156 440.726562 528.742188 L 436.289062 524.609375 C 435.976562 529.46875 435.714844 538.003906 436.84375 541.164062 Z M 467.042969 550.210938 C 450.359375 550.210938 436.230469 543.042969 435.636719 542.738281 C 435.4375 542.636719 435.28125 542.46875 435.191406 542.265625 C 433.214844 537.816406 434.449219 523.058594 434.5 522.433594 C 434.53125 522.0625 434.773438 521.742188 435.121094 521.609375 C 435.46875 521.472656 435.859375 521.550781 436.132812 521.804688 L 439.773438 525.195312 L 439.234375 522.742188 C 439.171875 522.453125 439.246094 522.148438 439.4375 521.917969 L 442.308594 518.441406 C 442.628906 518.054688 443.195312 517.972656 443.609375 518.261719 C 443.753906 518.363281 457.972656 528.214844 464.574219 534.183594 C 469.4375 538.585938 470.203125 544.15625 470.230469 547.085938 C 470.234375 547.910156 469.917969 548.691406 469.332031 549.285156 C 468.742188 549.878906 467.953125 550.207031 467.113281 550.210938 C 467.089844 550.210938 467.066406 550.210938 467.042969 550.210938 " fill-opacity="1" fill-rule="nonzero" />
    <path fill="#ffffff" d="M 437.195312 537.410156 C 437.195312 537.410156 450.851562 546.035156 467.191406 545.046875 L 437.195312 537.410156 " fill-opacity="1" fill-rule="nonzero" />
    <path fill="#39394b" d="M 464.53125 546.097656 C 449.320312 546.097656 437.214844 538.574219 436.675781 538.234375 C 436.222656 537.945312 436.085938 537.347656 436.375 536.890625 C 436.660156 536.441406 437.257812 536.304688 437.714844 536.589844 C 437.851562 536.675781 451.308594 545.027344 467.132812 544.078125 C 467.667969 544.039062 468.132812 544.453125 468.164062 544.988281 C 468.199219 545.523438 467.789062 545.988281 467.25 546.019531 C 466.335938 546.074219 465.429688 546.097656 464.53125 546.097656 " fill-opacity="1" fill-rule="nonzero" />
    <path fill="#39394b" d="M 415.445312 353.734375 C 415.445312 353.734375 405.441406 420.792969 428.90625 509.441406 L 443.058594 507.414062 C 443.058594 507.414062 435.421875 429.917969 453.710938 388.949219 L 457.78125 351.917969 L 415.445312 353.734375 " fill-opacity="1" fill-rule="nonzero" />
    <path fill="#39394b" d="M 419.988281 250.839844 C 418.09375 254.644531 420.785156 255.988281 419.472656 263.375 C 418.503906 268.800781 416.554688 270.878906 417.851562 273.578125 C 419.015625 276.011719 421.828125 276.890625 423.683594 277.46875 C 432.109375 280.089844 440.230469 275.820312 445.214844 273.199219 C 449.25 271.078125 454.777344 268.171875 454.40625 265.222656 C 454.039062 262.3125 448.335938 262.714844 445.65625 257.835938 C 443.5 253.910156 445.976562 251.445312 443.707031 248.125 C 440.769531 243.828125 433.921875 244.007812 432.820312 244.035156 C 428.414062 244.152344 422.320312 246.15625 419.988281 250.839844 " fill-opacity="1" fill-rule="nonzero" />
    <path fill="#ffffff" d="M 467.074219 273.332031 L 444.914062 278.878906 C 444.511719 278.964844 444.101562 278.738281 443.964844 278.347656 C 442.457031 274.105469 444.804688 269.355469 445.484375 268.121094 C 445.59375 267.929688 445.773438 267.792969 445.988281 267.734375 C 447.085938 267.4375 448.078125 267.046875 448.96875 266.574219 C 450.070312 265.992188 450.519531 264.648438 450.015625 263.507812 C 449.210938 261.671875 448.324219 259.203125 447.828125 258.1875 C 447.707031 257.945312 447.710938 257.648438 447.863281 257.421875 C 448.242188 256.859375 448.828125 256.433594 448.757812 255.597656 C 448.730469 255.277344 448.511719 254.996094 448.207031 254.90625 C 445.425781 254.082031 443.269531 249.90625 441.410156 248.636719 C 440.527344 248.03125 439.921875 247.871094 438.933594 247.328125 C 438.765625 247.238281 438.566406 247.199219 438.378906 247.238281 C 433.652344 248.261719 440.898438 254.128906 434.703125 257.574219 C 434.390625 257.742188 434.207031 258.09375 434.277344 258.441406 C 434.382812 258.953125 434.363281 259.640625 434.300781 260.273438 C 434.296875 260.28125 434.296875 260.285156 434.296875 260.292969 C 434.234375 260.933594 433.480469 261.242188 432.980469 260.839844 C 432.042969 260.074219 431.085938 259.855469 430.519531 260.1875 C 429.71875 260.652344 429.769531 262.203125 430.054688 263.132812 C 430.617188 264.980469 432.550781 265.835938 433.648438 266.179688 C 434.070312 266.308594 434.304688 266.75 434.183594 267.171875 C 433.453125 269.71875 431.234375 277.671875 431.066406 281.289062 C 431.046875 281.660156 430.789062 281.96875 430.425781 282.046875 L 426.195312 282.976562 C 419.832031 284.371094 412.273438 288.21875 407.402344 292.546875 L 401.113281 297.820312 C 400.625 298.253906 398.421875 299.558594 398.878906 300.023438 C 412.050781 313.410156 437.90625 305.035156 447.480469 300.792969 C 456.761719 296.675781 466.011719 277.46875 469.433594 281.300781 C 471.679688 283.824219 467.699219 273.195312 467.074219 273.332031 " fill-opacity="1" fill-rule="nonzero" />
    <path fill="#39394b" d="M 438.585938 248.1875 Z M 400.0625 299.820312 C 414.632812 313.695312 443.773438 301.371094 447.085938 299.902344 C 451.410156 297.984375 455.976562 292.320312 459.644531 287.773438 C 463.703125 282.738281 466.109375 279.882812 468.3125 279.828125 C 468.492188 279.824219 468.667969 279.839844 468.839844 279.875 C 468.328125 278.121094 467.289062 275.445312 466.726562 274.421875 L 445.148438 279.820312 C 444.242188 280.023438 443.347656 279.523438 443.050781 278.675781 C 441.417969 274.085938 443.847656 269.082031 444.628906 267.65625 C 444.863281 267.234375 445.265625 266.921875 445.734375 266.792969 C 446.734375 266.523438 447.671875 266.164062 448.515625 265.71875 C 449.15625 265.375 449.425781 264.578125 449.128906 263.902344 C 448.730469 263.003906 448.316406 261.949219 447.949219 261.019531 C 447.5625 260.035156 447.195312 259.109375 446.957031 258.621094 C 446.675781 258.054688 446.714844 257.386719 447.054688 256.878906 C 447.164062 256.714844 447.285156 256.566406 447.410156 256.414062 C 447.667969 256.09375 447.769531 255.953125 447.789062 255.792969 C 445.855469 255.15625 444.308594 253.289062 442.941406 251.640625 C 442.179688 250.71875 441.460938 249.847656 440.863281 249.441406 C 440.386719 249.113281 440.011719 248.9375 439.535156 248.714844 C 439.222656 248.570312 438.894531 248.414062 438.507812 248.207031 C 438.214844 248.277344 437.871094 248.402344 437.738281 248.601562 C 437.507812 248.96875 437.71875 249.882812 437.921875 250.769531 C 438.417969 252.917969 439.167969 256.152344 435.257812 258.375 C 435.34375 258.898438 435.347656 259.554688 435.265625 260.367188 C 435.199219 261.042969 434.785156 261.601562 434.175781 261.855469 C 433.570312 262.105469 432.878906 262.007812 432.367188 261.59375 C 431.648438 261.007812 431.113281 260.96875 431.011719 261.023438 C 430.851562 261.148438 430.726562 262.003906 430.984375 262.847656 C 431.417969 264.269531 433.023438 264.964844 433.941406 265.253906 C 434.871094 265.542969 435.390625 266.507812 435.121094 267.445312 C 434.4375 269.8125 432.203125 277.808594 432.035156 281.332031 C 432 282.140625 431.421875 282.828125 430.632812 283 L 426.40625 283.925781 C 420.183594 285.285156 412.808594 289.046875 408.046875 293.277344 L 401.738281 298.5625 C 401.601562 298.6875 401.363281 298.855469 401.0625 299.070312 C 400.824219 299.238281 400.378906 299.558594 400.0625 299.820312 Z M 419.144531 308.261719 C 411.472656 308.261719 403.789062 306.402344 398.1875 300.707031 C 397.9375 300.453125 397.816406 300.117188 397.847656 299.765625 C 397.917969 298.972656 398.683594 298.375 399.933594 297.488281 C 400.164062 297.324219 400.363281 297.1875 400.46875 297.089844 L 406.777344 291.804688 C 411.742188 287.390625 419.472656 283.453125 425.988281 282.027344 L 430.097656 281.125 C 430.304688 277.507812 432.300781 270.214844 433.207031 267.058594 C 431.902344 266.625 429.792969 265.605469 429.121094 263.417969 C 428.753906 262.210938 428.691406 260.128906 430.027344 259.347656 C 430.921875 258.824219 432.175781 259.039062 433.355469 259.898438 C 433.40625 259.222656 433.371094 258.84375 433.324219 258.636719 C 433.171875 257.890625 433.542969 257.101562 434.230469 256.722656 C 436.953125 255.210938 436.523438 253.355469 436.027344 251.207031 C 435.71875 249.871094 435.429688 248.613281 436.097656 247.5625 C 436.503906 246.917969 437.183594 246.5 438.171875 246.289062 C 438.574219 246.199219 439.011719 246.261719 439.398438 246.476562 C 439.761719 246.671875 440.070312 246.820312 440.363281 246.953125 C 440.871094 247.191406 441.351562 247.417969 441.960938 247.832031 C 442.785156 248.398438 443.589844 249.371094 444.441406 250.402344 C 445.664062 251.875 447.050781 253.546875 448.480469 253.972656 C 449.167969 254.175781 449.667969 254.792969 449.726562 255.515625 C 449.816406 256.539062 449.277344 257.203125 448.917969 257.640625 C 448.859375 257.710938 448.800781 257.78125 448.746094 257.855469 C 449.015625 258.425781 449.363281 259.300781 449.761719 260.304688 C 450.117188 261.21875 450.527344 262.253906 450.90625 263.117188 C 451.613281 264.722656 450.960938 266.621094 449.425781 267.433594 C 448.46875 267.941406 447.421875 268.351562 446.300781 268.65625 C 445.753906 269.671875 443.570312 274.082031 444.835938 277.894531 L 466.835938 272.386719 C 466.847656 272.382812 466.855469 272.382812 466.863281 272.382812 C 467.753906 272.1875 468.273438 272.855469 469.398438 275.625 C 471.859375 281.667969 471.027344 282.1875 470.527344 282.5 C 470.136719 282.742188 469.503906 282.84375 468.707031 281.949219 C 468.558594 281.78125 468.453125 281.769531 468.359375 281.773438 C 466.949219 281.808594 463.875 285.625 461.15625 288.992188 C 457.160156 293.953125 452.628906 299.574219 447.875 301.679688 C 445.671875 302.65625 432.4375 308.261719 419.144531 308.261719 " fill-opacity="1" fill-rule="nonzero" />
    <path fill="#ffffff" d="M 439.058594 267.96875 C 439.058594 267.96875 442.015625 269.167969 445.410156 267.890625 L 439.058594 267.96875 " fill-opacity="1" fill-rule="nonzero" />
    <path fill="#39394b" d="M 442.132812 269.449219 C 440.164062 269.449219 438.78125 268.90625 438.695312 268.871094 C 438.195312 268.667969 437.957031 268.101562 438.160156 267.601562 C 438.359375 267.105469 438.925781 266.867188 439.421875 267.066406 C 439.453125 267.078125 442.097656 268.097656 445.066406 266.980469 C 445.566406 266.792969 446.128906 267.046875 446.316406 267.546875 C 446.507812 268.050781 446.253906 268.609375 445.75 268.800781 C 444.449219 269.289062 443.203125 269.449219 442.132812 269.449219 " fill-opacity="1" fill-rule="nonzero" />
    <path fill="#39394b" d="M 423.253906 248.875 C 423.253906 248.875 421.828125 240.238281 414.976562 242.578125 C 408.125 244.914062 414.769531 252.015625 419.949219 252.5625 C 425.125 253.109375 423.253906 248.875 423.253906 248.875 " fill-opacity="1" fill-rule="nonzero" />
    <path fill="#ffffff" d="M 554.144531 216.214844 L 562.605469 208.023438 C 563.195312 207.457031 564.105469 207.386719 564.769531 207.863281 C 565.523438 208.40625 565.699219 209.453125 565.164062 210.210938 L 562.480469 214.011719 L 564.640625 219.347656 C 565.304688 220.992188 564.875 222.875 563.558594 224.066406 L 560.082031 227.214844 C 558.34375 228.792969 555.8125 229.140625 553.710938 228.09375 L 552.296875 227.390625 C 550.117188 226.308594 548.871094 223.960938 549.1875 221.546875 L 549.558594 218.707031 C 549.792969 216.921875 551.480469 215.707031 553.246094 216.042969 L 554.144531 216.214844 " fill-opacity="1" fill-rule="nonzero" />
    <path fill="#39394b" d="M 552.648438 216.957031 C 552.203125 216.957031 551.769531 217.097656 551.398438 217.371094 C 550.914062 217.71875 550.601562 218.238281 550.523438 218.832031 L 550.152344 221.671875 C 549.890625 223.675781 550.925781 225.621094 552.730469 226.519531 L 554.144531 227.226562 C 555.902344 228.097656 557.976562 227.8125 559.429688 226.496094 L 562.90625 223.347656 C 563.914062 222.433594 564.246094 220.972656 563.738281 219.714844 L 561.578125 214.375 C 561.453125 214.070312 561.496094 213.71875 561.6875 213.449219 L 564.367188 209.648438 C 564.59375 209.328125 564.519531 208.882812 564.199219 208.652344 C 563.917969 208.449219 563.53125 208.480469 563.285156 208.722656 L 554.820312 216.914062 C 554.589844 217.132812 554.273438 217.226562 553.960938 217.167969 L 553.0625 217 C 552.925781 216.972656 552.789062 216.957031 552.648438 216.957031 Z M 556.265625 229.671875 C 555.253906 229.671875 554.230469 229.441406 553.277344 228.964844 L 551.867188 228.261719 C 549.316406 226.992188 547.851562 224.246094 548.222656 221.421875 L 548.59375 218.582031 C 548.738281 217.464844 549.347656 216.449219 550.257812 215.789062 C 551.167969 215.132812 552.324219 214.878906 553.429688 215.089844 L 553.828125 215.164062 L 561.929688 207.320312 C 562.855469 206.425781 564.289062 206.324219 565.335938 207.074219 C 566.519531 207.925781 566.796875 209.582031 565.957031 210.773438 L 563.578125 214.136719 L 565.539062 218.984375 C 566.355469 221 565.820312 223.328125 564.210938 224.785156 L 560.738281 227.9375 C 559.472656 229.078125 557.878906 229.671875 556.265625 229.671875 " fill-opacity="1" fill-rule="nonzero" />
    <path fill="#ffffff" d="M 554.144531 216.214844 L 557.304688 218.554688 C 557.304688 218.554688 556.257812 221.605469 554.144531 220.355469 L 554.144531 216.214844 " fill-opacity="1" fill-rule="nonzero" />
    <path fill="#39394b" d="M 555.128906 221.625 C 554.703125 221.625 554.199219 221.519531 553.648438 221.191406 C 553.183594 220.917969 553.03125 220.320312 553.304688 219.859375 C 553.578125 219.394531 554.175781 219.242188 554.636719 219.515625 C 555.035156 219.753906 555.238281 219.679688 555.3125 219.648438 C 555.605469 219.539062 555.882812 219.199219 556.085938 218.863281 L 553.5625 216.996094 C 553.132812 216.675781 553.042969 216.066406 553.363281 215.636719 C 553.679688 215.203125 554.289062 215.113281 554.71875 215.433594 L 557.882812 217.773438 C 558.222656 218.023438 558.363281 218.46875 558.226562 218.867188 C 558.152344 219.074219 557.484375 220.925781 555.984375 221.472656 C 555.753906 221.558594 555.464844 221.625 555.128906 221.625 " fill-opacity="1" fill-rule="nonzero" />
    <path fill="#ffffff" d="M 563.054688 215.449219 L 559.492188 219.863281 L 563.054688 215.449219 " fill-opacity="1" fill-rule="nonzero" />
    <path fill="#39394b" d="M 559.492188 220.835938 C 559.277344 220.835938 559.058594 220.765625 558.878906 220.621094 C 558.460938 220.285156 558.394531 219.667969 558.730469 219.253906 L 562.296875 214.835938 C 562.632812 214.414062 563.246094 214.351562 563.664062 214.6875 C 564.082031 215.027344 564.148438 215.636719 563.8125 216.054688 L 560.246094 220.476562 C 560.054688 220.714844 559.773438 220.835938 559.492188 220.835938 " fill-opacity="1" fill-rule="nonzero" />
    <path fill="#ffffff" d="M 564.144531 218.910156 L 561.273438 222.398438 L 564.144531 218.910156 " fill-opacity="1" fill-rule="nonzero" />
    <path fill="#39394b" d="M 561.273438 223.371094 C 561.054688 223.371094 560.832031 223.300781 560.65625 223.148438 C 560.238281 222.808594 560.179688 222.195312 560.519531 221.78125 L 563.390625 218.292969 C 563.730469 217.878906 564.347656 217.820312 564.761719 218.164062 C 565.175781 218.503906 565.234375 219.113281 564.894531 219.53125 L 562.019531 223.015625 C 561.832031 223.253906 561.550781 223.371094 561.273438 223.371094 " fill-opacity="1" fill-rule="nonzero" />
    <path fill="#ffffff" d="M 411.96875 372.5 C 411.96875 372.5 419.519531 366.835938 423.855469 365.890625 C 428.191406 364.945312 432.460938 367.84375 432.460938 367.84375 C 432.460938 367.84375 427.804688 370.433594 425.542969 370.730469 C 423.28125 371.027344 417.402344 381.863281 410.375 378.390625 L 411.96875 372.5 " fill-opacity="1" fill-rule="nonzero" />
    <path fill="#39394b" d="M 411.535156 377.824219 C 415.507812 379.152344 419.144531 375.363281 421.84375 372.554688 C 423.375 370.957031 424.390625 369.902344 425.414062 369.765625 C 426.621094 369.609375 428.792969 368.632812 430.398438 367.828125 C 428.890625 367.128906 426.457031 366.316406 424.0625 366.839844 C 420.425781 367.636719 414.179688 372.089844 412.820312 373.082031 Z M 413.234375 380.0625 C 412.175781 380.0625 411.078125 379.824219 409.945312 379.265625 C 409.527344 379.058594 409.3125 378.585938 409.433594 378.136719 L 411.03125 372.242188 C 411.085938 372.035156 411.210938 371.851562 411.386719 371.71875 C 411.699219 371.484375 419.15625 365.921875 423.644531 364.941406 C 428.339844 363.917969 432.820312 366.914062 433.007812 367.039062 C 433.289062 367.230469 433.449219 367.550781 433.433594 367.890625 C 433.417969 368.222656 433.230469 368.53125 432.933594 368.695312 C 432.441406 368.96875 428.042969 371.382812 425.667969 371.695312 C 425.269531 371.792969 424.101562 373.011719 423.246094 373.898438 C 420.785156 376.460938 417.328125 380.0625 413.234375 380.0625 " fill-opacity="1" fill-rule="nonzero" />
    <path fill="#146c6a" d="M 418.640625 284.222656 L 422.304688 282.816406 C 422.304688 282.816406 444.464844 296.992188 454.085938 275.523438 L 459.167969 274.0625 L 469.433594 303.148438 L 417.816406 316.894531 L 418.640625 284.222656 " fill-opacity="1" fill-rule="nonzero" />
    <path fill="#0d9e91" d="M 554.527344 231.367188 C 550.949219 230.238281 547.363281 229.113281 543.78125 227.988281 C 528.695312 245.542969 513.929688 254.5625 502.726562 259.585938 C 488.933594 265.765625 465.195312 272.765625 465.195312 272.765625 C 465.195312 272.765625 465.234375 284.011719 446.652344 296.851562 C 428.066406 309.6875 399.609375 296.933594 399.609375 296.933594 C 399.609375 296.933594 368.078125 323.84375 366.253906 340.011719 C 363.21875 366.871094 410.003906 379.765625 410.003906 379.765625 L 411.96875 372.5 C 411.96875 372.5 393.144531 357.183594 397.226562 341.652344 C 401.3125 326.121094 411.828125 319.242188 411.828125 319.242188 C 414.964844 337.175781 413.617188 358.054688 413.617188 358.054688 C 444.527344 365.921875 471.199219 355.789062 482.976562 349.992188 C 486.984375 348.023438 489.226562 343.667969 488.539062 339.253906 C 485.941406 322.640625 479.429688 301.671875 479.429688 301.671875 C 486.570312 301.300781 494.269531 299.925781 502.09375 296.890625 C 540.289062 282.0625 552.535156 238.832031 554.527344 231.367188 " fill-opacity="1" fill-rule="nonzero" />
    <path fill="#146c6a" d="M 448.683594 349.683594 C 448.300781 349.683594 447.933594 349.457031 447.78125 349.078125 C 447.578125 348.582031 447.816406 348.015625 448.316406 347.8125 C 470.894531 338.558594 474.210938 313.023438 474.242188 312.769531 C 474.308594 312.234375 474.792969 311.855469 475.324219 311.917969 C 475.855469 311.980469 476.238281 312.464844 476.175781 312.996094 C 476.140625 313.269531 472.679688 339.929688 449.050781 349.613281 C 448.929688 349.660156 448.804688 349.683594 448.683594 349.683594 " fill-opacity="1" fill-rule="nonzero" />
    <path fill="#ffffff" d="M 444.835938 430.1875 C 444.300781 430.1875 443.871094 429.753906 443.863281 429.21875 C 443.804688 419.054688 446.625 399.433594 451.007812 393.027344 C 451.3125 392.585938 451.917969 392.46875 452.363281 392.773438 C 452.804688 393.074219 452.921875 393.679688 452.613281 394.125 C 448.585938 400.015625 445.753906 419.167969 445.808594 429.207031 C 445.8125 429.746094 445.378906 430.179688 444.84375 430.1875 C 444.84375 430.1875 444.839844 430.1875 444.835938 430.1875 " fill-opacity="1" fill-rule="nonzero" />
    <path fill="#ffffff" d="M 442.054688 488.648438 C 441.542969 488.648438 441.113281 488.246094 441.085938 487.730469 C 440.554688 478.246094 442.074219 462.675781 442.089844 462.519531 C 442.144531 461.984375 442.617188 461.597656 443.15625 461.648438 C 443.691406 461.703125 444.082031 462.179688 444.027344 462.710938 C 444.011719 462.867188 442.507812 478.289062 443.027344 487.621094 C 443.058594 488.160156 442.644531 488.617188 442.113281 488.648438 C 442.09375 488.648438 442.074219 488.648438 442.054688 488.648438 " fill-opacity="1" fill-rule="nonzero" />
</svg>