<svg xmlns="http://www.w3.org/2000/svg" xmlns:xlink="http://www.w3.org/1999/xlink" width="1366" zoomAndPan="magnify" viewBox="0 0 1024.5 347.999987" height="768" preserveAspectRatio="xMidYMid meet" version="1.0"><defs><g/><clipPath id="8d5451d3a0"><path d="M 368.882812 24.410156 L 580.0625 24.410156 L 580.0625 347.914062 L 368.882812 347.914062 Z M 368.882812 24.410156 " clip-rule="nonzero"/></clipPath><clipPath id="0ec29548c6"><path d="M 380.132812 24.410156 L 568.8125 24.410156 C 575.027344 24.410156 580.0625 29.445312 580.0625 35.660156 L 580.0625 336.964844 C 580.0625 343.179688 575.027344 348.214844 568.8125 348.214844 L 380.132812 348.214844 C 373.917969 348.214844 368.882812 343.179688 368.882812 336.964844 L 368.882812 35.660156 C 368.882812 29.445312 373.917969 24.410156 380.132812 24.410156 Z M 380.132812 24.410156 " clip-rule="nonzero"/></clipPath><clipPath id="066fc03ad4"><path d="M 365.238281 19.507812 L 575.128906 19.507812 L 575.128906 343.359375 L 365.238281 343.359375 Z M 365.238281 19.507812 " clip-rule="nonzero"/></clipPath><clipPath id="d286a57cab"><path d="M 376.488281 19.507812 L 563.878906 19.507812 C 570.089844 19.507812 575.128906 24.542969 575.128906 30.757812 L 575.128906 332.109375 C 575.128906 338.320312 570.089844 343.359375 563.878906 343.359375 L 376.488281 343.359375 C 370.273438 343.359375 365.238281 338.320312 365.238281 332.109375 L 365.238281 30.757812 C 365.238281 24.542969 370.273438 19.507812 376.488281 19.507812 Z M 376.488281 19.507812 " clip-rule="nonzero"/></clipPath><clipPath id="beae820898"><path d="M 365.238281 19.511719 L 575.238281 19.511719 L 575.238281 343.507812 L 365.238281 343.507812 Z M 365.238281 19.511719 " clip-rule="nonzero"/></clipPath><clipPath id="538fa569f0"><path d="M 376.496094 19.511719 L 563.980469 19.511719 C 570.199219 19.511719 575.238281 24.550781 575.238281 30.765625 L 575.238281 332.25 C 575.238281 338.464844 570.199219 343.503906 563.980469 343.503906 L 376.496094 343.503906 C 370.277344 343.503906 365.238281 338.464844 365.238281 332.25 L 365.238281 30.765625 C 365.238281 24.550781 370.277344 19.511719 376.496094 19.511719 Z M 376.496094 19.511719 " clip-rule="nonzero"/></clipPath><clipPath id="1b19497649"><path d="M 397.148438 291.824219 L 548.15625 291.824219 L 548.15625 326.976562 L 397.148438 326.976562 Z M 397.148438 291.824219 " clip-rule="nonzero"/></clipPath><clipPath id="8765fe811b"><path d="M 400.148438 291.824219 L 545.15625 291.824219 C 546.8125 291.824219 548.15625 293.167969 548.15625 294.824219 L 548.15625 323.976562 C 548.15625 325.632812 546.8125 326.976562 545.15625 326.976562 L 400.148438 326.976562 C 398.488281 326.976562 397.148438 325.632812 397.148438 323.976562 L 397.148438 294.824219 C 397.148438 293.167969 398.488281 291.824219 400.148438 291.824219 Z M 400.148438 291.824219 " clip-rule="nonzero"/></clipPath><clipPath id="8fc38480eb"><path d="M 351.472656 54.816406 L 363.714844 54.816406 L 363.714844 60.027344 L 351.472656 60.027344 Z M 351.472656 54.816406 " clip-rule="nonzero"/></clipPath><clipPath id="8f5d564c91"><path d="M 351 1.546875 L 364 1.546875 L 364 8 L 351 8 Z M 351 1.546875 " clip-rule="nonzero"/></clipPath><clipPath id="061e33d0b5"><path d="M 321.929688 14 L 331 14 L 331 43 L 321.929688 43 Z M 321.929688 14 " clip-rule="nonzero"/></clipPath><clipPath id="bc777d293d"><path d="M 385.671875 14.339844 L 393.179688 14.339844 L 393.179688 40.5625 L 385.671875 40.5625 Z M 385.671875 14.339844 " clip-rule="nonzero"/></clipPath><clipPath id="8aabf876a9"><path d="M 350.78125 53.351562 L 363 53.351562 L 363 58.566406 L 350.78125 58.566406 Z M 350.78125 53.351562 " clip-rule="nonzero"/></clipPath><clipPath id="ed77ab23ad"><path d="M 351 0.0859375 L 363 0.0859375 L 363 7 L 351 7 Z M 351 0.0859375 " clip-rule="nonzero"/></clipPath><clipPath id="6803b53544"><path d="M 321.238281 12 L 330 12 L 330 41 L 321.238281 41 Z M 321.238281 12 " clip-rule="nonzero"/></clipPath><clipPath id="92b711c870"><path d="M 385 12.875 L 392.488281 12.875 L 392.488281 39 L 385 39 Z M 385 12.875 " clip-rule="nonzero"/></clipPath><clipPath id="4b352c6405"><path d="M 453.324219 80.3125 L 557.492188 80.3125 L 557.492188 92.976562 L 453.324219 92.976562 Z M 453.324219 80.3125 " clip-rule="nonzero"/></clipPath><clipPath id="c0345c4061"><path d="M 551.160156 80.3125 C 554.65625 80.3125 557.492188 83.148438 557.492188 86.644531 C 557.492188 90.144531 554.65625 92.976562 551.160156 92.976562 L 459.65625 92.976562 C 456.160156 92.976562 453.324219 90.144531 453.324219 86.644531 C 453.324219 83.148438 456.160156 80.3125 459.65625 80.3125 Z M 551.160156 80.3125 " clip-rule="nonzero"/></clipPath><clipPath id="a6202dcf60"><path d="M 453.324219 115.675781 L 557.492188 115.675781 L 557.492188 128.34375 L 453.324219 128.34375 Z M 453.324219 115.675781 " clip-rule="nonzero"/></clipPath><clipPath id="83f7970fd0"><path d="M 551.160156 115.675781 C 554.65625 115.675781 557.492188 118.511719 557.492188 122.011719 C 557.492188 125.507812 554.65625 128.34375 551.160156 128.34375 L 459.65625 128.34375 C 456.160156 128.34375 453.324219 125.507812 453.324219 122.011719 C 453.324219 118.511719 456.160156 115.675781 459.65625 115.675781 Z M 551.160156 115.675781 " clip-rule="nonzero"/></clipPath><clipPath id="470130aaf0"><path d="M 453.324219 151.042969 L 557.492188 151.042969 L 557.492188 163.707031 L 453.324219 163.707031 Z M 453.324219 151.042969 " clip-rule="nonzero"/></clipPath><clipPath id="4c1bf12bc1"><path d="M 551.160156 151.042969 C 554.65625 151.042969 557.492188 153.878906 557.492188 157.375 C 557.492188 160.871094 554.65625 163.707031 551.160156 163.707031 L 459.65625 163.707031 C 456.160156 163.707031 453.324219 160.871094 453.324219 157.375 C 453.324219 153.878906 456.160156 151.042969 459.65625 151.042969 Z M 551.160156 151.042969 " clip-rule="nonzero"/></clipPath><clipPath id="58e3149f74"><path d="M 383.046875 184.167969 L 557.492188 184.167969 L 557.492188 258.523438 L 383.046875 258.523438 Z M 383.046875 184.167969 " clip-rule="nonzero"/></clipPath><clipPath id="05b2f3d03a"><path d="M 386.796875 184.167969 L 553.742188 184.167969 C 554.738281 184.167969 555.691406 184.5625 556.394531 185.265625 C 557.097656 185.96875 557.492188 186.921875 557.492188 187.917969 L 557.492188 254.773438 C 557.492188 255.765625 557.097656 256.722656 556.394531 257.425781 C 555.691406 258.128906 554.738281 258.523438 553.742188 258.523438 L 386.796875 258.523438 C 385.804688 258.523438 384.847656 258.128906 384.144531 257.425781 C 383.441406 256.722656 383.046875 255.765625 383.046875 254.773438 L 383.046875 187.917969 C 383.046875 186.921875 383.441406 185.96875 384.144531 185.265625 C 384.847656 184.5625 385.804688 184.167969 386.796875 184.167969 Z M 386.796875 184.167969 " clip-rule="nonzero"/></clipPath><clipPath id="f6d889a12c"><path d="M 383.046875 184.167969 L 557.796875 184.167969 L 557.796875 258.417969 L 383.046875 258.417969 Z M 383.046875 184.167969 " clip-rule="nonzero"/></clipPath><clipPath id="71f631c0ef"><path d="M 386.804688 184.167969 L 554.039062 184.167969 C 555.039062 184.167969 555.992188 184.5625 556.699219 185.265625 C 557.402344 185.96875 557.796875 186.917969 557.796875 187.914062 L 557.796875 254.671875 C 557.796875 255.664062 557.402344 256.617188 556.699219 257.316406 C 555.992188 258.019531 555.039062 258.414062 554.039062 258.414062 L 386.804688 258.414062 C 385.808594 258.414062 384.851562 258.019531 384.148438 257.316406 C 383.441406 256.617188 383.046875 255.664062 383.046875 254.671875 L 383.046875 187.914062 C 383.046875 186.917969 383.441406 185.96875 384.148438 185.265625 C 384.851562 184.5625 385.808594 184.167969 386.804688 184.167969 Z M 386.804688 184.167969 " clip-rule="nonzero"/></clipPath><clipPath id="c127ad117d"><path d="M 389.515625 198.113281 L 550.625 198.113281 L 550.625 204.183594 L 389.515625 204.183594 Z M 389.515625 198.113281 " clip-rule="nonzero"/></clipPath><clipPath id="3cf0f2b0be"><path d="M 547.589844 198.113281 C 549.265625 198.113281 550.625 199.472656 550.625 201.148438 C 550.625 202.824219 549.265625 204.183594 547.589844 204.183594 L 392.546875 204.183594 C 390.871094 204.183594 389.515625 202.824219 389.515625 201.148438 C 389.515625 199.472656 390.871094 198.113281 392.546875 198.113281 Z M 547.589844 198.113281 " clip-rule="nonzero"/></clipPath><clipPath id="d06e5f002f"><path d="M 389.515625 211.085938 L 550.625 211.085938 L 550.625 217.15625 L 389.515625 217.15625 Z M 389.515625 211.085938 " clip-rule="nonzero"/></clipPath><clipPath id="dcf1600d48"><path d="M 547.589844 211.085938 C 549.265625 211.085938 550.625 212.445312 550.625 214.121094 C 550.625 215.796875 549.265625 217.15625 547.589844 217.15625 L 392.546875 217.15625 C 390.871094 217.15625 389.515625 215.796875 389.515625 214.121094 C 389.515625 212.445312 390.871094 211.085938 392.546875 211.085938 Z M 547.589844 211.085938 " clip-rule="nonzero"/></clipPath><clipPath id="d9080bee60"><path d="M 389.515625 224.0625 L 550.625 224.0625 L 550.625 230.128906 L 389.515625 230.128906 Z M 389.515625 224.0625 " clip-rule="nonzero"/></clipPath><clipPath id="f38435469d"><path d="M 547.589844 224.0625 C 549.265625 224.0625 550.625 225.417969 550.625 227.09375 C 550.625 228.769531 549.265625 230.128906 547.589844 230.128906 L 392.546875 230.128906 C 390.871094 230.128906 389.515625 228.769531 389.515625 227.09375 C 389.515625 225.417969 390.871094 224.0625 392.546875 224.0625 Z M 547.589844 224.0625 " clip-rule="nonzero"/></clipPath><clipPath id="ad142d62d0"><path d="M 389.515625 237.035156 L 463.207031 237.035156 L 463.207031 243.105469 L 389.515625 243.105469 Z M 389.515625 237.035156 " clip-rule="nonzero"/></clipPath><clipPath id="07d4f5a323"><path d="M 460.175781 237.035156 C 461.851562 237.035156 463.207031 238.394531 463.207031 240.070312 C 463.207031 241.746094 461.851562 243.105469 460.175781 243.105469 L 392.546875 243.105469 C 390.871094 243.105469 389.515625 241.746094 389.515625 240.070312 C 389.515625 238.394531 390.871094 237.035156 392.546875 237.035156 Z M 460.175781 237.035156 " clip-rule="nonzero"/></clipPath></defs><g clip-path="url(#8d5451d3a0)"><g clip-path="url(#0ec29548c6)"><path fill="#8b8ba1" d="M 368.882812 24.410156 L 580.0625 24.410156 L 580.0625 348.214844 L 368.882812 348.214844 Z M 368.882812 24.410156 " fill-opacity="1" fill-rule="nonzero"/></g></g><g clip-path="url(#066fc03ad4)"><g clip-path="url(#d286a57cab)"><path fill="#ffffff" d="M 365.238281 19.507812 L 575.128906 19.507812 L 575.128906 343.359375 L 365.238281 343.359375 Z M 365.238281 19.507812 " fill-opacity="1" fill-rule="nonzero"/></g></g><g clip-path="url(#beae820898)"><g clip-path="url(#538fa569f0)"><path stroke-linecap="butt" transform="matrix(0.750419, 0, 0, 0.750353, 365.238374, 19.51088)" fill="none" stroke-linejoin="miter" d="M 15.001918 0.00111784 L 264.841615 0.00111784 C 273.128656 0.00111784 279.843657 6.716709 279.843657 14.999272 L 279.843657 416.789473 C 279.843657 425.072036 273.128656 431.787628 264.841615 431.787628 L 15.001918 431.787628 C 6.714877 431.787628 -0.000124079 425.072036 -0.000124079 416.789473 L -0.000124079 14.999272 C -0.000124079 6.716709 6.714877 0.00111784 15.001918 0.00111784 Z M 15.001918 0.00111784 " stroke="#b0b7c2" stroke-width="2" stroke-opacity="1" stroke-miterlimit="4"/></g></g><g clip-path="url(#1b19497649)"><g clip-path="url(#8765fe811b)"><path fill="#0d9e91" d="M 397.148438 291.824219 L 548.15625 291.824219 L 548.15625 326.976562 L 397.148438 326.976562 Z M 397.148438 291.824219 " fill-opacity="1" fill-rule="nonzero"/></g></g><g fill="#ffffff" fill-opacity="1"><g transform="translate(448.416046, 314.325394)"><g><path d="M 8.234375 0 L 6 -3.125 C 5.75 -3.101562 5.492188 -3.09375 5.234375 -3.09375 L 2.609375 -3.09375 L 2.609375 0 L 1.578125 0 L 1.578125 -9.734375 L 5.234375 -9.734375 C 6.472656 -9.734375 7.441406 -9.4375 8.140625 -8.84375 C 8.847656 -8.25 9.203125 -7.429688 9.203125 -6.390625 C 9.203125 -5.628906 9.007812 -4.988281 8.625 -4.46875 C 8.238281 -3.945312 7.691406 -3.570312 6.984375 -3.34375 L 9.359375 0 Z M 5.203125 -3.96875 C 6.160156 -3.96875 6.894531 -4.179688 7.40625 -4.609375 C 7.914062 -5.035156 8.171875 -5.628906 8.171875 -6.390625 C 8.171875 -7.179688 7.914062 -7.785156 7.40625 -8.203125 C 6.894531 -8.628906 6.160156 -8.84375 5.203125 -8.84375 L 2.609375 -8.84375 L 2.609375 -3.96875 Z M 5.203125 -3.96875 "/></g></g></g><g fill="#ffffff" fill-opacity="1"><g transform="translate(458.464655, 314.325394)"><g><path d="M 7.75 -3.34375 L 1.625 -3.34375 C 1.675781 -2.59375 1.96875 -1.984375 2.5 -1.515625 C 3.03125 -1.046875 3.695312 -0.8125 4.5 -0.8125 C 4.957031 -0.8125 5.375 -0.890625 5.75 -1.046875 C 6.132812 -1.210938 6.46875 -1.453125 6.75 -1.765625 L 7.296875 -1.125 C 6.972656 -0.738281 6.566406 -0.441406 6.078125 -0.234375 C 5.597656 -0.0351562 5.066406 0.0625 4.484375 0.0625 C 3.722656 0.0625 3.050781 -0.09375 2.46875 -0.40625 C 1.894531 -0.726562 1.445312 -1.171875 1.125 -1.734375 C 0.800781 -2.304688 0.640625 -2.945312 0.640625 -3.65625 C 0.640625 -4.375 0.796875 -5.015625 1.109375 -5.578125 C 1.421875 -6.140625 1.847656 -6.578125 2.390625 -6.890625 C 2.929688 -7.210938 3.539062 -7.375 4.21875 -7.375 C 4.894531 -7.375 5.5 -7.210938 6.03125 -6.890625 C 6.570312 -6.578125 6.992188 -6.140625 7.296875 -5.578125 C 7.609375 -5.015625 7.765625 -4.375 7.765625 -3.65625 Z M 4.21875 -6.515625 C 3.507812 -6.515625 2.914062 -6.289062 2.4375 -5.84375 C 1.957031 -5.394531 1.6875 -4.8125 1.625 -4.09375 L 6.8125 -4.09375 C 6.75 -4.8125 6.476562 -5.394531 6 -5.84375 C 5.519531 -6.289062 4.925781 -6.515625 4.21875 -6.515625 Z M 4.21875 -6.515625 "/></g></g></g><g fill="#ffffff" fill-opacity="1"><g transform="translate(466.859342, 314.325394)"><g><path d="M 5.109375 -7.375 C 6.023438 -7.375 6.753906 -7.101562 7.296875 -6.5625 C 7.835938 -6.03125 8.109375 -5.253906 8.109375 -4.234375 L 8.109375 0 L 7.125 0 L 7.125 -4.140625 C 7.125 -4.898438 6.929688 -5.476562 6.546875 -5.875 C 6.171875 -6.28125 5.628906 -6.484375 4.921875 -6.484375 C 4.128906 -6.484375 3.503906 -6.25 3.046875 -5.78125 C 2.585938 -5.3125 2.359375 -4.664062 2.359375 -3.84375 L 2.359375 0 L 1.375 0 L 1.375 -7.3125 L 2.328125 -7.3125 L 2.328125 -5.96875 C 2.585938 -6.414062 2.957031 -6.757812 3.4375 -7 C 3.914062 -7.25 4.472656 -7.375 5.109375 -7.375 Z M 5.109375 -7.375 "/></g></g></g><g fill="#ffffff" fill-opacity="1"><g transform="translate(476.268616, 314.325394)"><g><path d="M 7.75 -3.34375 L 1.625 -3.34375 C 1.675781 -2.59375 1.96875 -1.984375 2.5 -1.515625 C 3.03125 -1.046875 3.695312 -0.8125 4.5 -0.8125 C 4.957031 -0.8125 5.375 -0.890625 5.75 -1.046875 C 6.132812 -1.210938 6.46875 -1.453125 6.75 -1.765625 L 7.296875 -1.125 C 6.972656 -0.738281 6.566406 -0.441406 6.078125 -0.234375 C 5.597656 -0.0351562 5.066406 0.0625 4.484375 0.0625 C 3.722656 0.0625 3.050781 -0.09375 2.46875 -0.40625 C 1.894531 -0.726562 1.445312 -1.171875 1.125 -1.734375 C 0.800781 -2.304688 0.640625 -2.945312 0.640625 -3.65625 C 0.640625 -4.375 0.796875 -5.015625 1.109375 -5.578125 C 1.421875 -6.140625 1.847656 -6.578125 2.390625 -6.890625 C 2.929688 -7.210938 3.539062 -7.375 4.21875 -7.375 C 4.894531 -7.375 5.5 -7.210938 6.03125 -6.890625 C 6.570312 -6.578125 6.992188 -6.140625 7.296875 -5.578125 C 7.609375 -5.015625 7.765625 -4.375 7.765625 -3.65625 Z M 4.21875 -6.515625 C 3.507812 -6.515625 2.914062 -6.289062 2.4375 -5.84375 C 1.957031 -5.394531 1.6875 -4.8125 1.625 -4.09375 L 6.8125 -4.09375 C 6.75 -4.8125 6.476562 -5.394531 6 -5.84375 C 5.519531 -6.289062 4.925781 -6.515625 4.21875 -6.515625 Z M 4.21875 -6.515625 "/></g></g></g><g fill="#ffffff" fill-opacity="1"><g transform="translate(484.663303, 314.325394)"><g><path d="M 12.109375 -7.3125 L 9.34375 0 L 8.40625 0 L 6.109375 -6 L 3.796875 0 L 2.859375 0 L 0.109375 -7.3125 L 1.0625 -7.3125 L 3.34375 -1.09375 L 5.703125 -7.3125 L 6.546875 -7.3125 L 8.890625 -1.09375 L 11.203125 -7.3125 Z M 12.109375 -7.3125 "/></g></g></g><g clip-path="url(#8fc38480eb)"><path fill="#5a5a79" d="M 361.496094 54.875 L 351.582031 54.875 C 352.070312 57.796875 354.59375 60.027344 357.621094 60.027344 C 360.648438 60.027344 363.167969 57.796875 363.65625 54.875 L 361.496094 54.875 " fill-opacity="1" fill-rule="nonzero"/></g><g clip-path="url(#8f5d564c91)"><path fill="#5a5a79" d="M 354.066406 6.957031 C 355.21875 6.71875 356.40625 6.59375 357.621094 6.59375 C 358.835938 6.59375 360.023438 6.71875 361.171875 6.957031 C 361.542969 7.035156 361.910156 7.121094 362.269531 7.222656 C 362.632812 7.320312 362.992188 7.433594 363.34375 7.558594 C 363.28125 4.238281 360.738281 1.5625 357.621094 1.5625 C 354.5 1.5625 351.957031 4.238281 351.894531 7.558594 C 352.246094 7.433594 352.605469 7.320312 352.96875 7.222656 C 353.332031 7.121094 353.695312 7.035156 354.066406 6.957031 " fill-opacity="1" fill-rule="nonzero"/></g><path fill="#5a5a79" d="M 378.882812 46.808594 C 377.480469 45.472656 376.035156 44.09375 374.871094 42.191406 C 372.980469 39.109375 374.148438 27.753906 374.183594 27.433594 L 374.171875 27.347656 L 374.171875 27.253906 C 374.179688 27.046875 374.183594 26.851562 374.183594 26.664062 C 374.183594 18.910156 369.613281 12.289062 363.238281 9.792969 C 362.894531 9.65625 362.542969 9.535156 362.191406 9.421875 C 361.84375 9.316406 361.492188 9.21875 361.136719 9.136719 C 360.003906 8.871094 358.824219 8.730469 357.621094 8.730469 C 356.414062 8.730469 355.238281 8.871094 354.101562 9.136719 C 353.746094 9.21875 353.394531 9.316406 353.046875 9.421875 C 352.695312 9.535156 352.34375 9.65625 352 9.792969 C 345.625 12.289062 341.054688 18.910156 341.054688 26.664062 C 341.054688 26.851562 341.058594 27.046875 341.066406 27.253906 L 341.066406 27.347656 L 341.054688 27.433594 C 341.089844 27.773438 342.253906 39.113281 340.367188 42.191406 C 339.203125 44.09375 337.757812 45.472656 336.355469 46.808594 C 335.660156 47.472656 334.859375 48.789062 334.320312 50.164062 C 333.785156 51.519531 333.707031 52.386719 333.753906 52.738281 L 381.59375 52.738281 C 381.652344 52.429688 381.582031 51.558594 380.996094 50.160156 C 380.429688 48.808594 379.601562 47.492188 378.882812 46.808594 " fill-opacity="1" fill-rule="nonzero"/><path fill="#5a5a79" d="M 334.84375 37.003906 C 335.625 36.441406 335.808594 35.339844 335.25 34.546875 C 333.828125 32.53125 333.078125 30.152344 333.078125 27.664062 C 333.078125 25.292969 333.765625 23.007812 335.070312 21.046875 C 335.605469 20.242188 335.394531 19.144531 334.59375 18.601562 C 333.792969 18.058594 332.710938 18.273438 332.171875 19.082031 C 330.480469 21.621094 329.589844 24.589844 329.589844 27.664062 C 329.589844 30.886719 330.5625 33.976562 332.410156 36.59375 C 332.75 37.074219 333.285156 37.332031 333.832031 37.332031 C 334.179688 37.332031 334.535156 37.226562 334.84375 37.003906 " fill-opacity="1" fill-rule="nonzero"/><g clip-path="url(#061e33d0b5)"><path fill="#5a5a79" d="M 326.15625 27.664062 C 326.15625 24.011719 327.191406 20.464844 329.148438 17.414062 C 329.785156 16.425781 329.503906 15.101562 328.527344 14.457031 C 327.546875 13.816406 326.238281 14.097656 325.601562 15.089844 C 323.199219 18.832031 321.929688 23.183594 321.929688 27.664062 C 321.929688 32.597656 323.441406 37.308594 326.308594 41.28125 C 326.722656 41.855469 327.367188 42.160156 328.019531 42.160156 C 328.449219 42.160156 328.886719 42.027344 329.261719 41.75 C 330.207031 41.054688 330.414062 39.71875 329.726562 38.765625 C 327.390625 35.527344 326.15625 31.6875 326.15625 27.664062 " fill-opacity="1" fill-rule="nonzero"/></g><path fill="#5a5a79" d="M 380.386719 18.441406 C 379.59375 18.996094 379.398438 20.09375 379.949219 20.894531 C 381.3125 22.882812 382.035156 25.222656 382.035156 27.65625 C 382.035156 30.015625 381.351562 32.296875 380.058594 34.253906 C 379.519531 35.0625 379.734375 36.15625 380.535156 36.699219 C 380.835938 36.898438 381.171875 36.996094 381.503906 36.996094 C 382.066406 36.996094 382.621094 36.722656 382.957031 36.214844 C 384.636719 33.679688 385.523438 30.71875 385.523438 27.65625 C 385.523438 24.5 384.589844 21.46875 382.816406 18.886719 C 382.265625 18.085938 381.179688 17.886719 380.386719 18.441406 " fill-opacity="1" fill-rule="nonzero"/><g clip-path="url(#bc777d293d)"><path fill="#5a5a79" d="M 389.710938 15.394531 C 389.09375 14.394531 387.789062 14.089844 386.796875 14.714844 C 385.808594 15.34375 385.507812 16.660156 386.125 17.660156 C 387.976562 20.652344 388.957031 24.109375 388.957031 27.65625 C 388.957031 31.027344 388.066406 34.335938 386.382812 37.222656 C 385.789062 38.238281 386.125 39.550781 387.128906 40.148438 C 387.46875 40.347656 387.835938 40.445312 388.203125 40.445312 C 388.925781 40.445312 389.632812 40.066406 390.027344 39.390625 C 392.09375 35.847656 393.183594 31.789062 393.183594 27.65625 C 393.183594 23.304688 391.984375 19.066406 389.710938 15.394531 " fill-opacity="1" fill-rule="nonzero"/></g><g clip-path="url(#8aabf876a9)"><path fill="#fccd2f" d="M 360.804688 53.414062 L 350.894531 53.414062 C 351.382812 56.332031 353.902344 58.566406 356.929688 58.566406 C 359.957031 58.566406 362.476562 56.332031 362.964844 53.414062 L 360.804688 53.414062 " fill-opacity="1" fill-rule="nonzero"/></g><g clip-path="url(#ed77ab23ad)"><path fill="#fccd2f" d="M 353.378906 5.496094 C 354.527344 5.253906 355.714844 5.128906 356.929688 5.128906 C 358.144531 5.128906 359.332031 5.253906 360.484375 5.496094 C 360.851562 5.570312 361.21875 5.660156 361.582031 5.757812 C 361.945312 5.859375 362.300781 5.972656 362.65625 6.09375 C 362.589844 2.777344 360.046875 0.0976562 356.929688 0.0976562 C 353.8125 0.0976562 351.269531 2.777344 351.203125 6.09375 C 351.558594 5.972656 351.917969 5.859375 352.28125 5.757812 C 352.640625 5.660156 353.007812 5.570312 353.378906 5.496094 " fill-opacity="1" fill-rule="nonzero"/></g><path fill="#fccd2f" d="M 378.195312 45.347656 C 376.792969 44.011719 375.34375 42.628906 374.179688 40.726562 C 372.292969 37.644531 373.460938 26.292969 373.492188 25.972656 L 373.480469 25.886719 L 373.484375 25.789062 C 373.492188 25.582031 373.496094 25.390625 373.496094 25.203125 C 373.496094 17.445312 368.925781 10.824219 362.546875 8.328125 C 362.203125 8.195312 361.855469 8.070312 361.5 7.960938 C 361.15625 7.851562 360.804688 7.757812 360.449219 7.675781 C 359.3125 7.40625 358.136719 7.265625 356.929688 7.265625 C 355.722656 7.265625 354.546875 7.40625 353.414062 7.675781 C 353.058594 7.757812 352.707031 7.851562 352.359375 7.960938 C 352.003906 8.070312 351.65625 8.195312 351.3125 8.328125 C 344.9375 10.824219 340.367188 17.445312 340.367188 25.203125 C 340.367188 25.390625 340.371094 25.582031 340.375 25.789062 L 340.378906 25.886719 L 340.367188 25.972656 C 340.402344 26.308594 341.566406 37.648438 339.679688 40.726562 C 338.515625 42.628906 337.066406 44.011719 335.667969 45.347656 C 334.96875 46.011719 334.171875 47.328125 333.628906 48.699219 C 333.097656 50.054688 333.019531 50.925781 333.066406 51.277344 L 380.902344 51.277344 C 380.964844 50.964844 380.894531 50.097656 380.308594 48.699219 C 379.742188 47.347656 378.910156 46.03125 378.195312 45.347656 " fill-opacity="1" fill-rule="nonzero"/><path fill="#fccd2f" d="M 334.152344 35.542969 C 334.9375 34.976562 335.121094 33.875 334.5625 33.082031 C 333.140625 31.066406 332.386719 28.6875 332.386719 26.203125 C 332.386719 23.832031 333.078125 21.542969 334.378906 19.585938 C 334.917969 18.777344 334.703125 17.683594 333.90625 17.140625 C 333.105469 16.597656 332.019531 16.808594 331.484375 17.617188 C 329.792969 20.160156 328.898438 23.128906 328.898438 26.203125 C 328.898438 29.425781 329.875 32.511719 331.71875 35.128906 C 332.058594 35.613281 332.597656 35.871094 333.140625 35.871094 C 333.492188 35.871094 333.847656 35.765625 334.152344 35.542969 " fill-opacity="1" fill-rule="nonzero"/><g clip-path="url(#6803b53544)"><path fill="#fccd2f" d="M 325.46875 26.203125 C 325.46875 22.546875 326.503906 19.003906 328.460938 15.949219 C 329.097656 14.960938 328.816406 13.636719 327.835938 12.996094 C 326.855469 12.351562 325.546875 12.636719 324.910156 13.625 C 322.507812 17.371094 321.238281 21.71875 321.238281 26.203125 C 321.238281 31.136719 322.753906 35.84375 325.617188 39.820312 C 326.035156 40.394531 326.675781 40.699219 327.332031 40.699219 C 327.761719 40.699219 328.199219 40.5625 328.574219 40.289062 C 329.515625 39.59375 329.726562 38.253906 329.039062 37.300781 C 326.703125 34.0625 325.46875 30.222656 325.46875 26.203125 " fill-opacity="1" fill-rule="nonzero"/></g><path fill="#fccd2f" d="M 379.699219 16.976562 C 378.90625 17.535156 378.710938 18.632812 379.257812 19.433594 C 380.625 21.421875 381.347656 23.757812 381.347656 26.191406 C 381.347656 28.554688 380.664062 30.835938 379.367188 32.789062 C 378.832031 33.597656 379.046875 34.691406 379.847656 35.234375 C 380.144531 35.4375 380.484375 35.53125 380.816406 35.53125 C 381.378906 35.53125 381.929688 35.257812 382.269531 34.75 C 383.949219 32.214844 384.835938 29.253906 384.835938 26.191406 C 384.835938 23.035156 383.898438 20.003906 382.125 17.421875 C 381.578125 16.621094 380.488281 16.421875 379.699219 16.976562 " fill-opacity="1" fill-rule="nonzero"/><g clip-path="url(#92b711c870)"><path fill="#fccd2f" d="M 389.023438 13.933594 C 388.40625 12.933594 387.097656 12.628906 386.109375 13.253906 C 385.117188 13.878906 384.820312 15.199219 385.4375 16.199219 C 387.289062 19.1875 388.265625 22.644531 388.265625 26.191406 C 388.265625 29.5625 387.375 32.871094 385.691406 35.757812 C 385.101562 36.777344 385.433594 38.085938 386.441406 38.683594 C 386.777344 38.886719 387.148438 38.980469 387.511719 38.980469 C 388.238281 38.980469 388.941406 38.605469 389.335938 37.929688 C 391.402344 34.386719 392.496094 30.328125 392.496094 26.191406 C 392.496094 21.839844 391.296875 17.601562 389.023438 13.933594 " fill-opacity="1" fill-rule="nonzero"/></g><g fill="#000000" fill-opacity="1"><g transform="translate(552.017273, 46.244458)"><g><path d="M 2.640625 0 L 0.203125 0 L 3.78125 -6.203125 L 0.375 -12.0625 L 2.90625 -12.0625 L 5.40625 -7.734375 L 5.609375 -7.734375 L 8.15625 -12.0625 L 10.5625 -12.0625 L 7.171875 -6.203125 L 10.734375 0 L 8.21875 0 L 5.53125 -4.65625 L 5.328125 -4.65625 Z M 2.640625 0 "/></g></g></g><g fill="#000000" fill-opacity="1"><g transform="translate(399.583095, 48.786404)"><g><path d="M 8.296875 0 L 6.171875 -3.0625 L 3.84375 -3.0625 L 3.84375 0 L 1.296875 0 L 1.296875 -10.96875 L 6.046875 -10.96875 C 7.015625 -10.96875 7.859375 -10.804688 8.578125 -10.484375 C 9.296875 -10.160156 9.847656 -9.703125 10.234375 -9.109375 C 10.617188 -8.515625 10.8125 -7.804688 10.8125 -6.984375 C 10.8125 -6.171875 10.613281 -5.46875 10.21875 -4.875 C 9.832031 -4.289062 9.28125 -3.84375 8.5625 -3.53125 L 11.015625 0 Z M 8.25 -6.984375 C 8.25 -7.609375 8.046875 -8.082031 7.640625 -8.40625 C 7.242188 -8.738281 6.664062 -8.90625 5.90625 -8.90625 L 3.84375 -8.90625 L 3.84375 -5.078125 L 5.90625 -5.078125 C 6.664062 -5.078125 7.242188 -5.242188 7.640625 -5.578125 C 8.046875 -5.910156 8.25 -6.378906 8.25 -6.984375 Z M 8.25 -6.984375 "/></g></g></g><g fill="#000000" fill-opacity="1"><g transform="translate(411.091362, 48.786404)"><g><path d="M 9.390625 -4.1875 C 9.390625 -4.15625 9.375 -3.9375 9.34375 -3.53125 L 2.96875 -3.53125 C 3.082031 -3.007812 3.351562 -2.59375 3.78125 -2.28125 C 4.207031 -1.976562 4.738281 -1.828125 5.375 -1.828125 C 5.8125 -1.828125 6.195312 -1.890625 6.53125 -2.015625 C 6.875 -2.148438 7.191406 -2.363281 7.484375 -2.65625 L 8.796875 -1.234375 C 7.992188 -0.328125 6.832031 0.125 5.3125 0.125 C 4.363281 0.125 3.519531 -0.0546875 2.78125 -0.421875 C 2.050781 -0.796875 1.488281 -1.3125 1.09375 -1.96875 C 0.695312 -2.632812 0.5 -3.382812 0.5 -4.21875 C 0.5 -5.039062 0.691406 -5.78125 1.078125 -6.4375 C 1.472656 -7.101562 2.015625 -7.625 2.703125 -8 C 3.390625 -8.375 4.15625 -8.5625 5 -8.5625 C 5.820312 -8.5625 6.566406 -8.378906 7.234375 -8.015625 C 7.910156 -7.660156 8.4375 -7.148438 8.8125 -6.484375 C 9.195312 -5.828125 9.390625 -5.0625 9.390625 -4.1875 Z M 5.015625 -6.703125 C 4.460938 -6.703125 4 -6.546875 3.625 -6.234375 C 3.25 -5.921875 3.019531 -5.492188 2.9375 -4.953125 L 7.078125 -4.953125 C 6.992188 -5.484375 6.765625 -5.90625 6.390625 -6.21875 C 6.015625 -6.539062 5.554688 -6.703125 5.015625 -6.703125 Z M 5.015625 -6.703125 "/></g></g></g><g fill="#000000" fill-opacity="1"><g transform="translate(420.971238, 48.786404)"><g><path d="M 6.25 -8.5625 C 7.289062 -8.5625 8.132812 -8.242188 8.78125 -7.609375 C 9.425781 -6.984375 9.75 -6.054688 9.75 -4.828125 L 9.75 0 L 7.296875 0 L 7.296875 -4.453125 C 7.296875 -5.117188 7.148438 -5.613281 6.859375 -5.9375 C 6.566406 -6.269531 6.144531 -6.4375 5.59375 -6.4375 C 4.976562 -6.4375 4.488281 -6.242188 4.125 -5.859375 C 3.757812 -5.484375 3.578125 -4.921875 3.578125 -4.171875 L 3.578125 0 L 1.125 0 L 1.125 -8.4375 L 3.46875 -8.4375 L 3.46875 -7.4375 C 3.789062 -7.800781 4.191406 -8.078125 4.671875 -8.265625 C 5.148438 -8.460938 5.675781 -8.5625 6.25 -8.5625 Z M 6.25 -8.5625 "/></g></g></g><g fill="#000000" fill-opacity="1"><g transform="translate(431.790573, 48.786404)"><g><path d="M 9.390625 -4.1875 C 9.390625 -4.15625 9.375 -3.9375 9.34375 -3.53125 L 2.96875 -3.53125 C 3.082031 -3.007812 3.351562 -2.59375 3.78125 -2.28125 C 4.207031 -1.976562 4.738281 -1.828125 5.375 -1.828125 C 5.8125 -1.828125 6.195312 -1.890625 6.53125 -2.015625 C 6.875 -2.148438 7.191406 -2.363281 7.484375 -2.65625 L 8.796875 -1.234375 C 7.992188 -0.328125 6.832031 0.125 5.3125 0.125 C 4.363281 0.125 3.519531 -0.0546875 2.78125 -0.421875 C 2.050781 -0.796875 1.488281 -1.3125 1.09375 -1.96875 C 0.695312 -2.632812 0.5 -3.382812 0.5 -4.21875 C 0.5 -5.039062 0.691406 -5.78125 1.078125 -6.4375 C 1.472656 -7.101562 2.015625 -7.625 2.703125 -8 C 3.390625 -8.375 4.15625 -8.5625 5 -8.5625 C 5.820312 -8.5625 6.566406 -8.378906 7.234375 -8.015625 C 7.910156 -7.660156 8.4375 -7.148438 8.8125 -6.484375 C 9.195312 -5.828125 9.390625 -5.0625 9.390625 -4.1875 Z M 5.015625 -6.703125 C 4.460938 -6.703125 4 -6.546875 3.625 -6.234375 C 3.25 -5.921875 3.019531 -5.492188 2.9375 -4.953125 L 7.078125 -4.953125 C 6.992188 -5.484375 6.765625 -5.90625 6.390625 -6.21875 C 6.015625 -6.539062 5.554688 -6.703125 5.015625 -6.703125 Z M 5.015625 -6.703125 "/></g></g></g><g fill="#000000" fill-opacity="1"><g transform="translate(441.670449, 48.786404)"><g><path d="M 14.671875 -8.4375 L 11.609375 0 L 9.265625 0 L 7.359375 -5.234375 L 5.40625 0 L 3.0625 0 L 0.015625 -8.4375 L 2.3125 -8.4375 L 4.3125 -2.734375 L 6.375 -8.4375 L 8.453125 -8.4375 L 10.453125 -2.734375 L 12.5 -8.4375 Z M 14.671875 -8.4375 "/></g></g></g><g fill="#000000" fill-opacity="1"><g transform="translate(456.341529, 48.786404)"><g><path d="M 4.53125 -8.5625 C 5.832031 -8.5625 6.832031 -8.25 7.53125 -7.625 C 8.238281 -7 8.59375 -6.0625 8.59375 -4.8125 L 8.59375 0 L 6.296875 0 L 6.296875 -1.046875 C 5.835938 -0.265625 4.984375 0.125 3.734375 0.125 C 3.085938 0.125 2.523438 0.015625 2.046875 -0.203125 C 1.566406 -0.421875 1.203125 -0.722656 0.953125 -1.109375 C 0.703125 -1.492188 0.578125 -1.929688 0.578125 -2.421875 C 0.578125 -3.210938 0.867188 -3.832031 1.453125 -4.28125 C 2.046875 -4.726562 2.960938 -4.953125 4.203125 -4.953125 L 6.140625 -4.953125 C 6.140625 -5.484375 5.976562 -5.890625 5.65625 -6.171875 C 5.332031 -6.460938 4.847656 -6.609375 4.203125 -6.609375 C 3.753906 -6.609375 3.3125 -6.535156 2.875 -6.390625 C 2.4375 -6.253906 2.066406 -6.066406 1.765625 -5.828125 L 0.890625 -7.53125 C 1.347656 -7.863281 1.898438 -8.117188 2.546875 -8.296875 C 3.191406 -8.472656 3.851562 -8.5625 4.53125 -8.5625 Z M 4.34375 -1.515625 C 4.757812 -1.515625 5.128906 -1.609375 5.453125 -1.796875 C 5.773438 -1.992188 6.003906 -2.285156 6.140625 -2.671875 L 6.140625 -3.53125 L 4.46875 -3.53125 C 3.46875 -3.53125 2.96875 -3.195312 2.96875 -2.53125 C 2.96875 -2.21875 3.085938 -1.96875 3.328125 -1.78125 C 3.578125 -1.601562 3.914062 -1.515625 4.34375 -1.515625 Z M 4.34375 -1.515625 "/></g></g></g><g fill="#000000" fill-opacity="1"><g transform="translate(466.00221, 48.786404)"><g><path d="M 1.125 -11.625 L 3.578125 -11.625 L 3.578125 0 L 1.125 0 Z M 1.125 -11.625 "/></g></g></g><g clip-path="url(#4b352c6405)"><g clip-path="url(#c0345c4061)"><path fill="#5a5a79" d="M 453.324219 80.3125 L 557.492188 80.3125 L 557.492188 92.976562 L 453.324219 92.976562 Z M 453.324219 80.3125 " fill-opacity="1" fill-rule="nonzero"/></g></g><g fill="#000000" fill-opacity="1"><g transform="translate(383.047541, 91.201326)"><g><path d="M 10.109375 -10.125 L 10.109375 0 L 9.21875 0 L 2.71875 -8.203125 L 2.71875 0 L 1.640625 0 L 1.640625 -10.125 L 2.53125 -10.125 L 9.046875 -1.90625 L 9.046875 -10.125 Z M 10.109375 -10.125 "/></g></g></g><g fill="#000000" fill-opacity="1"><g transform="translate(394.793365, 91.201326)"><g><path d="M 4.09375 -7.65625 C 5.082031 -7.65625 5.84375 -7.40625 6.375 -6.90625 C 6.90625 -6.414062 7.171875 -5.6875 7.171875 -4.71875 L 7.171875 0 L 6.1875 0 L 6.1875 -1.1875 C 5.957031 -0.789062 5.617188 -0.476562 5.171875 -0.25 C 4.722656 -0.03125 4.1875 0.078125 3.5625 0.078125 C 2.71875 0.078125 2.046875 -0.125 1.546875 -0.53125 C 1.046875 -0.9375 0.796875 -1.472656 0.796875 -2.140625 C 0.796875 -2.785156 1.03125 -3.304688 1.5 -3.703125 C 1.96875 -4.097656 2.710938 -4.296875 3.734375 -4.296875 L 6.140625 -4.296875 L 6.140625 -4.75 C 6.140625 -5.40625 5.957031 -5.90625 5.59375 -6.25 C 5.226562 -6.59375 4.691406 -6.765625 3.984375 -6.765625 C 3.503906 -6.765625 3.039062 -6.679688 2.59375 -6.515625 C 2.15625 -6.359375 1.773438 -6.144531 1.453125 -5.875 L 1 -6.640625 C 1.382812 -6.960938 1.84375 -7.210938 2.375 -7.390625 C 2.914062 -7.566406 3.488281 -7.65625 4.09375 -7.65625 Z M 3.734375 -0.734375 C 4.304688 -0.734375 4.800781 -0.863281 5.21875 -1.125 C 5.632812 -1.394531 5.941406 -1.78125 6.140625 -2.28125 L 6.140625 -3.53125 L 3.765625 -3.53125 C 2.460938 -3.53125 1.8125 -3.078125 1.8125 -2.171875 C 1.8125 -1.722656 1.976562 -1.367188 2.3125 -1.109375 C 2.644531 -0.859375 3.117188 -0.734375 3.734375 -0.734375 Z M 3.734375 -0.734375 "/></g></g></g><g fill="#000000" fill-opacity="1"><g transform="translate(403.317397, 91.201326)"><g><path d="M 10.90625 -7.65625 C 11.863281 -7.65625 12.613281 -7.378906 13.15625 -6.828125 C 13.695312 -6.285156 13.96875 -5.476562 13.96875 -4.40625 L 13.96875 0 L 12.953125 0 L 12.953125 -4.3125 C 12.953125 -5.101562 12.757812 -5.703125 12.375 -6.109375 C 12 -6.523438 11.460938 -6.734375 10.765625 -6.734375 C 9.972656 -6.734375 9.347656 -6.488281 8.890625 -6 C 8.441406 -5.519531 8.21875 -4.847656 8.21875 -3.984375 L 8.21875 0 L 7.203125 0 L 7.203125 -4.3125 C 7.203125 -5.101562 7.007812 -5.703125 6.625 -6.109375 C 6.25 -6.523438 5.707031 -6.734375 5 -6.734375 C 4.21875 -6.734375 3.597656 -6.488281 3.140625 -6 C 2.679688 -5.519531 2.453125 -4.847656 2.453125 -3.984375 L 2.453125 0 L 1.4375 0 L 1.4375 -7.609375 L 2.40625 -7.609375 L 2.40625 -6.21875 C 2.675781 -6.675781 3.050781 -7.03125 3.53125 -7.28125 C 4.019531 -7.53125 4.578125 -7.65625 5.203125 -7.65625 C 5.835938 -7.65625 6.390625 -7.519531 6.859375 -7.25 C 7.328125 -6.976562 7.675781 -6.582031 7.90625 -6.0625 C 8.1875 -6.5625 8.585938 -6.953125 9.109375 -7.234375 C 9.640625 -7.515625 10.238281 -7.65625 10.90625 -7.65625 Z M 10.90625 -7.65625 "/></g></g></g><g fill="#000000" fill-opacity="1"><g transform="translate(418.646202, 91.201326)"><g><path d="M 8.046875 -3.484375 L 1.6875 -3.484375 C 1.75 -2.691406 2.050781 -2.050781 2.59375 -1.5625 C 3.144531 -1.082031 3.84375 -0.84375 4.6875 -0.84375 C 5.15625 -0.84375 5.585938 -0.925781 5.984375 -1.09375 C 6.378906 -1.257812 6.722656 -1.503906 7.015625 -1.828125 L 7.59375 -1.171875 C 7.25 -0.765625 6.820312 -0.453125 6.3125 -0.234375 C 5.8125 -0.0234375 5.257812 0.078125 4.65625 0.078125 C 3.875 0.078125 3.179688 -0.0859375 2.578125 -0.421875 C 1.972656 -0.753906 1.503906 -1.210938 1.171875 -1.796875 C 0.835938 -2.390625 0.671875 -3.054688 0.671875 -3.796875 C 0.671875 -4.546875 0.832031 -5.210938 1.15625 -5.796875 C 1.476562 -6.378906 1.921875 -6.832031 2.484375 -7.15625 C 3.046875 -7.488281 3.675781 -7.65625 4.375 -7.65625 C 5.082031 -7.65625 5.710938 -7.488281 6.265625 -7.15625 C 6.828125 -6.832031 7.265625 -6.378906 7.578125 -5.796875 C 7.898438 -5.210938 8.0625 -4.546875 8.0625 -3.796875 Z M 4.375 -6.78125 C 3.644531 -6.78125 3.03125 -6.546875 2.53125 -6.078125 C 2.039062 -5.609375 1.757812 -5 1.6875 -4.25 L 7.078125 -4.25 C 7.015625 -5 6.734375 -5.609375 6.234375 -6.078125 C 5.742188 -6.546875 5.125 -6.78125 4.375 -6.78125 Z M 4.375 -6.78125 "/></g></g></g><g clip-path="url(#a6202dcf60)"><g clip-path="url(#83f7970fd0)"><path fill="#5a5a79" d="M 453.324219 115.675781 L 557.492188 115.675781 L 557.492188 128.34375 L 453.324219 128.34375 Z M 453.324219 115.675781 " fill-opacity="1" fill-rule="nonzero"/></g></g><g fill="#000000" fill-opacity="1"><g transform="translate(383.047541, 126.565578)"><g><path d="M 1.640625 -10.125 L 5.765625 -10.125 C 6.835938 -10.125 7.78125 -9.90625 8.59375 -9.46875 C 9.414062 -9.039062 10.050781 -8.441406 10.5 -7.671875 C 10.957031 -6.910156 11.1875 -6.039062 11.1875 -5.0625 C 11.1875 -4.070312 10.957031 -3.191406 10.5 -2.421875 C 10.050781 -1.660156 9.414062 -1.066406 8.59375 -0.640625 C 7.78125 -0.210938 6.835938 0 5.765625 0 L 1.640625 0 Z M 5.703125 -0.921875 C 6.585938 -0.921875 7.363281 -1.097656 8.03125 -1.453125 C 8.695312 -1.804688 9.210938 -2.289062 9.578125 -2.90625 C 9.941406 -3.53125 10.125 -4.25 10.125 -5.0625 C 10.125 -5.863281 9.941406 -6.578125 9.578125 -7.203125 C 9.210938 -7.828125 8.695312 -8.3125 8.03125 -8.65625 C 7.363281 -9.007812 6.585938 -9.1875 5.703125 -9.1875 L 2.71875 -9.1875 L 2.71875 -0.921875 Z M 5.703125 -0.921875 "/></g></g></g><g fill="#000000" fill-opacity="1"><g transform="translate(394.981188, 126.565578)"><g><path d="M 4.09375 -7.65625 C 5.082031 -7.65625 5.84375 -7.40625 6.375 -6.90625 C 6.90625 -6.414062 7.171875 -5.6875 7.171875 -4.71875 L 7.171875 0 L 6.1875 0 L 6.1875 -1.1875 C 5.957031 -0.789062 5.617188 -0.476562 5.171875 -0.25 C 4.722656 -0.03125 4.1875 0.078125 3.5625 0.078125 C 2.71875 0.078125 2.046875 -0.125 1.546875 -0.53125 C 1.046875 -0.9375 0.796875 -1.472656 0.796875 -2.140625 C 0.796875 -2.785156 1.03125 -3.304688 1.5 -3.703125 C 1.96875 -4.097656 2.710938 -4.296875 3.734375 -4.296875 L 6.140625 -4.296875 L 6.140625 -4.75 C 6.140625 -5.40625 5.957031 -5.90625 5.59375 -6.25 C 5.226562 -6.59375 4.691406 -6.765625 3.984375 -6.765625 C 3.503906 -6.765625 3.039062 -6.679688 2.59375 -6.515625 C 2.15625 -6.359375 1.773438 -6.144531 1.453125 -5.875 L 1 -6.640625 C 1.382812 -6.960938 1.84375 -7.210938 2.375 -7.390625 C 2.914062 -7.566406 3.488281 -7.65625 4.09375 -7.65625 Z M 3.734375 -0.734375 C 4.304688 -0.734375 4.800781 -0.863281 5.21875 -1.125 C 5.632812 -1.394531 5.941406 -1.78125 6.140625 -2.28125 L 6.140625 -3.53125 L 3.765625 -3.53125 C 2.460938 -3.53125 1.8125 -3.078125 1.8125 -2.171875 C 1.8125 -1.722656 1.976562 -1.367188 2.3125 -1.109375 C 2.644531 -0.859375 3.117188 -0.734375 3.734375 -0.734375 Z M 3.734375 -0.734375 "/></g></g></g><g fill="#000000" fill-opacity="1"><g transform="translate(403.505219, 126.565578)"><g><path d="M 5.4375 -0.46875 C 5.238281 -0.289062 5 -0.15625 4.71875 -0.0625 C 4.4375 0.03125 4.140625 0.078125 3.828125 0.078125 C 3.117188 0.078125 2.570312 -0.113281 2.1875 -0.5 C 1.800781 -0.882812 1.609375 -1.429688 1.609375 -2.140625 L 1.609375 -6.734375 L 0.25 -6.734375 L 0.25 -7.609375 L 1.609375 -7.609375 L 1.609375 -9.265625 L 2.625 -9.265625 L 2.625 -7.609375 L 4.9375 -7.609375 L 4.9375 -6.734375 L 2.625 -6.734375 L 2.625 -2.203125 C 2.625 -1.742188 2.738281 -1.394531 2.96875 -1.15625 C 3.195312 -0.925781 3.523438 -0.8125 3.953125 -0.8125 C 4.160156 -0.8125 4.363281 -0.84375 4.5625 -0.90625 C 4.757812 -0.976562 4.929688 -1.078125 5.078125 -1.203125 Z M 5.4375 -0.46875 "/></g></g></g><g fill="#000000" fill-opacity="1"><g transform="translate(409.37091, 126.565578)"><g><path d="M 8.046875 -3.484375 L 1.6875 -3.484375 C 1.75 -2.691406 2.050781 -2.050781 2.59375 -1.5625 C 3.144531 -1.082031 3.84375 -0.84375 4.6875 -0.84375 C 5.15625 -0.84375 5.585938 -0.925781 5.984375 -1.09375 C 6.378906 -1.257812 6.722656 -1.503906 7.015625 -1.828125 L 7.59375 -1.171875 C 7.25 -0.765625 6.820312 -0.453125 6.3125 -0.234375 C 5.8125 -0.0234375 5.257812 0.078125 4.65625 0.078125 C 3.875 0.078125 3.179688 -0.0859375 2.578125 -0.421875 C 1.972656 -0.753906 1.503906 -1.210938 1.171875 -1.796875 C 0.835938 -2.390625 0.671875 -3.054688 0.671875 -3.796875 C 0.671875 -4.546875 0.832031 -5.210938 1.15625 -5.796875 C 1.476562 -6.378906 1.921875 -6.832031 2.484375 -7.15625 C 3.046875 -7.488281 3.675781 -7.65625 4.375 -7.65625 C 5.082031 -7.65625 5.710938 -7.488281 6.265625 -7.15625 C 6.828125 -6.832031 7.265625 -6.378906 7.578125 -5.796875 C 7.898438 -5.210938 8.0625 -4.546875 8.0625 -3.796875 Z M 4.375 -6.78125 C 3.644531 -6.78125 3.03125 -6.546875 2.53125 -6.078125 C 2.039062 -5.609375 1.757812 -5 1.6875 -4.25 L 7.078125 -4.25 C 7.015625 -5 6.734375 -5.609375 6.234375 -6.078125 C 5.742188 -6.546875 5.125 -6.78125 4.375 -6.78125 Z M 4.375 -6.78125 "/></g></g></g><g clip-path="url(#470130aaf0)"><g clip-path="url(#4c1bf12bc1)"><path fill="#5a5a79" d="M 453.324219 151.042969 L 557.492188 151.042969 L 557.492188 163.707031 L 453.324219 163.707031 Z M 453.324219 151.042969 " fill-opacity="1" fill-rule="nonzero"/></g></g><g fill="#000000" fill-opacity="1"><g transform="translate(383.047541, 161.929838)"><g><path d="M 8 -2.703125 L 2.359375 -2.703125 L 1.140625 0 L 0.03125 0 L 4.65625 -10.125 L 5.703125 -10.125 L 10.328125 0 L 9.203125 0 Z M 7.609375 -3.5625 L 5.171875 -9 L 2.75 -3.5625 Z M 7.609375 -3.5625 "/></g></g></g><g fill="#000000" fill-opacity="1"><g transform="translate(393.406411, 161.929838)"><g><path d="M 10.90625 -7.65625 C 11.863281 -7.65625 12.613281 -7.378906 13.15625 -6.828125 C 13.695312 -6.285156 13.96875 -5.476562 13.96875 -4.40625 L 13.96875 0 L 12.953125 0 L 12.953125 -4.3125 C 12.953125 -5.101562 12.757812 -5.703125 12.375 -6.109375 C 12 -6.523438 11.460938 -6.734375 10.765625 -6.734375 C 9.972656 -6.734375 9.347656 -6.488281 8.890625 -6 C 8.441406 -5.519531 8.21875 -4.847656 8.21875 -3.984375 L 8.21875 0 L 7.203125 0 L 7.203125 -4.3125 C 7.203125 -5.101562 7.007812 -5.703125 6.625 -6.109375 C 6.25 -6.523438 5.707031 -6.734375 5 -6.734375 C 4.21875 -6.734375 3.597656 -6.488281 3.140625 -6 C 2.679688 -5.519531 2.453125 -4.847656 2.453125 -3.984375 L 2.453125 0 L 1.4375 0 L 1.4375 -7.609375 L 2.40625 -7.609375 L 2.40625 -6.21875 C 2.675781 -6.675781 3.050781 -7.03125 3.53125 -7.28125 C 4.019531 -7.53125 4.578125 -7.65625 5.203125 -7.65625 C 5.835938 -7.65625 6.390625 -7.519531 6.859375 -7.25 C 7.328125 -6.976562 7.675781 -6.582031 7.90625 -6.0625 C 8.1875 -6.5625 8.585938 -6.953125 9.109375 -7.234375 C 9.640625 -7.515625 10.238281 -7.65625 10.90625 -7.65625 Z M 10.90625 -7.65625 "/></g></g></g><g fill="#000000" fill-opacity="1"><g transform="translate(408.735216, 161.929838)"><g><path d="M 4.53125 0.078125 C 3.800781 0.078125 3.140625 -0.0859375 2.546875 -0.421875 C 1.960938 -0.753906 1.503906 -1.210938 1.171875 -1.796875 C 0.835938 -2.390625 0.671875 -3.054688 0.671875 -3.796875 C 0.671875 -4.546875 0.835938 -5.210938 1.171875 -5.796875 C 1.503906 -6.378906 1.960938 -6.832031 2.546875 -7.15625 C 3.140625 -7.488281 3.800781 -7.65625 4.53125 -7.65625 C 5.269531 -7.65625 5.929688 -7.488281 6.515625 -7.15625 C 7.109375 -6.832031 7.566406 -6.378906 7.890625 -5.796875 C 8.222656 -5.210938 8.390625 -4.546875 8.390625 -3.796875 C 8.390625 -3.054688 8.222656 -2.390625 7.890625 -1.796875 C 7.566406 -1.210938 7.109375 -0.753906 6.515625 -0.421875 C 5.929688 -0.0859375 5.269531 0.078125 4.53125 0.078125 Z M 4.53125 -0.84375 C 5.070312 -0.84375 5.554688 -0.960938 5.984375 -1.203125 C 6.421875 -1.453125 6.757812 -1.800781 7 -2.25 C 7.238281 -2.707031 7.359375 -3.222656 7.359375 -3.796875 C 7.359375 -4.378906 7.238281 -4.894531 7 -5.34375 C 6.757812 -5.800781 6.421875 -6.148438 5.984375 -6.390625 C 5.554688 -6.640625 5.070312 -6.765625 4.53125 -6.765625 C 4 -6.765625 3.515625 -6.640625 3.078125 -6.390625 C 2.648438 -6.148438 2.3125 -5.800781 2.0625 -5.34375 C 1.820312 -4.894531 1.703125 -4.378906 1.703125 -3.796875 C 1.703125 -3.222656 1.820312 -2.707031 2.0625 -2.25 C 2.3125 -1.800781 2.648438 -1.453125 3.078125 -1.203125 C 3.515625 -0.960938 4 -0.84375 4.53125 -0.84375 Z M 4.53125 -0.84375 "/></g></g></g><g fill="#000000" fill-opacity="1"><g transform="translate(417.793801, 161.929838)"><g><path d="M 8.28125 -7.609375 L 8.28125 0 L 7.296875 0 L 7.296875 -1.390625 C 7.023438 -0.921875 6.65625 -0.554688 6.1875 -0.296875 C 5.71875 -0.046875 5.175781 0.078125 4.5625 0.078125 C 3.570312 0.078125 2.789062 -0.195312 2.21875 -0.75 C 1.644531 -1.3125 1.359375 -2.125 1.359375 -3.1875 L 1.359375 -7.609375 L 2.390625 -7.609375 L 2.390625 -3.296875 C 2.390625 -2.492188 2.582031 -1.882812 2.96875 -1.46875 C 3.363281 -1.0625 3.929688 -0.859375 4.671875 -0.859375 C 5.472656 -0.859375 6.101562 -1.097656 6.5625 -1.578125 C 7.019531 -2.066406 7.25 -2.742188 7.25 -3.609375 L 7.25 -7.609375 Z M 8.28125 -7.609375 "/></g></g></g><g fill="#000000" fill-opacity="1"><g transform="translate(427.516979, 161.929838)"><g><path d="M 5.296875 -7.65625 C 6.253906 -7.65625 7.015625 -7.378906 7.578125 -6.828125 C 8.140625 -6.273438 8.421875 -5.46875 8.421875 -4.40625 L 8.421875 0 L 7.40625 0 L 7.40625 -4.3125 C 7.40625 -5.101562 7.207031 -5.703125 6.8125 -6.109375 C 6.414062 -6.523438 5.847656 -6.734375 5.109375 -6.734375 C 4.296875 -6.734375 3.648438 -6.488281 3.171875 -6 C 2.691406 -5.519531 2.453125 -4.847656 2.453125 -3.984375 L 2.453125 0 L 1.4375 0 L 1.4375 -7.609375 L 2.40625 -7.609375 L 2.40625 -6.203125 C 2.6875 -6.660156 3.078125 -7.015625 3.578125 -7.265625 C 4.078125 -7.523438 4.648438 -7.65625 5.296875 -7.65625 Z M 5.296875 -7.65625 "/></g></g></g><g fill="#000000" fill-opacity="1"><g transform="translate(437.29794, 161.929838)"><g><path d="M 5.4375 -0.46875 C 5.238281 -0.289062 5 -0.15625 4.71875 -0.0625 C 4.4375 0.03125 4.140625 0.078125 3.828125 0.078125 C 3.117188 0.078125 2.570312 -0.113281 2.1875 -0.5 C 1.800781 -0.882812 1.609375 -1.429688 1.609375 -2.140625 L 1.609375 -6.734375 L 0.25 -6.734375 L 0.25 -7.609375 L 1.609375 -7.609375 L 1.609375 -9.265625 L 2.625 -9.265625 L 2.625 -7.609375 L 4.9375 -7.609375 L 4.9375 -6.734375 L 2.625 -6.734375 L 2.625 -2.203125 C 2.625 -1.742188 2.738281 -1.394531 2.96875 -1.15625 C 3.195312 -0.925781 3.523438 -0.8125 3.953125 -0.8125 C 4.160156 -0.8125 4.363281 -0.84375 4.5625 -0.90625 C 4.757812 -0.976562 4.929688 -1.078125 5.078125 -1.203125 Z M 5.4375 -0.46875 "/></g></g></g><g clip-path="url(#58e3149f74)"><g clip-path="url(#05b2f3d03a)"><path fill="#ffffff" d="M 383.046875 184.167969 L 557.492188 184.167969 L 557.492188 258.523438 L 383.046875 258.523438 Z M 383.046875 184.167969 " fill-opacity="1" fill-rule="nonzero"/></g></g><g clip-path="url(#f6d889a12c)"><g clip-path="url(#71f631c0ef)"><path stroke-linecap="butt" transform="matrix(0.75136, 0, 0, 0.748936, 383.047541, 184.168261)" fill="none" stroke-linejoin="miter" d="M 5.000459 -0.000389786 L 227.575915 -0.000389786 C 228.906834 -0.000389786 230.175366 0.526399 231.111169 1.465231 C 232.052171 2.404063 232.57726 3.671485 232.57726 5.001497 L 232.57726 94.138354 C 232.57726 95.46315 232.052171 96.735788 231.111169 97.669404 C 230.175366 98.608236 228.906834 99.135025 227.575915 99.135025 L 5.000459 99.135025 C 3.674738 99.135025 2.401007 98.608236 1.465204 97.669404 C 0.524203 96.735788 -0.000886633 95.46315 -0.000886633 94.138354 L -0.000886633 5.001497 C -0.000886633 3.671485 0.524203 2.404063 1.465204 1.465231 C 2.401007 0.526399 3.674738 -0.000389786 5.000459 -0.000389786 Z M 5.000459 -0.000389786 " stroke="#b0b7c2" stroke-width="4" stroke-opacity="1" stroke-miterlimit="4"/></g></g><g clip-path="url(#c127ad117d)"><g clip-path="url(#3cf0f2b0be)"><path fill="#b0b7c2" d="M 389.515625 198.113281 L 550.625 198.113281 L 550.625 204.183594 L 389.515625 204.183594 Z M 389.515625 198.113281 " fill-opacity="1" fill-rule="nonzero"/></g></g><g clip-path="url(#d06e5f002f)"><g clip-path="url(#dcf1600d48)"><path fill="#b0b7c2" d="M 389.515625 211.085938 L 550.625 211.085938 L 550.625 217.15625 L 389.515625 217.15625 Z M 389.515625 211.085938 " fill-opacity="1" fill-rule="nonzero"/></g></g><g clip-path="url(#d9080bee60)"><g clip-path="url(#f38435469d)"><path fill="#b0b7c2" d="M 389.515625 224.0625 L 550.625 224.0625 L 550.625 230.128906 L 389.515625 230.128906 Z M 389.515625 224.0625 " fill-opacity="1" fill-rule="nonzero"/></g></g><g clip-path="url(#ad142d62d0)"><g clip-path="url(#07d4f5a323)"><path fill="#b0b7c2" d="M 389.515625 237.035156 L 463.207031 237.035156 L 463.207031 243.105469 L 389.515625 243.105469 Z M 389.515625 237.035156 " fill-opacity="1" fill-rule="nonzero"/></g></g></svg>