<svg xmlns="http://www.w3.org/2000/svg" xmlns:xlink="http://www.w3.org/1999/xlink" width="1366" zoomAndPan="magnify" viewBox="0 0 1024.5 221.249992" height="768" preserveAspectRatio="xMidYMid meet" version="1.0"><defs><clipPath id="94df60a11a"><path d="M 796.371094 7.648438 L 1022.519531 7.648438 L 1022.519531 220.503906 L 796.371094 220.503906 Z M 796.371094 7.648438 " clip-rule="nonzero"/></clipPath><clipPath id="83779a3f3f"><path d="M 804.597656 7.648438 L 1014.792969 7.648438 C 1016.972656 7.648438 1019.066406 8.515625 1020.609375 10.058594 C 1022.152344 11.597656 1023.019531 13.691406 1023.019531 15.875 L 1023.019531 212.4375 C 1023.019531 214.617188 1022.152344 216.710938 1020.609375 218.253906 C 1019.066406 219.796875 1016.972656 220.664062 1014.792969 220.664062 L 804.597656 220.664062 C 802.417969 220.664062 800.324219 219.796875 798.78125 218.253906 C 797.238281 216.710938 796.371094 214.617188 796.371094 212.4375 L 796.371094 15.875 C 796.371094 13.691406 797.238281 11.597656 798.78125 10.058594 C 800.324219 8.515625 802.417969 7.648438 804.597656 7.648438 Z M 804.597656 7.648438 " clip-rule="nonzero"/></clipPath><clipPath id="f8489b2579"><path d="M 800.980469 0 L 1018.410156 0 L 1018.410156 213.945312 L 800.980469 213.945312 Z M 800.980469 0 " clip-rule="nonzero"/></clipPath><clipPath id="8326ea61ab"><path d="M 809.207031 0 L 1010.183594 0 C 1012.367188 0 1014.457031 0.867188 1016 2.410156 C 1017.542969 3.953125 1018.410156 6.042969 1018.410156 8.226562 L 1018.410156 205.71875 C 1018.410156 207.902344 1017.542969 209.992188 1016 211.535156 C 1014.457031 213.078125 1012.367188 213.945312 1010.183594 213.945312 L 809.207031 213.945312 C 807.023438 213.945312 804.933594 213.078125 803.390625 211.535156 C 801.847656 209.992188 800.980469 207.902344 800.980469 205.71875 L 800.980469 8.226562 C 800.980469 6.042969 801.847656 3.953125 803.390625 2.410156 C 804.933594 0.867188 807.023438 0 809.207031 0 Z M 809.207031 0 " clip-rule="nonzero"/></clipPath><clipPath id="6f66688ef7"><path d="M 800.980469 0 L 1018.597656 0 L 1018.597656 213.878906 L 800.980469 213.878906 Z M 800.980469 0 " clip-rule="nonzero"/></clipPath><clipPath id="79e0702596"><path d="M 809.214844 0 L 1010.367188 0 C 1012.550781 0 1014.644531 0.867188 1016.1875 2.410156 C 1017.730469 3.953125 1018.597656 6.042969 1018.597656 8.226562 L 1018.597656 205.65625 C 1018.597656 207.835938 1017.730469 209.925781 1016.1875 211.46875 C 1014.644531 213.011719 1012.550781 213.878906 1010.367188 213.878906 L 809.214844 213.878906 C 807.03125 213.878906 804.9375 213.011719 803.390625 211.46875 C 801.847656 209.925781 800.980469 207.835938 800.980469 205.65625 L 800.980469 8.226562 C 800.980469 6.042969 801.847656 3.953125 803.390625 2.410156 C 804.9375 0.867188 807.03125 0 809.214844 0 Z M 809.214844 0 " clip-rule="nonzero"/></clipPath><clipPath id="147ef99005"><path d="M 835.039062 51 L 973 51 L 973 138 L 835.039062 138 Z M 835.039062 51 " clip-rule="nonzero"/></clipPath><clipPath id="26d60e741f"><path d="M 866 37.914062 L 940 37.914062 L 940 155 L 866 155 Z M 866 37.914062 " clip-rule="nonzero"/></clipPath><clipPath id="2c47d01214"><path d="M 877 39 L 984.605469 39 L 984.605469 155 L 877 155 Z M 877 39 " clip-rule="nonzero"/></clipPath><clipPath id="c4722945f8"><path d="M 835.039062 97 L 973 97 L 973 176.265625 L 835.039062 176.265625 Z M 835.039062 97 " clip-rule="nonzero"/></clipPath><clipPath id="9267a429d7"><path d="M 835.039062 137 L 973 137 L 973 176.265625 L 835.039062 176.265625 Z M 835.039062 137 " clip-rule="nonzero"/></clipPath><clipPath id="073506109d"><path d="M 531.410156 7.648438 L 758.054688 7.648438 L 758.054688 220.503906 L 531.410156 220.503906 Z M 531.410156 7.648438 " clip-rule="nonzero"/></clipPath><clipPath id="3fa6989eda"><path d="M 539.632812 7.648438 L 749.828125 7.648438 C 752.011719 7.648438 754.101562 8.515625 755.644531 10.058594 C 757.1875 11.597656 758.054688 13.691406 758.054688 15.875 L 758.054688 212.4375 C 758.054688 214.617188 757.1875 216.710938 755.644531 218.253906 C 754.101562 219.796875 752.011719 220.664062 749.828125 220.664062 L 539.632812 220.664062 C 537.453125 220.664062 535.359375 219.796875 533.816406 218.253906 C 532.273438 216.710938 531.410156 214.617188 531.410156 212.4375 L 531.410156 15.875 C 531.410156 13.691406 532.273438 11.597656 533.816406 10.058594 C 535.359375 8.515625 537.453125 7.648438 539.632812 7.648438 Z M 539.632812 7.648438 " clip-rule="nonzero"/></clipPath><clipPath id="43f280d178"><path d="M 536.015625 0 L 753.445312 0 L 753.445312 213.945312 L 536.015625 213.945312 Z M 536.015625 0 " clip-rule="nonzero"/></clipPath><clipPath id="1cf9da1f0e"><path d="M 544.242188 0 L 745.222656 0 C 747.402344 0 749.496094 0.867188 751.039062 2.410156 C 752.582031 3.953125 753.445312 6.042969 753.445312 8.226562 L 753.445312 205.71875 C 753.445312 207.902344 752.582031 209.992188 751.039062 211.535156 C 749.496094 213.078125 747.402344 213.945312 745.222656 213.945312 L 544.242188 213.945312 C 542.0625 213.945312 539.96875 213.078125 538.425781 211.535156 C 536.882812 209.992188 536.015625 207.902344 536.015625 205.71875 L 536.015625 8.226562 C 536.015625 6.042969 536.882812 3.953125 538.425781 2.410156 C 539.96875 0.867188 542.0625 0 544.242188 0 Z M 544.242188 0 " clip-rule="nonzero"/></clipPath><clipPath id="2f74c7d655"><path d="M 536.015625 0 L 753.636719 0 L 753.636719 213.878906 L 536.015625 213.878906 Z M 536.015625 0 " clip-rule="nonzero"/></clipPath><clipPath id="660f7c2fda"><path d="M 544.25 0 L 745.402344 0 C 747.585938 0 749.679688 0.867188 751.222656 2.410156 C 752.769531 3.953125 753.636719 6.042969 753.636719 8.226562 L 753.636719 205.65625 C 753.636719 207.835938 752.769531 209.925781 751.222656 211.46875 C 749.679688 213.011719 747.585938 213.878906 745.402344 213.878906 L 544.25 213.878906 C 542.066406 213.878906 539.972656 213.011719 538.429688 211.46875 C 536.882812 209.925781 536.015625 207.835938 536.015625 205.65625 L 536.015625 8.226562 C 536.015625 6.042969 536.882812 3.953125 538.429688 2.410156 C 539.972656 0.867188 542.066406 0 544.25 0 Z M 544.25 0 " clip-rule="nonzero"/></clipPath><clipPath id="26177714e0"><path d="M 266.445312 7.648438 L 493.089844 7.648438 L 493.089844 220.503906 L 266.445312 220.503906 Z M 266.445312 7.648438 " clip-rule="nonzero"/></clipPath><clipPath id="37cd9eef91"><path d="M 274.671875 7.648438 L 484.863281 7.648438 C 487.046875 7.648438 489.140625 8.515625 490.683594 10.058594 C 492.226562 11.597656 493.089844 13.691406 493.089844 15.875 L 493.089844 212.4375 C 493.089844 214.617188 492.226562 216.710938 490.683594 218.253906 C 489.140625 219.796875 487.046875 220.664062 484.863281 220.664062 L 274.671875 220.664062 C 272.488281 220.664062 270.398438 219.796875 268.855469 218.253906 C 267.3125 216.710938 266.445312 214.617188 266.445312 212.4375 L 266.445312 15.875 C 266.445312 13.691406 267.3125 11.597656 268.855469 10.058594 C 270.398438 8.515625 272.488281 7.648438 274.671875 7.648438 Z M 274.671875 7.648438 " clip-rule="nonzero"/></clipPath><clipPath id="7011fbf03e"><path d="M 271.054688 0 L 488.484375 0 L 488.484375 213.945312 L 271.054688 213.945312 Z M 271.054688 0 " clip-rule="nonzero"/></clipPath><clipPath id="8bebb81a1c"><path d="M 279.277344 0 L 480.257812 0 C 482.4375 0 484.53125 0.867188 486.074219 2.410156 C 487.617188 3.953125 488.484375 6.042969 488.484375 8.226562 L 488.484375 205.71875 C 488.484375 207.902344 487.617188 209.992188 486.074219 211.535156 C 484.53125 213.078125 482.4375 213.945312 480.257812 213.945312 L 279.277344 213.945312 C 277.097656 213.945312 275.003906 213.078125 273.460938 211.535156 C 271.917969 209.992188 271.054688 207.902344 271.054688 205.71875 L 271.054688 8.226562 C 271.054688 6.042969 271.917969 3.953125 273.460938 2.410156 C 275.003906 0.867188 277.097656 0 279.277344 0 Z M 279.277344 0 " clip-rule="nonzero"/></clipPath><clipPath id="82b9383f5d"><path d="M 271.054688 0 L 488.671875 0 L 488.671875 213.878906 L 271.054688 213.878906 Z M 271.054688 0 " clip-rule="nonzero"/></clipPath><clipPath id="f0d729f4f2"><path d="M 279.285156 0 L 480.4375 0 C 482.621094 0 484.714844 0.867188 486.261719 2.410156 C 487.804688 3.953125 488.671875 6.042969 488.671875 8.226562 L 488.671875 205.65625 C 488.671875 207.835938 487.804688 209.925781 486.261719 211.46875 C 484.714844 213.011719 482.621094 213.878906 480.4375 213.878906 L 279.285156 213.878906 C 277.101562 213.878906 275.007812 213.011719 273.464844 211.46875 C 271.921875 209.925781 271.054688 207.835938 271.054688 205.65625 L 271.054688 8.226562 C 271.054688 6.042969 271.921875 3.953125 273.464844 2.410156 C 275.007812 0.867188 277.101562 0 279.285156 0 Z M 279.285156 0 " clip-rule="nonzero"/></clipPath><clipPath id="3347126972"><path d="M 309 60 L 451 60 L 451 153 L 309 153 Z M 309 60 " clip-rule="nonzero"/></clipPath><clipPath id="324f274d71"><path d="M 338.234375 6.980469 L 484.695312 80.269531 L 421.445312 206.667969 L 274.984375 133.378906 Z M 338.234375 6.980469 " clip-rule="nonzero"/></clipPath><clipPath id="5f0013a9a8"><path d="M 338.234375 6.980469 L 484.695312 80.269531 L 421.445312 206.667969 L 274.984375 133.378906 Z M 338.234375 6.980469 " clip-rule="nonzero"/></clipPath><clipPath id="b9d4065d0e"><path d="M 309 119 L 451 119 L 451 135 L 309 135 Z M 309 119 " clip-rule="nonzero"/></clipPath><clipPath id="00d54be0f7"><path d="M 338.234375 6.980469 L 484.695312 80.269531 L 421.445312 206.667969 L 274.984375 133.378906 Z M 338.234375 6.980469 " clip-rule="nonzero"/></clipPath><clipPath id="1876a9de7e"><path d="M 338.234375 6.980469 L 484.695312 80.269531 L 421.445312 206.667969 L 274.984375 133.378906 Z M 338.234375 6.980469 " clip-rule="nonzero"/></clipPath><clipPath id="5d4f19762d"><path d="M 322 78 L 357 78 L 357 100 L 322 100 Z M 322 78 " clip-rule="nonzero"/></clipPath><clipPath id="be720e4725"><path d="M 338.234375 6.980469 L 484.695312 80.269531 L 421.445312 206.667969 L 274.984375 133.378906 Z M 338.234375 6.980469 " clip-rule="nonzero"/></clipPath><clipPath id="f6b1c1d656"><path d="M 338.234375 6.980469 L 484.695312 80.269531 L 421.445312 206.667969 L 274.984375 133.378906 Z M 338.234375 6.980469 " clip-rule="nonzero"/></clipPath><clipPath id="8140cab36c"><path d="M 383 78 L 434 78 L 434 85 L 383 85 Z M 383 78 " clip-rule="nonzero"/></clipPath><clipPath id="e21c8f52dd"><path d="M 338.234375 6.980469 L 484.695312 80.269531 L 421.445312 206.667969 L 274.984375 133.378906 Z M 338.234375 6.980469 " clip-rule="nonzero"/></clipPath><clipPath id="2f6c2112e9"><path d="M 338.234375 6.980469 L 484.695312 80.269531 L 421.445312 206.667969 L 274.984375 133.378906 Z M 338.234375 6.980469 " clip-rule="nonzero"/></clipPath><clipPath id="a333f2821d"><path d="M 383 93 L 434 93 L 434 100 L 383 100 Z M 383 93 " clip-rule="nonzero"/></clipPath><clipPath id="ddf84fddf8"><path d="M 338.234375 6.980469 L 484.695312 80.269531 L 421.445312 206.667969 L 274.984375 133.378906 Z M 338.234375 6.980469 " clip-rule="nonzero"/></clipPath><clipPath id="a42214dcbe"><path d="M 338.234375 6.980469 L 484.695312 80.269531 L 421.445312 206.667969 L 274.984375 133.378906 Z M 338.234375 6.980469 " clip-rule="nonzero"/></clipPath><clipPath id="bc07e4d06d"><path d="M 1.480469 7.648438 L 228.128906 7.648438 L 228.128906 220.503906 L 1.480469 220.503906 Z M 1.480469 7.648438 " clip-rule="nonzero"/></clipPath><clipPath id="f14563641a"><path d="M 9.707031 7.648438 L 219.902344 7.648438 C 222.082031 7.648438 224.175781 8.515625 225.71875 10.058594 C 227.261719 11.597656 228.128906 13.691406 228.128906 15.875 L 228.128906 212.4375 C 228.128906 214.617188 227.261719 216.710938 225.71875 218.253906 C 224.175781 219.796875 222.082031 220.664062 219.902344 220.664062 L 9.707031 220.664062 C 7.527344 220.664062 5.433594 219.796875 3.890625 218.253906 C 2.347656 216.710938 1.480469 214.617188 1.480469 212.4375 L 1.480469 15.875 C 1.480469 13.691406 2.347656 11.597656 3.890625 10.058594 C 5.433594 8.515625 7.527344 7.648438 9.707031 7.648438 Z M 9.707031 7.648438 " clip-rule="nonzero"/></clipPath><clipPath id="bd5de766cc"><path d="M 6.089844 0 L 223.519531 0 L 223.519531 213.945312 L 6.089844 213.945312 Z M 6.089844 0 " clip-rule="nonzero"/></clipPath><clipPath id="3dcc282b3b"><path d="M 14.316406 0 L 215.292969 0 C 217.476562 0 219.566406 0.867188 221.109375 2.410156 C 222.652344 3.953125 223.519531 6.042969 223.519531 8.226562 L 223.519531 205.71875 C 223.519531 207.902344 222.652344 209.992188 221.109375 211.535156 C 219.566406 213.078125 217.476562 213.945312 215.292969 213.945312 L 14.316406 213.945312 C 12.132812 213.945312 10.042969 213.078125 8.5 211.535156 C 6.957031 209.992188 6.089844 207.902344 6.089844 205.71875 L 6.089844 8.226562 C 6.089844 6.042969 6.957031 3.953125 8.5 2.410156 C 10.042969 0.867188 12.132812 0 14.316406 0 Z M 14.316406 0 " clip-rule="nonzero"/></clipPath><clipPath id="dd3c9445bb"><path d="M 6.089844 0 L 223.707031 0 L 223.707031 213.878906 L 6.089844 213.878906 Z M 6.089844 0 " clip-rule="nonzero"/></clipPath><clipPath id="f55889517f"><path d="M 14.324219 0 L 215.476562 0 C 217.660156 0 219.753906 0.867188 221.296875 2.410156 C 222.839844 3.953125 223.707031 6.042969 223.707031 8.226562 L 223.707031 205.65625 C 223.707031 207.835938 222.839844 209.925781 221.296875 211.46875 C 219.753906 213.011719 217.660156 213.878906 215.476562 213.878906 L 14.324219 213.878906 C 12.140625 213.878906 10.042969 213.011719 8.5 211.46875 C 6.957031 209.925781 6.089844 207.835938 6.089844 205.65625 L 6.089844 8.226562 C 6.089844 6.042969 6.957031 3.953125 8.5 2.410156 C 10.042969 0.867188 12.140625 0 14.324219 0 Z M 14.324219 0 " clip-rule="nonzero"/></clipPath><clipPath id="6846040b88"><path d="M 28.722656 62.210938 L 200.722656 62.210938 L 200.722656 151.949219 L 28.722656 151.949219 Z M 28.722656 62.210938 " clip-rule="nonzero"/></clipPath></defs><g clip-path="url(#94df60a11a)"><g clip-path="url(#83779a3f3f)"><path fill="#9e9eb0" d="M 796.371094 7.648438 L 1023.019531 7.648438 L 1023.019531 220.664062 L 796.371094 220.664062 Z M 796.371094 7.648438 " fill-opacity="1" fill-rule="nonzero"/></g></g><g clip-path="url(#f8489b2579)"><g clip-path="url(#8326ea61ab)"><path fill="#ffffff" d="M 800.980469 0 L 1018.410156 0 L 1018.410156 213.945312 L 800.980469 213.945312 Z M 800.980469 0 " fill-opacity="1" fill-rule="nonzero"/></g></g><g clip-path="url(#6f66688ef7)"><g clip-path="url(#79e0702596)"><path stroke-linecap="butt" transform="matrix(0.748514, 0, 0, 0.747627, 800.980066, 0.00130407)" fill="none" stroke-linejoin="miter" d="M 11.0015 -0.00174427 L 279.737046 -0.00174427 C 282.654284 -0.00174427 285.451492 1.158176 287.512868 3.221999 C 289.574244 5.285822 290.732789 8.081126 290.732789 11.001827 L 290.732789 275.077092 C 290.732789 277.992568 289.574244 280.787872 287.512868 282.851695 C 285.451492 284.915518 282.654284 286.075438 279.737046 286.075438 L 11.0015 286.075438 C 8.084262 286.075438 5.287053 284.915518 3.220459 282.851695 C 1.159083 280.787872 0.000537916 277.992568 0.000537916 275.077092 L 0.000537916 11.001827 C 0.000537916 8.081126 1.159083 5.285822 3.220459 3.221999 C 5.287053 1.158176 8.084262 -0.00174427 11.0015 -0.00174427 Z M 11.0015 -0.00174427 " stroke="#cfd3db" stroke-width="8" stroke-opacity="1" stroke-miterlimit="4"/></g></g><g clip-path="url(#147ef99005)"><path fill="#f48323" d="M 835.097656 97.816406 L 903.65625 51.144531 L 972.207031 98.121094 L 903.648438 137.03125 L 835.089844 97.816406 " fill-opacity="1" fill-rule="nonzero"/></g><path fill="#63a335" d="M 888.585938 49.015625 C 889.179688 48.867188 889.777344 49.222656 889.921875 49.8125 L 916.039062 153.183594 C 916.1875 153.769531 915.832031 154.371094 915.242188 154.519531 L 868.667969 166.289062 C 868.074219 166.4375 867.476562 166.078125 867.332031 165.484375 L 841.21875 62.121094 C 841.066406 61.527344 841.421875 60.929688 842.015625 60.785156 L 888.585938 49.015625 " fill-opacity="1" fill-rule="nonzero"/><path fill="#7fcb4a" d="M 885.859375 55.4375 C 886.347656 55.320312 886.847656 55.648438 886.988281 56.175781 L 910.425781 148.976562 C 910.558594 149.507812 910.277344 150.042969 909.789062 150.160156 L 871.394531 159.867188 C 870.914062 159.984375 870.40625 159.65625 870.273438 159.125 L 846.828125 66.324219 C 846.6875 65.796875 846.980469 65.261719 847.464844 65.136719 L 885.859375 55.4375 " fill-opacity="1" fill-rule="nonzero"/><path fill="#63a335" d="M 875.238281 94.230469 C 882.648438 92.351562 890.179688 96.84375 892.050781 104.257812 C 893.925781 111.671875 889.4375 119.207031 882.023438 121.074219 C 874.601562 122.953125 867.074219 118.457031 865.203125 111.039062 C 863.328125 103.625 867.820312 96.097656 875.238281 94.230469 " fill-opacity="1" fill-rule="nonzero"/><path fill="#63a335" d="M 871.394531 159.867188 L 881.796875 157.234375 C 880.222656 150.996094 873.894531 147.226562 867.667969 148.796875 L 870.273438 159.125 C 870.40625 159.65625 870.914062 159.984375 871.394531 159.867188 " fill-opacity="1" fill-rule="nonzero"/><path fill="#70b646" d="M 910.445312 149.0625 L 907.820312 138.652344 C 901.585938 140.230469 897.8125 146.558594 899.386719 152.796875 L 909.710938 150.179688 C 910.242188 150.050781 910.574219 149.550781 910.445312 149.0625 " fill-opacity="1" fill-rule="nonzero"/><path fill="#63a335" d="M 847.464844 65.136719 L 857.871094 62.511719 C 859.449219 68.746094 855.671875 75.074219 849.433594 76.648438 L 846.828125 66.324219 C 846.6875 65.796875 846.980469 65.261719 847.464844 65.136719 " fill-opacity="1" fill-rule="nonzero"/><path fill="#63a335" d="M 886.960938 56.097656 L 889.59375 66.5 C 883.359375 68.074219 877.03125 64.300781 875.457031 58.066406 L 885.78125 55.457031 C 886.308594 55.324219 886.839844 55.609375 886.960938 56.097656 " fill-opacity="1" fill-rule="nonzero"/><g clip-path="url(#26d60e741f)"><path fill="#70b646" d="M 938.472656 48.523438 C 939.070312 48.65625 939.445312 49.246094 939.308594 49.839844 L 916.003906 153.882812 C 915.871094 154.476562 915.28125 154.84375 914.6875 154.710938 L 867.8125 144.214844 C 867.21875 144.078125 866.84375 143.492188 866.984375 142.898438 L 890.285156 38.855469 C 890.417969 38.265625 891.003906 37.890625 891.601562 38.019531 L 938.472656 48.523438 " fill-opacity="1" fill-rule="nonzero"/></g><path fill="#8dd260" d="M 933.144531 53.027344 C 933.632812 53.140625 933.933594 53.660156 933.816406 54.191406 L 912.890625 147.601562 C 912.773438 148.132812 912.277344 148.476562 911.789062 148.363281 L 873.144531 139.710938 C 872.660156 139.597656 872.355469 139.078125 872.472656 138.546875 L 893.398438 45.140625 C 893.519531 44.605469 894.011719 44.261719 894.5 44.367188 L 933.144531 53.027344 " fill-opacity="1" fill-rule="nonzero"/><path fill="#70b646" d="M 906.175781 82.855469 C 913.632812 84.53125 918.328125 91.929688 916.65625 99.390625 C 914.984375 106.859375 907.582031 111.554688 900.117188 109.882812 C 892.65625 108.210938 887.960938 100.800781 889.632812 93.339844 C 891.304688 85.878906 898.707031 81.183594 906.175781 82.855469 " fill-opacity="1" fill-rule="nonzero"/><path fill="#70b646" d="M 873.144531 139.710938 L 883.621094 142.054688 C 885.023438 135.78125 881.082031 129.558594 874.804688 128.148438 L 872.472656 138.546875 C 872.355469 139.078125 872.660156 139.597656 873.144531 139.710938 " fill-opacity="1" fill-rule="nonzero"/><path fill="#70b646" d="M 912.875 147.679688 L 915.222656 137.203125 C 908.945312 135.800781 902.71875 139.746094 901.316406 146.019531 L 911.710938 148.351562 C 912.246094 148.46875 912.765625 148.167969 912.875 147.679688 " fill-opacity="1" fill-rule="nonzero"/><path fill="#70b646" d="M 894.5 44.367188 L 904.976562 46.710938 C 903.566406 52.988281 897.34375 56.9375 891.070312 55.53125 L 893.398438 45.140625 C 893.519531 44.605469 894.011719 44.261719 894.5 44.367188 " fill-opacity="1" fill-rule="nonzero"/><path fill="#70b646" d="M 933.828125 54.113281 L 931.484375 64.585938 C 925.210938 63.179688 921.265625 56.953125 922.667969 50.683594 L 933.066406 53.007812 C 933.597656 53.132812 933.941406 53.625 933.828125 54.113281 " fill-opacity="1" fill-rule="nonzero"/><g clip-path="url(#2c47d01214)"><path fill="#70b646" d="M 984.015625 70.339844 C 984.484375 70.734375 984.550781 71.425781 984.160156 71.898438 L 916.003906 153.882812 C 915.617188 154.347656 914.925781 154.410156 914.449219 154.019531 L 877.519531 123.308594 C 877.050781 122.917969 876.984375 122.226562 877.375 121.753906 L 945.53125 39.773438 C 945.917969 39.304688 946.609375 39.246094 947.082031 39.632812 L 984.015625 70.339844 " fill-opacity="1" fill-rule="nonzero"/></g><path fill="#8dd260" d="M 977.222656 71.917969 C 977.601562 72.242188 977.636719 72.839844 977.285156 73.261719 L 916.097656 146.867188 C 915.746094 147.289062 915.148438 147.371094 914.761719 147.046875 L 884.3125 121.734375 C 883.929688 121.410156 883.898438 120.8125 884.246094 120.390625 L 945.4375 46.785156 C 945.785156 46.363281 946.386719 46.285156 946.765625 46.609375 L 977.222656 71.917969 " fill-opacity="1" fill-rule="nonzero"/><path fill="#70b646" d="M 939.617188 86.175781 C 945.496094 91.070312 946.304688 99.800781 941.414062 105.679688 C 936.523438 111.5625 927.796875 112.363281 921.917969 107.476562 C 916.03125 102.585938 915.226562 93.855469 920.121094 87.972656 C 925.003906 82.09375 933.738281 81.289062 939.617188 86.175781 " fill-opacity="1" fill-rule="nonzero"/><path fill="#70b646" d="M 884.3125 121.734375 L 892.5625 128.597656 C 896.671875 123.652344 896 116.308594 891.054688 112.199219 L 884.246094 120.390625 C 883.898438 120.8125 883.929688 121.410156 884.3125 121.734375 " fill-opacity="1" fill-rule="nonzero"/><path fill="#70b646" d="M 916.042969 146.929688 L 922.90625 138.675781 C 917.960938 134.570312 910.617188 135.238281 906.507812 140.183594 L 914.699219 147 C 915.121094 147.351562 915.722656 147.316406 916.042969 146.929688 " fill-opacity="1" fill-rule="nonzero"/><path fill="#70b646" d="M 946.765625 46.609375 L 955.023438 53.460938 C 950.914062 58.40625 943.574219 59.085938 938.628906 54.976562 L 945.4375 46.785156 C 945.785156 46.363281 946.386719 46.285156 946.765625 46.609375 " fill-opacity="1" fill-rule="nonzero"/><path fill="#70b646" d="M 977.339844 73.203125 L 970.476562 81.453125 C 965.535156 77.347656 964.863281 70.003906 968.96875 65.058594 L 977.15625 71.867188 C 977.578125 72.214844 977.664062 72.816406 977.339844 73.203125 " fill-opacity="1" fill-rule="nonzero"/><g clip-path="url(#c4722945f8)"><path fill="#f8bc23" d="M 903.652344 137.03125 L 835.710938 97.816406 L 835.097656 97.816406 L 835.097656 176.25 L 972.214844 176.25 L 972.207031 98.121094 L 903.648438 137.03125 " fill-opacity="1" fill-rule="nonzero"/></g><g clip-path="url(#9267a429d7)"><path fill="#dfa11b" d="M 972.210938 176.25 L 835.09375 176.25 L 903.652344 137.03125 Z M 972.210938 176.25 " fill-opacity="1" fill-rule="nonzero"/></g><g clip-path="url(#073506109d)"><g clip-path="url(#3fa6989eda)"><path fill="#9e9eb0" d="M 531.410156 7.648438 L 758.054688 7.648438 L 758.054688 220.664062 L 531.410156 220.664062 Z M 531.410156 7.648438 " fill-opacity="1" fill-rule="nonzero"/></g></g><g clip-path="url(#43f280d178)"><g clip-path="url(#1cf9da1f0e)"><path fill="#ffffff" d="M 536.015625 0 L 753.445312 0 L 753.445312 213.945312 L 536.015625 213.945312 Z M 536.015625 0 " fill-opacity="1" fill-rule="nonzero"/></g></g><g clip-path="url(#2f74c7d655)"><g clip-path="url(#660f7c2fda)"><path stroke-linecap="butt" transform="matrix(0.748514, 0, 0, 0.747627, 536.016445, 0.00130407)" fill="none" stroke-linejoin="miter" d="M 10.999867 -0.00174427 L 279.735413 -0.00174427 C 282.652651 -0.00174427 285.44986 1.158176 287.511235 3.221999 C 289.57783 5.285822 290.736375 8.081126 290.736375 11.001827 L 290.736375 275.077092 C 290.736375 277.992568 289.57783 280.787872 287.511235 282.851695 C 285.44986 284.915518 282.652651 286.075438 279.735413 286.075438 L 10.999867 286.075438 C 8.082629 286.075438 5.28542 284.915518 3.224045 282.851695 C 1.15745 280.787872 -0.00109493 277.992568 -0.00109493 275.077092 L -0.00109493 11.001827 C -0.00109493 8.081126 1.15745 5.285822 3.224045 3.221999 C 5.28542 1.158176 8.082629 -0.00174427 10.999867 -0.00174427 Z M 10.999867 -0.00174427 " stroke="#cfd3db" stroke-width="8" stroke-opacity="1" stroke-miterlimit="4"/></g></g><path fill="#89d15d" d="M 696.429688 128.621094 L 704.589844 128.621094 C 707.574219 128.621094 710.027344 131.078125 710.027344 134.0625 L 710.027344 166.695312 C 710.027344 169.691406 707.574219 172.132812 704.589844 172.132812 L 612.128906 172.132812 L 612.128906 179.609375 C 612.128906 184.859375 605.871094 187.664062 601.878906 184.210938 L 568.023438 154.976562 C 565.1875 152.523438 565.1875 148.230469 568.023438 145.777344 L 593.09375 124.140625 L 696.429688 128.621094 " fill-opacity="1" fill-rule="nonzero"/><path fill="#89d15d" d="M 696.429688 89.59375 L 721.5 67.957031 C 724.335938 65.503906 724.335938 61.210938 721.5 58.757812 L 687.644531 29.523438 C 683.652344 26.070312 677.394531 28.875 677.394531 34.125 L 677.394531 41.601562 L 584.9375 41.601562 C 581.941406 41.601562 579.496094 44.054688 579.496094 47.039062 L 579.496094 79.671875 C 579.496094 82.660156 581.941406 85.113281 584.9375 85.113281 L 593.09375 85.113281 L 696.429688 89.59375 " fill-opacity="1" fill-rule="nonzero"/><path fill="#4371b1" d="M 685.554688 158.535156 L 603.972656 158.535156 C 597.960938 158.535156 593.09375 153.671875 593.09375 147.660156 L 593.09375 66.078125 C 593.09375 60.0625 597.960938 55.199219 603.972656 55.199219 L 685.554688 55.199219 C 691.566406 55.199219 696.429688 60.0625 696.429688 66.078125 L 696.429688 147.660156 C 696.429688 153.671875 691.566406 158.535156 685.554688 158.535156 " fill-opacity="1" fill-rule="nonzero"/><path fill="#beded9" d="M 614.847656 101.429688 L 614.847656 136.78125 L 625.726562 136.78125 L 625.726562 101.429688 L 614.847656 101.429688 " fill-opacity="1" fill-rule="nonzero"/><path fill="#beded9" d="M 639.324219 101.429688 L 639.324219 136.78125 L 650.199219 136.78125 L 650.199219 101.429688 L 639.324219 101.429688 " fill-opacity="1" fill-rule="nonzero"/><path fill="#beded9" d="M 663.796875 101.429688 L 663.796875 136.78125 L 674.675781 136.78125 L 674.675781 101.429688 L 663.796875 101.429688 " fill-opacity="1" fill-rule="nonzero"/><path fill="#86afb0" d="M 677.394531 87.832031 L 677.394531 101.429688 C 677.394531 102.925781 676.171875 104.148438 674.675781 104.148438 L 614.847656 104.148438 C 613.351562 104.148438 612.128906 102.925781 612.128906 101.429688 L 612.128906 87.832031 L 677.394531 87.832031 " fill-opacity="1" fill-rule="nonzero"/><path fill="#86afb0" d="M 674.675781 134.0625 L 614.847656 134.0625 C 611.84375 134.0625 609.410156 136.492188 609.410156 139.5 L 609.410156 142.21875 C 609.410156 143.71875 610.632812 144.9375 612.128906 144.9375 L 677.394531 144.9375 C 678.894531 144.9375 680.113281 143.71875 680.113281 142.21875 L 680.113281 139.5 C 680.113281 136.492188 677.683594 134.0625 674.675781 134.0625 " fill-opacity="1" fill-rule="nonzero"/><path fill="#beded9" d="M 643.6875 69.074219 L 607.804688 89.203125 C 605.851562 90.296875 606.628906 93.269531 608.878906 93.269531 L 680.644531 93.269531 C 682.898438 93.269531 683.671875 90.296875 681.71875 89.203125 L 645.835938 69.074219 C 645.164062 68.699219 644.359375 68.699219 643.6875 69.074219 " fill-opacity="1" fill-rule="nonzero"/><g clip-path="url(#26177714e0)"><g clip-path="url(#37cd9eef91)"><path fill="#9e9eb0" d="M 266.445312 7.648438 L 493.089844 7.648438 L 493.089844 220.664062 L 266.445312 220.664062 Z M 266.445312 7.648438 " fill-opacity="1" fill-rule="nonzero"/></g></g><g clip-path="url(#7011fbf03e)"><g clip-path="url(#8bebb81a1c)"><path fill="#ffffff" d="M 271.054688 0 L 488.484375 0 L 488.484375 213.945312 L 271.054688 213.945312 Z M 271.054688 0 " fill-opacity="1" fill-rule="nonzero"/></g></g><g clip-path="url(#82b9383f5d)"><g clip-path="url(#f0d729f4f2)"><path stroke-linecap="butt" transform="matrix(0.748514, 0, 0, 0.747627, 271.052888, 0.00130407)" fill="none" stroke-linejoin="miter" d="M 10.998148 -0.00174427 L 279.733694 -0.00174427 C 282.650932 -0.00174427 285.44814 1.158176 287.514735 3.221999 C 289.57611 5.285822 290.734656 8.081126 290.734656 11.001827 L 290.734656 275.077092 C 290.734656 277.992568 289.57611 280.787872 287.514735 282.851695 C 285.44814 284.915518 282.650932 286.075438 279.733694 286.075438 L 10.998148 286.075438 C 8.08091 286.075438 5.283701 284.915518 3.222326 282.851695 C 1.16095 280.787872 0.00240462 277.992568 0.00240462 275.077092 L 0.00240462 11.001827 C 0.00240462 8.081126 1.16095 5.285822 3.222326 3.221999 C 5.283701 1.158176 8.08091 -0.00174427 10.998148 -0.00174427 Z M 10.998148 -0.00174427 " stroke="#cfd3db" stroke-width="8" stroke-opacity="1" stroke-miterlimit="4"/></g></g><g clip-path="url(#3347126972)"><g clip-path="url(#324f274d71)"><g clip-path="url(#5f0013a9a8)"><path fill="#1277be" d="M 450.144531 144.378906 C 450.148438 148.957031 446.4375 152.664062 441.851562 152.65625 L 317.933594 152.535156 C 313.351562 152.53125 309.632812 148.816406 309.628906 144.242188 L 309.5625 69.214844 C 309.558594 64.640625 313.269531 60.933594 317.855469 60.9375 L 441.773438 61.058594 C 446.355469 61.0625 450.074219 64.777344 450.078125 69.355469 Z M 450.144531 144.378906 " fill-opacity="1" fill-rule="nonzero"/></g></g></g><g clip-path="url(#b9d4065d0e)"><g clip-path="url(#00d54be0f7)"><g clip-path="url(#1876a9de7e)"><path fill="#232e63" d="M 450.128906 119.441406 L 450.140625 134.058594 L 309.625 133.914062 L 309.613281 119.296875 Z M 450.128906 119.441406 " fill-opacity="1" fill-rule="nonzero"/></g></g></g><g clip-path="url(#5d4f19762d)"><g clip-path="url(#be720e4725)"><g clip-path="url(#f6b1c1d656)"><path fill="#f9b342" d="M 322.75 78.089844 L 356 78.121094 L 356.019531 99.464844 L 322.769531 99.433594 Z M 322.75 78.089844 " fill-opacity="1" fill-rule="nonzero"/></g></g></g><g clip-path="url(#8140cab36c)"><g clip-path="url(#e21c8f52dd)"><g clip-path="url(#2f6c2112e9)"><path fill="#ffffff" d="M 383.042969 78.160156 L 433.480469 78.210938 L 433.484375 84.351562 L 383.046875 84.296875 Z M 383.042969 78.160156 " fill-opacity="1" fill-rule="nonzero"/></g></g></g><g clip-path="url(#a333f2821d)"><g clip-path="url(#ddf84fddf8)"><g clip-path="url(#a42214dcbe)"><path fill="#ffffff" d="M 383.058594 93.359375 L 433.492188 93.410156 L 433.496094 99.550781 L 383.0625 99.5 Z M 383.058594 93.359375 " fill-opacity="1" fill-rule="nonzero"/></g></g></g><g clip-path="url(#bc07e4d06d)"><g clip-path="url(#f14563641a)"><path fill="#9e9eb0" d="M 1.480469 7.648438 L 228.128906 7.648438 L 228.128906 220.664062 L 1.480469 220.664062 Z M 1.480469 7.648438 " fill-opacity="1" fill-rule="nonzero"/></g></g><g clip-path="url(#bd5de766cc)"><g clip-path="url(#3dcc282b3b)"><path fill="#ffffff" d="M 6.089844 0 L 223.519531 0 L 223.519531 213.945312 L 6.089844 213.945312 Z M 6.089844 0 " fill-opacity="1" fill-rule="nonzero"/></g></g><g clip-path="url(#dd3c9445bb)"><g clip-path="url(#f55889517f)"><path stroke-linecap="butt" transform="matrix(0.748514, 0, 0, 0.747627, 6.089332, 0.00130407)" fill="none" stroke-linejoin="miter" d="M 11.001646 -0.00174427 L 279.737192 -0.00174427 C 282.65443 -0.00174427 285.451638 1.158176 287.513014 3.221999 C 289.57439 5.285822 290.732935 8.081126 290.732935 11.001827 L 290.732935 275.077092 C 290.732935 277.992568 289.57439 280.787872 287.513014 282.851695 C 285.451638 284.915518 282.65443 286.075438 279.737192 286.075438 L 11.001646 286.075438 C 8.084408 286.075438 5.281981 284.915518 3.220605 282.851695 C 1.159229 280.787872 0.000683893 277.992568 0.000683893 275.077092 L 0.000683893 11.001827 C 0.000683893 8.081126 1.159229 5.285822 3.220605 3.221999 C 5.281981 1.158176 8.084408 -0.00174427 11.001646 -0.00174427 Z M 11.001646 -0.00174427 " stroke="#cfd3db" stroke-width="8" stroke-opacity="1" stroke-miterlimit="4"/></g></g><g clip-path="url(#6846040b88)"><path fill="#20335f" d="M 28.894531 62.210938 L 200.605469 62.210938 L 200.605469 151.949219 L 28.894531 151.949219 L 28.894531 62.210938 " fill-opacity="1" fill-rule="evenodd"/></g><path fill="#ffffff" d="M 35.753906 67.480469 L 35.753906 146.679688 L 195.351562 146.679688 L 195.351562 67.480469 Z M 34.078125 65.796875 L 197.027344 65.796875 L 197.027344 148.359375 L 34.078125 148.359375 L 34.078125 65.796875 " fill-opacity="1" fill-rule="evenodd"/><path fill="#ffffff" d="M 186.296875 142.265625 L 139.792969 142.265625 L 139.792969 138.675781 L 186.296875 138.675781 L 186.296875 142.265625 " fill-opacity="1" fill-rule="evenodd"/><path fill="#ffffff" d="M 182.71875 80.15625 L 139.792969 80.15625 L 139.792969 76.570312 L 182.71875 76.570312 L 182.71875 80.15625 " fill-opacity="1" fill-rule="evenodd"/><path fill="#ffffff" d="M 189.875 90.925781 L 139.792969 90.925781 L 139.792969 87.335938 L 189.875 87.335938 L 189.875 90.925781 " fill-opacity="1" fill-rule="evenodd"/><path fill="#ffffff" d="M 186.296875 119.644531 L 43.203125 119.644531 L 43.203125 117.847656 L 186.296875 117.847656 L 186.296875 119.644531 " fill-opacity="1" fill-rule="evenodd"/><path fill="#8b8ba1" d="M 43.203125 98.105469 L 43.203125 76.570312 L 70.039062 76.570312 L 70.039062 98.105469 L 43.203125 98.105469 " fill-opacity="1" fill-rule="evenodd"/><path fill="#ffffff" d="M 56.75 79.476562 L 64.050781 83.671875 L 64.097656 83.703125 C 64.25 83.828125 64.371094 83.980469 64.453125 84.152344 C 64.539062 84.324219 64.582031 84.515625 64.585938 84.714844 L 64.585938 84.71875 L 64.589844 85.105469 L 64.589844 85.117188 L 64.59375 85.117188 C 64.59375 85.476562 64.449219 85.804688 64.21875 86.039062 C 63.984375 86.28125 63.664062 86.429688 63.304688 86.433594 L 48.640625 86.433594 C 48.28125 86.433594 47.953125 86.285156 47.71875 86.046875 C 47.484375 85.808594 47.339844 85.480469 47.339844 85.117188 L 47.339844 84.730469 C 47.339844 84.53125 47.386719 84.335938 47.46875 84.160156 C 47.554688 83.984375 47.675781 83.824219 47.832031 83.703125 L 47.878906 83.667969 L 55.1875 79.480469 C 55.296875 79.394531 55.417969 79.328125 55.542969 79.285156 C 55.683594 79.234375 55.828125 79.210938 55.972656 79.210938 C 56.117188 79.210938 56.261719 79.234375 56.402344 79.285156 C 56.523438 79.328125 56.644531 79.394531 56.75 79.476562 " fill-opacity="1" fill-rule="nonzero"/><path fill="#ffffff" d="M 47.695312 94.015625 L 64.25 94.015625 C 64.648438 94.015625 64.96875 94.339844 64.96875 94.742188 C 64.96875 95.136719 64.648438 95.460938 64.25 95.460938 L 47.695312 95.460938 C 47.296875 95.460938 46.976562 95.136719 46.976562 94.742188 C 46.976562 94.339844 47.296875 94.015625 47.695312 94.015625 " fill-opacity="1" fill-rule="evenodd"/><path fill="#ffffff" d="M 63.167969 87.746094 L 63.167969 93.0625 C 63.167969 93.390625 62.847656 93.65625 62.449219 93.65625 C 62.050781 93.65625 61.730469 93.390625 61.730469 93.0625 L 61.730469 87.746094 C 61.730469 87.421875 62.050781 87.15625 62.449219 87.15625 C 62.847656 87.15625 63.167969 87.421875 63.167969 87.746094 " fill-opacity="1" fill-rule="evenodd"/><path fill="#ffffff" d="M 50.214844 87.746094 L 50.214844 93.0625 C 50.214844 93.390625 49.894531 93.65625 49.496094 93.65625 C 49.097656 93.65625 48.773438 93.390625 48.773438 93.0625 L 48.773438 87.746094 C 48.773438 87.421875 49.097656 87.15625 49.496094 87.15625 C 49.894531 87.15625 50.214844 87.421875 50.214844 87.746094 " fill-opacity="1" fill-rule="evenodd"/><path fill="#ffffff" d="M 56.691406 87.746094 L 56.691406 93.0625 C 56.691406 93.390625 56.371094 93.65625 55.972656 93.65625 C 55.574219 93.65625 55.253906 93.390625 55.253906 93.0625 L 55.253906 87.746094 C 55.253906 87.421875 55.574219 87.15625 55.972656 87.15625 C 56.371094 87.15625 56.691406 87.421875 56.691406 87.746094 " fill-opacity="1" fill-rule="evenodd"/><path fill="#ffffff" d="M 180.894531 134.144531 C 181.140625 134.617188 181.726562 134.804688 182.199219 134.554688 C 182.671875 134.304688 182.855469 133.71875 182.609375 133.246094 L 181.71875 131.542969 C 178.082031 124.582031 175.578125 123.269531 173.351562 124.4375 C 171.988281 125.15625 170.953125 126.808594 169.820312 128.621094 C 168.222656 131.175781 166.398438 134.089844 163.625 134.089844 C 162.425781 134.089844 161.496094 133.820312 160.792969 133.382812 C 163.460938 132.917969 165.140625 132.003906 165.96875 130.996094 C 166.492188 130.359375 166.714844 129.671875 166.671875 128.996094 C 166.628906 128.3125 166.3125 127.675781 165.75 127.148438 C 164.679688 126.144531 162.589844 125.523438 159.804688 125.90625 C 158.550781 126.082031 157.648438 127.121094 157.265625 128.5 C 157.082031 129.167969 157.019531 129.925781 157.101562 130.691406 C 157.136719 131.027344 157.199219 131.363281 157.292969 131.699219 C 156.597656 131.660156 155.644531 131.578125 154.628906 131.492188 C 151.355469 131.210938 147.476562 130.878906 147.078125 132.121094 C 146.789062 133.023438 148.382812 134.207031 153.398438 135.824219 C 153.90625 135.988281 154.449219 135.707031 154.613281 135.199219 C 154.777344 134.6875 154.5 134.136719 153.988281 133.972656 C 150.335938 132.796875 148.855469 132.921875 148.921875 132.714844 C 148.996094 132.480469 151.894531 133.210938 154.46875 133.433594 C 156.078125 133.570312 157.53125 133.695312 158.253906 133.664062 C 159.285156 135.035156 161.015625 136.039062 163.625 136.039062 C 167.46875 136.039062 169.59375 132.640625 171.460938 129.65625 C 172.449219 128.074219 173.355469 126.628906 174.246094 126.160156 C 175.429688 125.539062 177.058594 126.808594 180.003906 132.441406 Z M 161.007812 128.15625 C 162.132812 127.667969 163.324219 127.910156 163.660156 128.695312 C 163.996094 129.480469 163.355469 130.507812 162.222656 130.996094 C 161.097656 131.484375 159.910156 131.246094 159.574219 130.460938 C 159.234375 129.675781 159.878906 128.644531 161.007812 128.15625 " fill-opacity="1" fill-rule="nonzero"/></svg>