<svg width="89" height="89" viewBox="0 0 89 89" fill="none" xmlns="http://www.w3.org/2000/svg">
<rect x="0.723633" y="0.0585938" width="88" height="88" fill="#1DA1F2"/>
<path d="M53.7337 20.9111V20.9014H56.246L57.164 21.0855C57.776 21.205 58.3316 21.3617 58.8308 21.5555C59.33 21.7493 59.8132 21.9755 60.2802 22.2339C60.7472 22.4923 61.1708 22.7556 61.5509 23.0237C61.9277 23.2886 62.2659 23.5696 62.5654 23.8668C62.8617 24.1672 63.3239 24.2447 63.952 24.0993C64.5801 23.954 65.2564 23.7521 65.9811 23.4937C66.7058 23.2353 67.4225 22.9445 68.1311 22.6215C68.8397 22.2984 69.2713 22.0933 69.4259 22.0061C69.5773 21.9157 69.6578 21.8673 69.6675 21.8608L69.6771 21.8462L69.7254 21.822L69.7737 21.7978L69.822 21.7735L69.8704 21.7493L69.88 21.7348L69.8945 21.7251L69.9091 21.7154L69.9187 21.7009L69.967 21.6863L70.0153 21.6766L70.0057 21.7493L69.9911 21.822L69.967 21.8947L69.9428 21.9674L69.9187 22.0158L69.8945 22.0643L69.8704 22.137C69.8543 22.1854 69.8382 22.25 69.822 22.3308C69.806 22.4115 69.6529 22.7345 69.3631 23.2999C69.0732 23.8652 68.7108 24.4385 68.276 25.02C67.8412 25.6014 67.4515 26.0407 67.1069 26.3379C66.759 26.6384 66.5287 26.8483 66.416 26.9678C66.3032 27.0906 66.1664 27.2036 66.0053 27.307L65.7637 27.4669L65.7154 27.4911L65.6671 27.5154L65.6575 27.5299L65.6429 27.5396L65.6285 27.5493L65.6188 27.5638L65.5705 27.5881L65.5222 27.6123L65.5126 27.6268L65.498 27.6365L65.4835 27.6462L65.4738 27.6607L65.4642 27.6753L65.4497 27.685L65.4352 27.6947L65.4255 27.7092H65.6671L67.0199 27.4185C67.9217 27.2247 68.7833 26.9905 69.6046 26.7159L70.9091 26.2798L71.054 26.2313L71.1265 26.2071L71.1748 26.1829L71.2231 26.1587L71.2714 26.1344L71.3198 26.1102L71.4164 26.0957L71.513 26.086V26.1829L71.4888 26.1926L71.4647 26.2071L71.4551 26.2216L71.4405 26.2313L71.426 26.241L71.4164 26.2556L71.4068 26.2701L71.3922 26.2798L71.3777 26.2895L71.3681 26.304L71.3585 26.3186L71.3439 26.3282L71.3198 26.3767L71.2956 26.4252L71.2811 26.4348C71.2747 26.4445 71.0702 26.7191 70.6675 27.2586C70.2649 27.8013 70.0475 28.0758 70.0153 28.0823C69.9831 28.092 69.938 28.1404 69.88 28.2277C69.8253 28.3181 69.4838 28.6783 68.8558 29.3082C68.2277 29.9381 67.6126 30.4985 67.0103 30.9895C66.4048 31.4838 66.0987 32.0911 66.0923 32.8114C66.0826 33.5286 66.0456 34.3394 65.9811 35.2438C65.9167 36.1483 65.796 37.1255 65.6188 38.1753C65.4417 39.2252 65.1679 40.4123 64.7975 41.7367C64.4271 43.0611 63.9761 44.3532 63.4447 45.613C62.9132 46.8729 62.3576 48.0034 61.7779 49.0048C61.1981 50.0063 60.6667 50.8542 60.1835 51.5487C59.7004 52.2432 59.2093 52.8973 58.71 53.5111C58.2108 54.1249 57.5795 54.8162 56.8162 55.5849C56.0496 56.3505 55.6309 56.7705 55.56 56.8447C55.486 56.9158 55.1703 57.1807 54.613 57.6394C54.0591 58.1013 53.4632 58.5632 52.8254 59.0252C52.1909 59.4839 51.6079 59.8667 51.0765 60.1736C50.545 60.4804 49.9041 60.8309 49.1536 61.225C48.4064 61.6223 47.5979 61.9906 46.7283 62.3298C45.8587 62.669 44.9407 62.9839 43.9744 63.2746C43.0082 63.5654 42.0741 63.7915 41.1723 63.953C40.2705 64.1145 39.2478 64.2518 38.1044 64.3649L36.3893 64.5344V64.5587H33.2489V64.5344L32.8382 64.5102C32.5645 64.4941 32.339 64.4779 32.1619 64.4618C31.9847 64.4456 31.3164 64.3568 30.1569 64.1953C28.9973 64.0338 28.0874 63.8722 27.4272 63.7107C26.7669 63.5492 25.7845 63.2423 24.48 62.7901C23.1756 62.3379 22.0595 61.8807 21.1319 61.4188C20.2076 60.9601 19.6278 60.6694 19.3927 60.5467C19.1608 60.4271 18.8999 60.2786 18.61 60.1009L18.1752 59.8344L18.1655 59.8198L18.151 59.8102L18.1365 59.8005L18.1268 59.7859L18.0785 59.7617L18.0302 59.7375L18.0206 59.7229L18.0061 59.7132L17.9916 59.7036L17.9819 59.689L17.9723 59.6745L17.9578 59.6648H17.9336V59.5679L17.9819 59.5776L18.0302 59.5921L18.2476 59.6163C18.3926 59.6325 18.7871 59.6567 19.4313 59.689C20.0755 59.7213 20.7599 59.7213 21.4846 59.689C22.2093 59.6567 22.9502 59.584 23.707 59.471C24.464 59.3579 25.3577 59.1641 26.3884 58.8895C27.4191 58.6149 28.3661 58.2887 29.2293 57.9107C30.0893 57.5296 30.7012 57.2453 31.0652 57.0579C31.4259 56.8738 31.9767 56.5314 32.7175 56.0307L33.8287 55.2797L33.8383 55.2651L33.8528 55.2554L33.8674 55.2458L33.877 55.2312L33.8866 55.2167L33.9011 55.207L33.9157 55.1973L33.9253 55.1828L33.9736 55.1682L34.0219 55.1585L34.0316 55.1101L34.0461 55.0616L34.0606 55.0519L34.0702 55.0374L33.6837 55.0132C33.4261 54.997 33.1764 54.9809 32.9349 54.9647C32.6933 54.9486 32.3149 54.8759 31.7995 54.7467C31.2842 54.6175 30.7286 54.4236 30.1327 54.1652C29.5368 53.9068 28.9571 53.5999 28.3934 53.2446C27.8298 52.8893 27.4223 52.5937 27.1711 52.3579C26.9231 52.1253 26.601 51.7958 26.2048 51.3694C25.8119 50.9398 25.4705 50.4988 25.1806 50.0466C24.8907 49.5944 24.6137 49.0726 24.3496 48.4815L23.9486 47.5997L23.9244 47.527L23.9003 47.4543L23.8858 47.4059L23.8761 47.3574L23.9486 47.3671L24.0211 47.3816L24.5525 47.4543C24.9068 47.5028 25.4624 47.5189 26.2193 47.5028C26.9762 47.4866 27.4996 47.4543 27.7895 47.4059C28.0794 47.3574 28.2565 47.3251 28.3209 47.3089L28.4176 47.2847L28.5384 47.2605L28.6591 47.2363L28.6688 47.2217L28.6833 47.212L28.6978 47.2023L28.7075 47.1878L28.6108 47.1636L28.5142 47.1394L28.4176 47.1151L28.3209 47.0909L28.2243 47.0667C28.1599 47.0505 28.0472 47.0182 27.8861 46.9698C27.7251 46.9213 27.2903 46.7436 26.5817 46.4368C25.8731 46.1299 25.3094 45.8311 24.8907 45.5404C24.4709 45.2488 24.0707 44.9299 23.6925 44.5858C23.3157 44.2369 22.9018 43.7879 22.4509 43.2388C22 42.6897 21.5974 42.0517 21.2431 41.3248C20.8888 40.598 20.623 39.9035 20.4459 39.2413C20.2694 38.583 20.153 37.9099 20.0981 37.2305L20.0111 36.2129L20.0594 36.2226L20.1077 36.2371L20.156 36.2614L20.2043 36.2856L20.2526 36.3098L20.3009 36.3341L21.0498 36.6732C21.5491 36.8994 22.1691 37.0932 22.9099 37.2547C23.6507 37.4162 24.0935 37.505 24.2385 37.5212L24.4559 37.5454H24.8907L24.8811 37.5309L24.8665 37.5212L24.8521 37.5115L24.8424 37.497L24.8328 37.4824L24.8182 37.4727L24.8037 37.463L24.7941 37.4485L24.7458 37.4243L24.6975 37.4L24.6878 37.3855L24.6733 37.3758L24.6588 37.3661L24.6491 37.3516L24.6008 37.3274L24.5525 37.3031L24.5429 37.2886C24.5332 37.2821 24.3947 37.1788 24.1274 36.9785C23.8632 36.775 23.5862 36.5117 23.2964 36.1887C23.0065 35.8656 22.7166 35.5265 22.4267 35.1712C22.1363 34.815 21.8776 34.434 21.6537 34.0325C21.4283 33.6287 21.1899 33.115 20.9387 32.4916C20.6907 31.8714 20.5023 31.2464 20.3734 30.6164C20.2446 29.9865 20.1721 29.3647 20.156 28.751C20.1399 28.1372 20.156 27.6123 20.2043 27.1762C20.2526 26.7401 20.3493 26.2475 20.4942 25.6983C20.6391 25.1492 20.8485 24.5678 21.1223 23.954L21.5329 23.0334L21.5571 22.9607L21.5812 22.888L21.5958 22.8783L21.6054 22.8638L21.6151 22.8492L21.6296 22.8395L21.6441 22.8492L21.6537 22.8638L21.6634 22.8783L21.6779 22.888L21.6924 22.8977L21.702 22.9122L21.7117 22.9268L21.7262 22.9364L21.7503 22.9849L21.7745 23.0334L21.789 23.043L21.7987 23.0576L22.4509 23.7844C22.8857 24.2689 23.4011 24.81 23.9969 25.4076C24.5928 26.0052 24.9229 26.3153 24.9873 26.3379C25.0518 26.3638 25.1323 26.438 25.2289 26.5608C25.3255 26.6804 25.6476 26.9662 26.1952 27.4185C26.7427 27.8707 27.4594 28.3956 28.3451 28.9932C29.2309 29.5908 30.2132 30.1804 31.2922 30.7618C32.3712 31.3433 33.5308 31.8682 34.7708 32.3366C36.0108 32.805 36.8805 33.1118 37.3797 33.2572C37.879 33.4026 38.7325 33.5883 39.9403 33.8144C41.1481 34.0406 42.0581 34.1859 42.67 34.2505C43.282 34.3151 43.7007 34.3523 43.9261 34.362L44.2643 34.3717L44.2547 34.299L44.2402 34.2263L44.1435 33.6206C44.0791 33.2168 44.0469 32.6515 44.0469 31.9247C44.0469 31.1979 44.1033 30.5276 44.216 29.9139C44.3288 29.3001 44.4979 28.6783 44.7233 28.0484C44.9488 27.4185 45.1694 26.9129 45.3852 26.5318C45.6042 26.1538 45.8909 25.7226 46.2452 25.238C46.5995 24.7535 47.0585 24.2528 47.6221 23.7359C48.1858 23.2191 48.8299 22.7588 49.5546 22.355C50.2793 21.9512 50.9477 21.6443 51.5596 21.4344C52.1716 21.2244 52.687 21.0871 53.1057 21.0225C53.5244 20.9579 53.7337 20.9207 53.7337 20.9111V20.9111Z" fill="white"/>
</svg>
